solid Multibox-Sensor
facet normal 0.0 -1.0 0.0
  outer loop
    vertex 404.29367022990544 760.7645618827527 7.097886999999971
    vertex 399.2936702299055 760.7645618827527 14.597886999999965
    vertex 368.7936702299055 760.7645618827527 7.097886999999971
  endloop
endfacet
facet normal 0.0 -1.0 0.0
  outer loop
    vertex 399.2936702299055 760.7645618827527 14.597886999999965
    vertex 404.29367022990544 760.7645618827527 7.097886999999971
    vertex 404.29367022990544 760.7645618827527 18.347886999999957
  endloop
endfacet
facet normal 0.0 -1.0 0.0
  outer loop
    vertex 399.2936702299055 760.7645618827527 14.597886999999965
    vertex 404.29367022990544 760.7645618827527 18.347886999999957
    vertex 399.2936702299055 760.7645618827527 18.347886999999957
  endloop
endfacet
facet normal 0.0 -1.0 0.0
  outer loop
    vertex 368.7936702299055 760.7645618827527 7.097886999999971
    vertex 373.7936702299055 760.7645618827527 14.597886999999965
    vertex 368.7936702299055 760.7645618827527 18.34788699999996
  endloop
endfacet
facet normal 0.0 -1.0 0.0
  outer loop
    vertex 373.7936702299055 760.7645618827527 14.597886999999965
    vertex 368.7936702299055 760.7645618827527 7.097886999999971
    vertex 399.2936702299055 760.7645618827527 14.597886999999965
  endloop
endfacet
facet normal 0.0 -1.0 0.0
  outer loop
    vertex 368.7936702299055 760.7645618827527 18.34788699999996
    vertex 373.7936702299055 760.7645618827527 14.597886999999965
    vertex 373.7936702299055 760.7645618827527 18.34788699999996
  endloop
endfacet
facet normal 1.2500555052105101e-17 2.1880559299703304e-19 -1.0
  outer loop
    vertex 368.7936702299055 794.2645618827544 7.097886999999971
    vertex 370.7936702299055 789.2645618827542 7.097886999999969
    vertex 368.7936702299055 760.7645618827527 7.097886999999971
  endloop
endfacet
facet normal 1.2500555052105101e-17 2.1880559299703304e-19 -1.0
  outer loop
    vertex 370.7936702299055 789.2645618827542 7.097886999999969
    vertex 368.7936702299055 794.2645618827544 7.097886999999971
    vertex 373.7936702299055 794.2645618827544 7.097886999999971
  endloop
endfacet
facet normal 1.2500555052105101e-17 2.1880559299703304e-19 -1.0
  outer loop
    vertex 370.7936702299055 789.2645618827542 7.097886999999969
    vertex 373.7936702299055 794.2645618827544 7.097886999999971
    vertex 373.7936702299055 789.2645618827542 7.097886999999971
  endloop
endfacet
facet normal 1.2500555052105101e-17 2.1880559299703304e-19 -1.0
  outer loop
    vertex 402.29367022990556 765.7645618827537 7.097886999999971
    vertex 399.2936702299055 762.7645618827527 7.097886999999971
    vertex 399.2936702299055 765.7645618827537 7.097886999999971
  endloop
endfacet
facet normal 1.2500555052105101e-17 2.1880559299703304e-19 -1.0
  outer loop
    vertex 404.29367022990544 794.2645618827544 7.097886999999971
    vertex 399.2936702299055 789.2645618827542 7.097886999999971
    vertex 399.2936702299055 794.2645618827544 7.097886999999971
  endloop
endfacet
facet normal 1.2500555052105101e-17 2.1880559299703304e-19 -1.0
  outer loop
    vertex 399.2936702299055 789.2645618827542 7.097886999999971
    vertex 404.29367022990544 794.2645618827544 7.097886999999971
    vertex 402.29367022990556 789.2645618827542 7.097886999999971
  endloop
endfacet
facet normal 1.2500555052105101e-17 2.1880559299703304e-19 -1.0
  outer loop
    vertex 402.29367022990556 789.2645618827542 7.097886999999971
    vertex 404.29367022990544 794.2645618827544 7.097886999999971
    vertex 402.29367022990556 765.7645618827537 7.097886999999971
  endloop
endfacet
facet normal 1.2500555052105101e-17 2.1880559299703304e-19 -1.0
  outer loop
    vertex 368.7936702299055 760.7645618827527 7.097886999999971
    vertex 373.7936702299055 762.7645618827527 7.097886999999971
    vertex 404.29367022990544 760.7645618827527 7.097886999999971
  endloop
endfacet
facet normal 1.2500555052105101e-17 2.1880559299703304e-19 -1.0
  outer loop
    vertex 373.7936702299055 762.7645618827527 7.097886999999971
    vertex 368.7936702299055 760.7645618827527 7.097886999999971
    vertex 370.7936702299055 765.7645618827537 7.097886999999969
  endloop
endfacet
facet normal 1.2500555052105101e-17 2.1880559299703304e-19 -1.0
  outer loop
    vertex 370.7936702299055 765.7645618827537 7.097886999999969
    vertex 368.7936702299055 760.7645618827527 7.097886999999971
    vertex 370.7936702299055 789.2645618827542 7.097886999999969
  endloop
endfacet
facet normal 1.2500555052105101e-17 2.1880559299703304e-19 -1.0
  outer loop
    vertex 373.7936702299055 762.7645618827527 7.097886999999971
    vertex 370.7936702299055 765.7645618827537 7.097886999999969
    vertex 373.7936702299055 765.7645618827537 7.097886999999971
  endloop
endfacet
facet normal 1.2500555052105101e-17 2.1880559299703304e-19 -1.0
  outer loop
    vertex 404.29367022990544 760.7645618827527 7.097886999999971
    vertex 373.7936702299055 762.7645618827527 7.097886999999971
    vertex 399.2936702299055 762.7645618827527 7.097886999999971
  endloop
endfacet
facet normal 1.2500555052105101e-17 2.1880559299703304e-19 -1.0
  outer loop
    vertex 404.29367022990544 760.7645618827527 7.097886999999971
    vertex 399.2936702299055 762.7645618827527 7.097886999999971
    vertex 402.29367022990556 765.7645618827537 7.097886999999971
  endloop
endfacet
facet normal 1.2500555052105101e-17 2.1880559299703304e-19 -1.0
  outer loop
    vertex 404.29367022990544 760.7645618827527 7.097886999999971
    vertex 402.29367022990556 765.7645618827537 7.097886999999971
    vertex 404.29367022990544 794.2645618827544 7.097886999999971
  endloop
endfacet
facet normal 1.8607662045425508e-16 1.1526870293624827e-16 1.0
  outer loop
    vertex 373.7936702299055 760.7645618827527 18.34788699999996
    vertex 368.7936702299055 761.5145618827527 18.347886999999965
    vertex 368.7936702299055 760.7645618827527 18.34788699999996
  endloop
endfacet
facet normal 1.8607662045425508e-16 1.1526870293624827e-16 1.0
  outer loop
    vertex 368.7936702299055 761.5145618827527 18.347886999999965
    vertex 373.7936702299055 760.7645618827527 18.34788699999996
    vertex 370.9054416622518 761.8156731433195 18.34788699999996
  endloop
endfacet
facet normal 1.8607662045425508e-16 1.1526870293624827e-16 1.0
  outer loop
    vertex 368.7936702299055 761.5145618827527 18.347886999999965
    vertex 370.9054416622518 761.8156731433195 18.34788699999996
    vertex 370.5436702299057 761.9655237770762 18.34788699999996
  endloop
endfacet
facet normal 1.8607662045425508e-16 1.1526870293624827e-16 1.0
  outer loop
    vertex 368.7936702299055 761.5145618827527 18.347886999999965
    vertex 370.5436702299057 761.9655237770762 18.34788699999996
    vertex 370.2330100581259 762.2039017109736 18.34788699999996
  endloop
endfacet
facet normal 1.8607662045425508e-16 1.1526870293624827e-16 1.0
  outer loop
    vertex 368.7936702299055 761.5145618827527 18.347886999999965
    vertex 370.2330100581259 762.2039017109736 18.34788699999996
    vertex 369.99463212422916 762.5145618827528 18.34788699999996
  endloop
endfacet
facet normal 1.8607662045425508e-16 1.1526870293624827e-16 1.0
  outer loop
    vertex 368.7936702299055 761.5145618827527 18.347886999999965
    vertex 369.99463212422916 762.5145618827528 18.34788699999996
    vertex 369.8447814904722 762.8763333150995 18.34788699999996
  endloop
endfacet
facet normal 1.8607662045425508e-16 1.1526870293624827e-16 1.0
  outer loop
    vertex 368.7936702299055 761.5145618827527 18.347886999999965
    vertex 369.8447814904722 762.8763333150995 18.34788699999996
    vertex 368.7936702299055 765.7645618827537 18.34788699999996
  endloop
endfacet
facet normal 1.8607662045425508e-16 1.1526870293624827e-16 1.0
  outer loop
    vertex 368.7936702299055 765.7645618827537 18.34788699999996
    vertex 369.8447814904722 762.8763333150995 18.34788699999996
    vertex 369.79367022990584 763.2645618827528 18.34788699999996
  endloop
endfacet
facet normal 1.8607662045425508e-16 1.1526870293624827e-16 1.0
  outer loop
    vertex 369.8447814904722 762.8763333150995 18.34788699999996
    vertex 369.99463212422916 762.5145618827528 18.34788699999996
    vertex 369.89107873363605 762.7645618827527 18.34788699999996
  endloop
endfacet
facet normal 1.8607662045425508e-16 1.1526870293624827e-16 1.0
  outer loop
    vertex 370.5436702299057 761.9655237770762 18.34788699999996
    vertex 370.9054416622518 761.8156731433195 18.34788699999996
    vertex 370.7936702299055 761.8619703864833 18.34788699999996
  endloop
endfacet
facet normal 1.8607662045425508e-16 1.1526870293624827e-16 1.0
  outer loop
    vertex 370.9054416622518 761.8156731433195 18.34788699999996
    vertex 373.7936702299055 760.7645618827527 18.34788699999996
    vertex 371.2936702299055 761.7645618827531 18.34788699999996
  endloop
endfacet
facet normal 1.8607662045425508e-16 1.1526870293624827e-16 1.0
  outer loop
    vertex 371.2936702299055 761.7645618827531 18.34788699999996
    vertex 373.7936702299055 760.7645618827527 18.34788699999996
    vertex 371.6818987975592 761.8156731433195 18.34788699999996
  endloop
endfacet
facet normal 1.8607662045425508e-16 1.1526870293624827e-16 1.0
  outer loop
    vertex 371.6818987975592 761.8156731433195 18.34788699999996
    vertex 373.7936702299055 760.7645618827527 18.34788699999996
    vertex 371.7936702299055 761.8619703864833 18.34788699999996
  endloop
endfacet
facet normal 1.8607662045425508e-16 1.1526870293624827e-16 1.0
  outer loop
    vertex 371.7936702299055 761.8619703864833 18.34788699999996
    vertex 373.7936702299055 760.7645618827527 18.34788699999996
    vertex 372.04367022990533 761.9655237770762 18.34788699999996
  endloop
endfacet
facet normal 1.8607662045425508e-16 1.1526870293624827e-16 1.0
  outer loop
    vertex 372.04367022990533 761.9655237770762 18.34788699999996
    vertex 373.7936702299055 760.7645618827527 18.34788699999996
    vertex 372.3543304016851 762.2039017109736 18.34788699999996
  endloop
endfacet
facet normal 1.8607662045425508e-16 1.1526870293624827e-16 1.0
  outer loop
    vertex 372.3543304016851 762.2039017109736 18.34788699999996
    vertex 373.7936702299055 760.7645618827527 18.34788699999996
    vertex 372.59270833558185 762.5145618827528 18.34788699999996
  endloop
endfacet
facet normal 1.8607662045425508e-16 1.1526870293624827e-16 1.0
  outer loop
    vertex 372.59270833558185 762.5145618827528 18.34788699999996
    vertex 373.7936702299055 760.7645618827527 18.34788699999996
    vertex 372.7425589693388 762.8763333150995 18.34788699999996
  endloop
endfacet
facet normal 1.8607662045425508e-16 1.1526870293624827e-16 1.0
  outer loop
    vertex 372.7425589693388 762.8763333150995 18.34788699999996
    vertex 373.7936702299055 760.7645618827527 18.34788699999996
    vertex 372.79367022990516 763.2645618827528 18.34788699999996
  endloop
endfacet
facet normal 1.8607662045425508e-16 1.1526870293624827e-16 1.0
  outer loop
    vertex 368.7936702299055 765.7645618827537 18.34788699999996
    vertex 370.9054416622518 764.7134506221869 18.34788699999996
    vertex 373.7936702299055 765.7645618827537 18.34788699999996
  endloop
endfacet
facet normal 1.8607662045425508e-16 1.1526870293624827e-16 1.0
  outer loop
    vertex 370.9054416622518 764.7134506221869 18.34788699999996
    vertex 368.7936702299055 765.7645618827537 18.34788699999996
    vertex 370.5436702299057 764.5635999884292 18.34788699999996
  endloop
endfacet
facet normal 1.8607662045425508e-16 1.1526870293624827e-16 1.0
  outer loop
    vertex 370.5436702299057 764.5635999884292 18.34788699999996
    vertex 368.7936702299055 765.7645618827537 18.34788699999996
    vertex 370.2330100581259 764.3252220545326 18.34788699999996
  endloop
endfacet
facet normal 1.8607662045425508e-16 1.1526870293624827e-16 1.0
  outer loop
    vertex 370.2330100581259 764.3252220545326 18.34788699999996
    vertex 368.7936702299055 765.7645618827537 18.34788699999996
    vertex 369.99463212422916 764.0145618827527 18.34788699999996
  endloop
endfacet
facet normal 1.8607662045425508e-16 1.1526870293624827e-16 1.0
  outer loop
    vertex 369.99463212422916 764.0145618827527 18.34788699999996
    vertex 368.7936702299055 765.7645618827537 18.34788699999996
    vertex 369.8447814904722 763.6527904504067 18.34788699999996
  endloop
endfacet
facet normal 1.8607662045425508e-16 1.1526870293624827e-16 1.0
  outer loop
    vertex 369.8447814904722 763.6527904504067 18.34788699999996
    vertex 368.7936702299055 765.7645618827537 18.34788699999996
    vertex 369.79367022990584 763.2645618827528 18.34788699999996
  endloop
endfacet
facet normal 1.8607662045425508e-16 1.1526870293624827e-16 1.0
  outer loop
    vertex 369.99463212422916 764.0145618827527 18.34788699999996
    vertex 369.8447814904722 763.6527904504067 18.34788699999996
    vertex 369.89107873363594 763.7645618827527 18.34788699999996
  endloop
endfacet
facet normal 1.8607662045425508e-16 1.1526870293624827e-16 1.0
  outer loop
    vertex 370.2330100581259 764.3252220545326 18.34788699999996
    vertex 369.99463212422916 764.0145618827527 18.34788699999996
    vertex 370.18646387122396 764.2645618827526 18.34788699999996
  endloop
endfacet
facet normal 1.8607662045425508e-16 1.1526870293624827e-16 1.0
  outer loop
    vertex 373.7936702299055 765.7645618827537 18.34788699999996
    vertex 370.9054416622518 764.7134506221869 18.34788699999996
    vertex 371.2936702299055 764.7645618827528 18.34788699999996
  endloop
endfacet
facet normal 1.8607662045425508e-16 1.1526870293624827e-16 1.0
  outer loop
    vertex 373.7936702299055 765.7645618827537 18.34788699999996
    vertex 371.2936702299055 764.7645618827528 18.34788699999996
    vertex 371.6818987975592 764.7134506221869 18.34788699999996
  endloop
endfacet
facet normal 1.8607662045425508e-16 1.1526870293624827e-16 1.0
  outer loop
    vertex 373.7936702299055 765.7645618827537 18.34788699999996
    vertex 371.6818987975592 764.7134506221869 18.34788699999996
    vertex 372.04367022990533 764.5635999884292 18.34788699999996
  endloop
endfacet
facet normal 1.8607662045425508e-16 1.1526870293624827e-16 1.0
  outer loop
    vertex 373.7936702299055 765.7645618827537 18.34788699999996
    vertex 372.04367022990533 764.5635999884292 18.34788699999996
    vertex 372.3543304016851 764.3252220545326 18.34788699999996
  endloop
endfacet
facet normal 1.8607662045425508e-16 1.1526870293624827e-16 1.0
  outer loop
    vertex 373.7936702299055 765.7645618827537 18.34788699999996
    vertex 372.3543304016851 764.3252220545326 18.34788699999996
    vertex 372.59270833558185 764.0145618827527 18.34788699999996
  endloop
endfacet
facet normal 1.8607662045425508e-16 1.1526870293624827e-16 1.0
  outer loop
    vertex 373.7936702299055 765.7645618827537 18.34788699999996
    vertex 372.59270833558185 764.0145618827527 18.34788699999996
    vertex 372.7425589693388 763.6527904504067 18.34788699999996
  endloop
endfacet
facet normal 1.8607662045425508e-16 1.1526870293624827e-16 1.0
  outer loop
    vertex 373.7936702299055 765.7645618827537 18.34788699999996
    vertex 372.7425589693388 763.6527904504067 18.34788699999996
    vertex 372.79367022990516 763.2645618827528 18.34788699999996
  endloop
endfacet
facet normal 1.8607662045425508e-16 1.1526870293624827e-16 1.0
  outer loop
    vertex 373.7936702299055 765.7645618827537 18.34788699999996
    vertex 372.79367022990516 763.2645618827528 18.34788699999996
    vertex 373.7936702299055 760.7645618827527 18.34788699999996
  endloop
endfacet
facet normal 1.8607662045425508e-16 1.1526870293624827e-16 1.0
  outer loop
    vertex 373.7936702299055 765.7645618827537 18.34788699999996
    vertex 373.7936702299055 760.7645618827527 18.34788699999996
    vertex 373.7936702299055 761.7645618827528 18.34788699999996
  endloop
endfacet
facet normal -1.0 0.0 0.0
  outer loop
    vertex 368.7936702299055 794.2645618827544 18.34788699999996
    vertex 368.7936702299055 789.2645618827542 14.597886999999972
    vertex 368.7936702299055 789.2645618827542 18.34788699999996
  endloop
endfacet
facet normal -1.0 0.0 0.0
  outer loop
    vertex 368.7936702299055 761.5145618827527 18.347886999999965
    vertex 368.7936702299055 760.7645618827527 7.097886999999971
    vertex 368.7936702299055 760.7645618827527 18.34788699999996
  endloop
endfacet
facet normal -1.0 0.0 0.0
  outer loop
    vertex 368.7936702299055 760.7645618827527 7.097886999999971
    vertex 368.7936702299055 761.5145618827527 18.347886999999965
    vertex 368.7936702299055 765.7645618827537 14.597886999999972
  endloop
endfacet
facet normal -1.0 0.0 0.0
  outer loop
    vertex 368.7936702299055 760.7645618827527 7.097886999999971
    vertex 368.7936702299055 765.7645618827537 14.597886999999972
    vertex 368.7936702299055 794.2645618827544 7.097886999999971
  endloop
endfacet
facet normal -1.0 0.0 0.0
  outer loop
    vertex 368.7936702299055 765.7645618827537 14.597886999999972
    vertex 368.7936702299055 761.5145618827527 18.347886999999965
    vertex 368.7936702299055 765.7645618827537 18.34788699999996
  endloop
endfacet
facet normal -1.0 0.0 0.0
  outer loop
    vertex 368.7936702299055 794.2645618827544 7.097886999999971
    vertex 368.7936702299055 765.7645618827537 14.597886999999972
    vertex 368.7936702299055 789.2645618827542 14.597886999999972
  endloop
endfacet
facet normal -1.0 0.0 0.0
  outer loop
    vertex 368.7936702299055 794.2645618827544 7.097886999999971
    vertex 368.7936702299055 789.2645618827542 14.597886999999972
    vertex 368.7936702299055 794.2645618827544 18.34788699999996
  endloop
endfacet
facet normal -0.382683432364112 -0.9238795325116917 0.0
  outer loop
    vertex 370.7936702299055 761.8619703864833 20.347886999999965
    vertex 370.5436702299057 761.9655237770762 18.34788699999996
    vertex 370.7936702299055 761.8619703864833 18.34788699999996
  endloop
endfacet
facet normal -0.382683432364112 -0.9238795325116917 0.0
  outer loop
    vertex 370.5436702299057 761.9655237770762 18.34788699999996
    vertex 370.7936702299055 761.8619703864833 20.347886999999965
    vertex 370.5436702299057 761.9655237770762 20.347886999999965
  endloop
endfacet
facet normal -0.9238795325113768 -0.38268343236487296 0.0
  outer loop
    vertex 369.8447814904722 762.8763333150995 20.347886999999965
    vertex 369.89107873363605 762.7645618827527 18.34788699999996
    vertex 369.89107873363605 762.7645618827527 20.347886999999965
  endloop
endfacet
facet normal -0.9238795325113768 -0.38268343236487296 0.0
  outer loop
    vertex 369.89107873363605 762.7645618827527 18.34788699999996
    vertex 369.8447814904722 762.8763333150995 20.347886999999965
    vertex 369.8447814904722 762.8763333150995 18.34788699999996
  endloop
endfacet
facet normal -0.9238795325115049 -0.3826834323645635 0.0
  outer loop
    vertex 369.89107873363605 762.7645618827527 20.347886999999965
    vertex 369.99463212422916 762.5145618827528 18.34788699999996
    vertex 369.99463212422916 762.5145618827528 20.347886999999965
  endloop
endfacet
facet normal -0.9238795325115049 -0.3826834323645635 0.0
  outer loop
    vertex 369.99463212422916 762.5145618827528 18.34788699999996
    vertex 369.89107873363605 762.7645618827527 20.347886999999965
    vertex 369.89107873363605 762.7645618827527 18.34788699999996
  endloop
endfacet
facet normal -0.13052619221989803 -0.9914448613738308 0.0
  outer loop
    vertex 371.2936702299055 761.7645618827531 20.347886999999965
    vertex 370.9054416622518 761.8156731433195 18.34788699999996
    vertex 371.2936702299055 761.7645618827531 18.34788699999996
  endloop
endfacet
facet normal -0.13052619221989803 -0.9914448613738308 0.0
  outer loop
    vertex 370.9054416622518 761.8156731433195 18.34788699999996
    vertex 371.2936702299055 761.7645618827531 20.347886999999965
    vertex 370.9054416622518 761.8156731433195 20.347886999999965
  endloop
endfacet
facet normal -0.7933533402929497 0.6087614290064862 2.523565251986848e-29
  outer loop
    vertex 370.2330100581259 764.3252220545326 20.347886999999965
    vertex 370.18646387122396 764.2645618827526 18.34788699999996
    vertex 370.18646387122396 764.2645618827526 20.347886999999965
  endloop
endfacet
facet normal -0.7933533402929497 0.6087614290064862 2.523565251986848e-29
  outer loop
    vertex 370.18646387122396 764.2645618827526 18.34788699999996
    vertex 370.2330100581259 764.3252220545326 20.347886999999965
    vertex 370.2330100581259 764.3252220545326 18.34788699999996
  endloop
endfacet
facet normal -0.0 1.0 -0.0
  outer loop
    vertex 399.2936702299055 794.2645618827544 18.347886999999957
    vertex 404.29367022990544 794.2645618827544 7.097886999999971
    vertex 399.2936702299055 794.2645618827544 7.097886999999971
  endloop
endfacet
facet normal -0.0 1.0 -0.0
  outer loop
    vertex 404.29367022990544 794.2645618827544 7.097886999999971
    vertex 399.2936702299055 794.2645618827544 18.347886999999957
    vertex 404.29367022990544 794.2645618827544 18.347886999999957
  endloop
endfacet
facet normal 0.3826834323647545 -0.9238795325114256 0.0
  outer loop
    vertex 402.5436702299053 761.9655237770762 20.34788699999995
    vertex 402.1818987975592 761.8156731433195 18.347886999999957
    vertex 402.5436702299053 761.9655237770762 18.347886999999957
  endloop
endfacet
facet normal 0.3826834323647545 -0.9238795325114256 0.0
  outer loop
    vertex 402.1818987975592 761.8156731433195 18.347886999999957
    vertex 402.5436702299053 761.9655237770762 20.34788699999995
    vertex 402.1818987975592 761.8156731433195 20.34788699999995
  endloop
endfacet
facet normal -0.923879532511328 0.3826834323649905 2.019496356662702e-18
  outer loop
    vertex 369.99463212422916 764.0145618827527 20.347886999999965
    vertex 369.89107873363594 763.7645618827527 18.34788699999996
    vertex 369.89107873363594 763.7645618827527 20.347886999999965
  endloop
endfacet
facet normal -0.923879532511328 0.3826834323649905 2.019496356662702e-18
  outer loop
    vertex 369.89107873363594 763.7645618827527 18.34788699999996
    vertex 369.99463212422916 764.0145618827527 20.347886999999965
    vertex 369.99463212422916 764.0145618827527 18.34788699999996
  endloop
endfacet
facet normal 1.0 -0.0 -0.0
  outer loop
    vertex 404.29367022990544 760.7645618827527 7.097886999999971
    vertex 404.29367022990544 765.7645618827537 14.597886999999977
    vertex 404.29367022990544 760.7645618827527 18.347886999999957
  endloop
endfacet
facet normal 1.0 -0.0 -0.0
  outer loop
    vertex 404.29367022990544 765.7645618827537 14.597886999999977
    vertex 404.29367022990544 760.7645618827527 7.097886999999971
    vertex 404.29367022990544 794.2645618827544 7.097886999999971
  endloop
endfacet
facet normal 1.0 -0.0 -0.0
  outer loop
    vertex 404.29367022990544 765.7645618827537 14.597886999999977
    vertex 404.29367022990544 794.2645618827544 7.097886999999971
    vertex 404.29367022990544 789.2645618827542 14.597886999999977
  endloop
endfacet
facet normal 1.0 -0.0 -0.0
  outer loop
    vertex 404.29367022990544 789.2645618827542 14.597886999999977
    vertex 404.29367022990544 794.2645618827544 7.097886999999971
    vertex 404.29367022990544 789.2645618827542 18.347886999999957
  endloop
endfacet
facet normal 1.0 -0.0 -0.0
  outer loop
    vertex 404.29367022990544 789.2645618827542 18.347886999999957
    vertex 404.29367022990544 794.2645618827544 7.097886999999971
    vertex 404.29367022990544 794.2645618827544 18.347886999999957
  endloop
endfacet
facet normal 1.0 -0.0 -0.0
  outer loop
    vertex 404.29367022990544 765.7645618827537 18.347886999999957
    vertex 404.29367022990544 760.7645618827527 18.347886999999957
    vertex 404.29367022990544 765.7645618827537 14.597886999999977
  endloop
endfacet
facet normal -0.6087614290084339 0.7933533402914552 2.6613675154040145e-18
  outer loop
    vertex 370.2330100581259 764.3252220545326 20.347886999999965
    vertex 370.5436702299057 764.5635999884292 18.34788699999996
    vertex 370.2330100581259 764.3252220545326 18.34788699999996
  endloop
endfacet
facet normal -0.6087614290084339 0.7933533402914552 2.6613675154040145e-18
  outer loop
    vertex 370.5436702299057 764.5635999884292 18.34788699999996
    vertex 370.2330100581259 764.3252220545326 20.347886999999965
    vertex 370.5436702299057 764.5635999884292 20.347886999999965
  endloop
endfacet
facet normal -0.793353340290763 -0.6087614290093362 0.0
  outer loop
    vertex 369.99463212422916 762.5145618827528 20.347886999999965
    vertex 370.2330100581259 762.2039017109736 18.34788699999996
    vertex 370.2330100581259 762.2039017109736 20.347886999999965
  endloop
endfacet
facet normal -0.793353340290763 -0.6087614290093362 0.0
  outer loop
    vertex 370.2330100581259 762.2039017109736 18.34788699999996
    vertex 369.99463212422916 762.5145618827528 20.347886999999965
    vertex 369.99463212422916 762.5145618827528 18.34788699999996
  endloop
endfacet
facet normal 0.13052619221989803 -0.9914448613738308 0.0
  outer loop
    vertex 371.6818987975592 761.8156731433195 20.347886999999965
    vertex 371.2936702299055 761.7645618827531 18.34788699999996
    vertex 371.6818987975592 761.8156731433195 18.34788699999996
  endloop
endfacet
facet normal 0.13052619221989803 -0.9914448613738308 0.0
  outer loop
    vertex 371.2936702299055 761.7645618827531 18.34788699999996
    vertex 371.6818987975592 761.8156731433195 20.347886999999965
    vertex 371.2936702299055 761.7645618827531 20.347886999999965
  endloop
endfacet
facet normal -0.0 -0.0 1.0
  outer loop
    vertex 369.8447814904722 762.8763333150995 20.347886999999965
    vertex 369.8447814904722 763.6527904504067 20.347886999999965
    vertex 369.79367022990584 763.2645618827528 20.347886999999965
  endloop
endfacet
facet normal -0.0 -0.0 1.0
  outer loop
    vertex 369.8447814904722 763.6527904504067 20.347886999999965
    vertex 369.8447814904722 762.8763333150995 20.347886999999965
    vertex 369.89107873363605 762.7645618827527 20.347886999999965
  endloop
endfacet
facet normal -0.0 -0.0 1.0
  outer loop
    vertex 369.8447814904722 763.6527904504067 20.347886999999965
    vertex 369.89107873363605 762.7645618827527 20.347886999999965
    vertex 369.89107873363594 763.7645618827527 20.347886999999965
  endloop
endfacet
facet normal -0.0 -0.0 1.0
  outer loop
    vertex 369.89107873363594 763.7645618827527 20.347886999999965
    vertex 369.89107873363605 762.7645618827527 20.347886999999965
    vertex 369.99463212422916 764.0145618827527 20.347886999999965
  endloop
endfacet
facet normal -0.0 -0.0 1.0
  outer loop
    vertex 369.99463212422916 764.0145618827527 20.347886999999965
    vertex 369.89107873363605 762.7645618827527 20.347886999999965
    vertex 369.99463212422916 762.5145618827528 20.347886999999965
  endloop
endfacet
facet normal -0.0 -0.0 1.0
  outer loop
    vertex 369.99463212422916 764.0145618827527 20.347886999999965
    vertex 369.99463212422916 762.5145618827528 20.347886999999965
    vertex 370.2330100581259 762.2039017109736 20.347886999999965
  endloop
endfacet
facet normal -0.0 -0.0 1.0
  outer loop
    vertex 369.99463212422916 764.0145618827527 20.347886999999965
    vertex 370.2330100581259 762.2039017109736 20.347886999999965
    vertex 370.18646387122396 764.2645618827526 20.347886999999965
  endloop
endfacet
facet normal -0.0 -0.0 1.0
  outer loop
    vertex 370.18646387122396 764.2645618827526 20.347886999999965
    vertex 370.2330100581259 762.2039017109736 20.347886999999965
    vertex 370.2330100581259 764.3252220545326 20.347886999999965
  endloop
endfacet
facet normal -0.0 -0.0 1.0
  outer loop
    vertex 370.2330100581259 764.3252220545326 20.347886999999965
    vertex 370.2330100581259 762.2039017109736 20.347886999999965
    vertex 370.5436702299057 761.9655237770762 20.347886999999965
  endloop
endfacet
facet normal -0.0 -0.0 1.0
  outer loop
    vertex 370.2330100581259 764.3252220545326 20.347886999999965
    vertex 370.5436702299057 761.9655237770762 20.347886999999965
    vertex 370.5436702299057 764.5635999884292 20.347886999999965
  endloop
endfacet
facet normal -0.0 -0.0 1.0
  outer loop
    vertex 370.5436702299057 764.5635999884292 20.347886999999965
    vertex 370.5436702299057 761.9655237770762 20.347886999999965
    vertex 370.7936702299055 761.8619703864833 20.347886999999965
  endloop
endfacet
facet normal -0.0 -0.0 1.0
  outer loop
    vertex 370.5436702299057 764.5635999884292 20.347886999999965
    vertex 370.7936702299055 761.8619703864833 20.347886999999965
    vertex 370.9054416622518 764.7134506221869 20.347886999999965
  endloop
endfacet
facet normal -0.0 -0.0 1.0
  outer loop
    vertex 370.9054416622518 764.7134506221869 20.347886999999965
    vertex 370.7936702299055 761.8619703864833 20.347886999999965
    vertex 370.9054416622518 761.8156731433195 20.347886999999965
  endloop
endfacet
facet normal -0.0 -0.0 1.0
  outer loop
    vertex 370.9054416622518 764.7134506221869 20.347886999999965
    vertex 370.9054416622518 761.8156731433195 20.347886999999965
    vertex 371.2936702299055 761.7645618827531 20.347886999999965
  endloop
endfacet
facet normal -0.0 -0.0 1.0
  outer loop
    vertex 370.9054416622518 764.7134506221869 20.347886999999965
    vertex 371.2936702299055 761.7645618827531 20.347886999999965
    vertex 371.2936702299055 764.7645618827528 20.347886999999965
  endloop
endfacet
facet normal -0.0 -0.0 1.0
  outer loop
    vertex 371.2936702299055 764.7645618827528 20.347886999999965
    vertex 371.2936702299055 761.7645618827531 20.347886999999965
    vertex 371.6818987975592 761.8156731433195 20.347886999999965
  endloop
endfacet
facet normal -0.0 -0.0 1.0
  outer loop
    vertex 371.2936702299055 764.7645618827528 20.347886999999965
    vertex 371.6818987975592 761.8156731433195 20.347886999999965
    vertex 371.6818987975592 764.7134506221869 20.347886999999965
  endloop
endfacet
facet normal -0.0 -0.0 1.0
  outer loop
    vertex 371.6818987975592 764.7134506221869 20.347886999999965
    vertex 371.6818987975592 761.8156731433195 20.347886999999965
    vertex 371.7936702299055 761.8619703864833 20.347886999999965
  endloop
endfacet
facet normal -0.0 -0.0 1.0
  outer loop
    vertex 371.6818987975592 764.7134506221869 20.347886999999965
    vertex 371.7936702299055 761.8619703864833 20.347886999999965
    vertex 372.04367022990533 764.5635999884292 20.347886999999965
  endloop
endfacet
facet normal -0.0 -0.0 1.0
  outer loop
    vertex 372.04367022990533 764.5635999884292 20.347886999999965
    vertex 371.7936702299055 761.8619703864833 20.347886999999965
    vertex 372.04367022990533 761.9655237770762 20.347886999999965
  endloop
endfacet
facet normal -0.0 -0.0 1.0
  outer loop
    vertex 372.04367022990533 764.5635999884292 20.347886999999965
    vertex 372.04367022990533 761.9655237770762 20.347886999999965
    vertex 372.3543304016851 762.2039017109736 20.347886999999965
  endloop
endfacet
facet normal -0.0 -0.0 1.0
  outer loop
    vertex 372.04367022990533 764.5635999884292 20.347886999999965
    vertex 372.3543304016851 762.2039017109736 20.347886999999965
    vertex 372.3543304016851 764.3252220545326 20.347886999999965
  endloop
endfacet
facet normal -0.0 -0.0 1.0
  outer loop
    vertex 372.3543304016851 764.3252220545326 20.347886999999965
    vertex 372.3543304016851 762.2039017109736 20.347886999999965
    vertex 372.59270833558185 762.5145618827528 20.347886999999965
  endloop
endfacet
facet normal -0.0 -0.0 1.0
  outer loop
    vertex 372.3543304016851 764.3252220545326 20.347886999999965
    vertex 372.59270833558185 762.5145618827528 20.347886999999965
    vertex 372.59270833558185 764.0145618827527 20.347886999999965
  endloop
endfacet
facet normal -0.0 -0.0 1.0
  outer loop
    vertex 372.59270833558185 764.0145618827527 20.347886999999965
    vertex 372.59270833558185 762.5145618827528 20.347886999999965
    vertex 372.7425589693388 762.8763333150995 20.347886999999965
  endloop
endfacet
facet normal -0.0 -0.0 1.0
  outer loop
    vertex 372.59270833558185 764.0145618827527 20.347886999999965
    vertex 372.7425589693388 762.8763333150995 20.347886999999965
    vertex 372.7425589693388 763.6527904504067 20.347886999999965
  endloop
endfacet
facet normal -0.0 -0.0 1.0
  outer loop
    vertex 372.7425589693388 763.6527904504067 20.347886999999965
    vertex 372.7425589693388 762.8763333150995 20.347886999999965
    vertex 372.79367022990516 763.2645618827528 20.347886999999965
  endloop
endfacet
facet normal 0.13052619221899192 0.9914448613739499 -0.0
  outer loop
    vertex 371.2936702299055 764.7645618827528 20.347886999999965
    vertex 371.6818987975592 764.7134506221869 18.34788699999996
    vertex 371.2936702299055 764.7645618827528 18.34788699999996
  endloop
endfacet
facet normal 0.13052619221899192 0.9914448613739499 -0.0
  outer loop
    vertex 371.6818987975592 764.7134506221869 18.34788699999996
    vertex 371.2936702299055 764.7645618827528 20.347886999999965
    vertex 371.6818987975592 764.7134506221869 20.347886999999965
  endloop
endfacet
facet normal 0.6087614290095944 -0.7933533402905648 2.6613675154090874e-18
  outer loop
    vertex 372.3543304016851 762.2039017109736 20.347886999999965
    vertex 372.04367022990533 761.9655237770762 18.34788699999996
    vertex 372.3543304016851 762.2039017109736 18.34788699999996
  endloop
endfacet
facet normal 0.6087614290095944 -0.7933533402905648 2.6613675154090874e-18
  outer loop
    vertex 372.04367022990533 761.9655237770762 18.34788699999996
    vertex 372.3543304016851 762.2039017109736 20.347886999999965
    vertex 372.04367022990533 761.9655237770762 20.347886999999965
  endloop
endfacet
facet normal 0.38268343236417096 -0.9238795325116673 1.2172717544350184e-29
  outer loop
    vertex 372.04367022990533 761.9655237770762 20.347886999999965
    vertex 371.7936702299055 761.8619703864833 18.34788699999996
    vertex 372.04367022990533 761.9655237770762 18.34788699999996
  endloop
endfacet
facet normal 0.38268343236417096 -0.9238795325116673 1.2172717544350184e-29
  outer loop
    vertex 371.7936702299055 761.8619703864833 18.34788699999996
    vertex 372.04367022990533 761.9655237770762 20.347886999999965
    vertex 371.7936702299055 761.8619703864833 20.347886999999965
  endloop
endfacet
facet normal -0.0 1.0 -0.0
  outer loop
    vertex 368.7936702299055 765.7645618827537 18.34788699999996
    vertex 370.7936702299055 765.7645618827537 14.597886999999972
    vertex 368.7936702299055 765.7645618827537 14.597886999999972
  endloop
endfacet
facet normal -0.0 1.0 -0.0
  outer loop
    vertex 370.7936702299055 765.7645618827537 14.597886999999972
    vertex 373.7936702299055 765.7645618827537 7.097886999999971
    vertex 370.7936702299055 765.7645618827537 7.097886999999969
  endloop
endfacet
facet normal -0.0 1.0 -0.0
  outer loop
    vertex 373.7936702299055 765.7645618827537 7.097886999999971
    vertex 370.7936702299055 765.7645618827537 14.597886999999972
    vertex 373.7936702299055 765.7645618827537 18.34788699999996
  endloop
endfacet
facet normal -0.0 1.0 -0.0
  outer loop
    vertex 373.7936702299055 765.7645618827537 18.34788699999996
    vertex 370.7936702299055 765.7645618827537 14.597886999999972
    vertex 368.7936702299055 765.7645618827537 18.34788699999996
  endloop
endfacet
facet normal 0.793353340290763 -0.6087614290093362 -0.0
  outer loop
    vertex 403.09270833558185 762.5145618827528 18.347886999999957
    vertex 402.8543304016851 762.2039017109736 20.34788699999995
    vertex 402.8543304016851 762.2039017109736 18.347886999999957
  endloop
endfacet
facet normal 0.793353340290763 -0.6087614290093362 -0.0
  outer loop
    vertex 402.8543304016851 762.2039017109736 20.34788699999995
    vertex 403.09270833558185 762.5145618827528 18.347886999999957
    vertex 403.09270833558185 762.5145618827528 20.34788699999995
  endloop
endfacet
facet normal -0.6087614290095944 -0.7933533402905648 2.6613675154090874e-18
  outer loop
    vertex 370.5436702299057 761.9655237770762 20.347886999999965
    vertex 370.2330100581259 762.2039017109736 18.34788699999996
    vertex 370.5436702299057 761.9655237770762 18.34788699999996
  endloop
endfacet
facet normal -0.6087614290095944 -0.7933533402905648 2.6613675154090874e-18
  outer loop
    vertex 370.2330100581259 762.2039017109736 18.34788699999996
    vertex 370.5436702299057 761.9655237770762 20.347886999999965
    vertex 370.2330100581259 762.2039017109736 20.347886999999965
  endloop
endfacet
facet normal -0.9914448613738001 -0.13052619222013057 3.153671478209157e-29
  outer loop
    vertex 369.79367022990584 763.2645618827528 20.347886999999965
    vertex 369.8447814904722 762.8763333150995 18.34788699999996
    vertex 369.8447814904722 762.8763333150995 20.347886999999965
  endloop
endfacet
facet normal -0.9914448613738001 -0.13052619222013057 3.153671478209157e-29
  outer loop
    vertex 369.8447814904722 762.8763333150995 18.34788699999996
    vertex 369.79367022990584 763.2645618827528 20.347886999999965
    vertex 369.79367022990584 763.2645618827528 18.34788699999996
  endloop
endfacet
facet normal -0.38268343236672153 0.9238795325106108 -0.0
  outer loop
    vertex 370.5436702299057 764.5635999884292 20.347886999999965
    vertex 370.9054416622518 764.7134506221869 18.34788699999996
    vertex 370.5436702299057 764.5635999884292 18.34788699999996
  endloop
endfacet
facet normal -0.38268343236672153 0.9238795325106108 -0.0
  outer loop
    vertex 370.9054416622518 764.7134506221869 18.34788699999996
    vertex 370.5436702299057 764.5635999884292 20.347886999999965
    vertex 370.9054416622518 764.7134506221869 20.347886999999965
  endloop
endfacet
facet normal 0.9914448613738149 -0.1305261922200173 -0.0
  outer loop
    vertex 403.2936702299051 763.2645618827528 18.347886999999957
    vertex 403.2425589693388 762.8763333150995 20.34788699999995
    vertex 403.2425589693388 762.8763333150995 18.347886999999957
  endloop
endfacet
facet normal 0.9914448613738149 -0.1305261922200173 -0.0
  outer loop
    vertex 403.2425589693388 762.8763333150995 20.34788699999995
    vertex 403.2936702299051 763.2645618827528 18.347886999999957
    vertex 403.2936702299051 763.2645618827528 20.34788699999995
  endloop
endfacet
facet normal -0.9914448613738236 0.13052619221995163 3.153671478209232e-29
  outer loop
    vertex 369.8447814904722 763.6527904504067 20.347886999999965
    vertex 369.79367022990584 763.2645618827528 18.34788699999996
    vertex 369.79367022990584 763.2645618827528 20.347886999999965
  endloop
endfacet
facet normal -0.9914448613738236 0.13052619221995163 3.153671478209232e-29
  outer loop
    vertex 369.79367022990584 763.2645618827528 18.34788699999996
    vertex 369.8447814904722 763.6527904504067 20.347886999999965
    vertex 369.8447814904722 763.6527904504067 18.34788699999996
  endloop
endfacet
facet normal -0.7933533402910814 0.6087614290089212 2.523565251980905e-29
  outer loop
    vertex 370.18646387122396 764.2645618827526 20.347886999999965
    vertex 369.99463212422916 764.0145618827527 18.34788699999996
    vertex 369.99463212422916 764.0145618827527 20.347886999999965
  endloop
endfacet
facet normal -0.7933533402910814 0.6087614290089212 2.523565251980905e-29
  outer loop
    vertex 369.99463212422916 764.0145618827527 18.34788699999996
    vertex 370.18646387122396 764.2645618827526 20.347886999999965
    vertex 370.18646387122396 764.2645618827526 18.34788699999996
  endloop
endfacet
facet normal 0.9238795325111954 0.3826834323653109 -0.0
  outer loop
    vertex 372.59270833558185 764.0145618827527 18.34788699999996
    vertex 372.7425589693388 763.6527904504067 20.347886999999965
    vertex 372.7425589693388 763.6527904504067 18.34788699999996
  endloop
endfacet
facet normal 0.9238795325111954 0.3826834323653109 -0.0
  outer loop
    vertex 372.7425589693388 763.6527904504067 20.347886999999965
    vertex 372.59270833558185 764.0145618827527 18.34788699999996
    vertex 372.59270833558185 764.0145618827527 20.347886999999965
  endloop
endfacet
facet normal 0.9238795325114653 -0.38268343236465907 -0.0
  outer loop
    vertex 372.7425589693388 762.8763333150995 18.34788699999996
    vertex 372.59270833558185 762.5145618827528 20.347886999999965
    vertex 372.59270833558185 762.5145618827528 18.34788699999996
  endloop
endfacet
facet normal 0.9238795325114653 -0.38268343236465907 -0.0
  outer loop
    vertex 372.59270833558185 762.5145618827528 20.347886999999965
    vertex 372.7425589693388 762.8763333150995 18.34788699999996
    vertex 372.7425589693388 762.8763333150995 20.347886999999965
  endloop
endfacet
facet normal -1.0 0.0 0.0
  outer loop
    vertex 399.2936702299055 794.2645618827544 18.347886999999957
    vertex 399.2936702299055 789.2645618827542 7.097886999999971
    vertex 399.2936702299055 789.2645618827542 18.347886999999957
  endloop
endfacet
facet normal -1.0 0.0 0.0
  outer loop
    vertex 399.2936702299055 789.2645618827542 7.097886999999971
    vertex 399.2936702299055 794.2645618827544 18.347886999999957
    vertex 399.2936702299055 794.2645618827544 7.097886999999971
  endloop
endfacet
facet normal -0.9238795325108984 0.3826834323660277 -2.938753978656534e-29
  outer loop
    vertex 369.89107873363594 763.7645618827527 20.347886999999965
    vertex 369.8447814904722 763.6527904504067 18.34788699999996
    vertex 369.8447814904722 763.6527904504067 20.347886999999965
  endloop
endfacet
facet normal -0.9238795325108984 0.3826834323660277 -2.938753978656534e-29
  outer loop
    vertex 369.8447814904722 763.6527904504067 18.34788699999996
    vertex 369.89107873363594 763.7645618827527 20.347886999999965
    vertex 369.89107873363594 763.7645618827527 18.34788699999996
  endloop
endfacet
facet normal -0.0 -0.0 1.0
  outer loop
    vertex 400.3447814904722 762.8763333150995 20.34788699999995
    vertex 400.3447814904722 763.6527904504067 20.34788699999995
    vertex 400.29367022990584 763.2645618827528 20.34788699999995
  endloop
endfacet
facet normal -0.0 -0.0 1.0
  outer loop
    vertex 400.3447814904722 763.6527904504067 20.34788699999995
    vertex 400.3447814904722 762.8763333150995 20.34788699999995
    vertex 400.49463212422916 762.5145618827528 20.34788699999995
  endloop
endfacet
facet normal -0.0 -0.0 1.0
  outer loop
    vertex 400.3447814904722 763.6527904504067 20.34788699999995
    vertex 400.49463212422916 762.5145618827528 20.34788699999995
    vertex 400.49463212422916 764.0145618827527 20.34788699999995
  endloop
endfacet
facet normal -0.0 -0.0 1.0
  outer loop
    vertex 400.49463212422916 764.0145618827527 20.34788699999995
    vertex 400.49463212422916 762.5145618827528 20.34788699999995
    vertex 400.73301005812596 762.2039017109736 20.34788699999995
  endloop
endfacet
facet normal -0.0 -0.0 1.0
  outer loop
    vertex 400.49463212422916 764.0145618827527 20.34788699999995
    vertex 400.73301005812596 762.2039017109736 20.34788699999995
    vertex 400.73301005812596 764.3252220545326 20.34788699999995
  endloop
endfacet
facet normal -0.0 -0.0 1.0
  outer loop
    vertex 400.73301005812596 764.3252220545326 20.34788699999995
    vertex 400.73301005812596 762.2039017109736 20.34788699999995
    vertex 401.0436702299057 761.9655237770762 20.34788699999995
  endloop
endfacet
facet normal -0.0 -0.0 1.0
  outer loop
    vertex 400.73301005812596 764.3252220545326 20.34788699999995
    vertex 401.0436702299057 761.9655237770762 20.34788699999995
    vertex 401.0436702299057 764.5635999884292 20.34788699999995
  endloop
endfacet
facet normal -0.0 -0.0 1.0
  outer loop
    vertex 401.0436702299057 764.5635999884292 20.34788699999995
    vertex 401.0436702299057 761.9655237770762 20.34788699999995
    vertex 401.40544166225175 761.8156731433195 20.34788699999995
  endloop
endfacet
facet normal -0.0 -0.0 1.0
  outer loop
    vertex 401.0436702299057 764.5635999884292 20.34788699999995
    vertex 401.40544166225175 761.8156731433195 20.34788699999995
    vertex 401.40544166225175 764.7134506221869 20.34788699999995
  endloop
endfacet
facet normal -0.0 -0.0 1.0
  outer loop
    vertex 401.40544166225175 764.7134506221869 20.34788699999995
    vertex 401.40544166225175 761.8156731433195 20.34788699999995
    vertex 401.79367022990544 761.7645618827531 20.34788699999995
  endloop
endfacet
facet normal -0.0 -0.0 1.0
  outer loop
    vertex 401.40544166225175 764.7134506221869 20.34788699999995
    vertex 401.79367022990544 761.7645618827531 20.34788699999995
    vertex 401.79367022990544 764.7645618827528 20.34788699999995
  endloop
endfacet
facet normal -0.0 -0.0 1.0
  outer loop
    vertex 401.79367022990544 764.7645618827528 20.34788699999995
    vertex 401.79367022990544 761.7645618827531 20.34788699999995
    vertex 402.1818987975592 761.8156731433195 20.34788699999995
  endloop
endfacet
facet normal -0.0 -0.0 1.0
  outer loop
    vertex 401.79367022990544 764.7645618827528 20.34788699999995
    vertex 402.1818987975592 761.8156731433195 20.34788699999995
    vertex 402.1818987975592 764.7134506221869 20.34788699999995
  endloop
endfacet
facet normal -0.0 -0.0 1.0
  outer loop
    vertex 402.1818987975592 764.7134506221869 20.34788699999995
    vertex 402.1818987975592 761.8156731433195 20.34788699999995
    vertex 402.5436702299053 761.9655237770762 20.34788699999995
  endloop
endfacet
facet normal -0.0 -0.0 1.0
  outer loop
    vertex 402.1818987975592 764.7134506221869 20.34788699999995
    vertex 402.5436702299053 761.9655237770762 20.34788699999995
    vertex 402.5436702299053 764.5635999884292 20.34788699999995
  endloop
endfacet
facet normal -0.0 -0.0 1.0
  outer loop
    vertex 402.5436702299053 764.5635999884292 20.34788699999995
    vertex 402.5436702299053 761.9655237770762 20.34788699999995
    vertex 402.8543304016851 762.2039017109736 20.34788699999995
  endloop
endfacet
facet normal -0.0 -0.0 1.0
  outer loop
    vertex 402.5436702299053 764.5635999884292 20.34788699999995
    vertex 402.8543304016851 762.2039017109736 20.34788699999995
    vertex 402.8543304016851 764.3252220545326 20.34788699999995
  endloop
endfacet
facet normal -0.0 -0.0 1.0
  outer loop
    vertex 402.8543304016851 764.3252220545326 20.34788699999995
    vertex 402.8543304016851 762.2039017109736 20.34788699999995
    vertex 403.09270833558185 762.5145618827528 20.34788699999995
  endloop
endfacet
facet normal -0.0 -0.0 1.0
  outer loop
    vertex 402.8543304016851 764.3252220545326 20.34788699999995
    vertex 403.09270833558185 762.5145618827528 20.34788699999995
    vertex 403.09270833558185 764.0145618827527 20.34788699999995
  endloop
endfacet
facet normal -0.0 -0.0 1.0
  outer loop
    vertex 403.09270833558185 764.0145618827527 20.34788699999995
    vertex 403.09270833558185 762.5145618827528 20.34788699999995
    vertex 403.2425589693388 762.8763333150995 20.34788699999995
  endloop
endfacet
facet normal -0.0 -0.0 1.0
  outer loop
    vertex 403.09270833558185 764.0145618827527 20.34788699999995
    vertex 403.2425589693388 762.8763333150995 20.34788699999995
    vertex 403.2425589693388 763.6527904504067 20.34788699999995
  endloop
endfacet
facet normal -0.0 -0.0 1.0
  outer loop
    vertex 403.2425589693388 763.6527904504067 20.34788699999995
    vertex 403.2425589693388 762.8763333150995 20.34788699999995
    vertex 403.2936702299051 763.2645618827528 20.34788699999995
  endloop
endfacet
facet normal 0.9914448613738236 0.13052619221995163 3.153671478209232e-29
  outer loop
    vertex 372.7425589693388 763.6527904504067 18.34788699999996
    vertex 372.79367022990516 763.2645618827528 20.347886999999965
    vertex 372.79367022990516 763.2645618827528 18.34788699999996
  endloop
endfacet
facet normal 0.9914448613738236 0.13052619221995163 3.153671478209232e-29
  outer loop
    vertex 372.79367022990516 763.2645618827528 20.347886999999965
    vertex 372.7425589693388 763.6527904504067 18.34788699999996
    vertex 372.7425589693388 763.6527904504067 20.347886999999965
  endloop
endfacet
facet normal -0.793353340290763 -0.6087614290093362 0.0
  outer loop
    vertex 400.49463212422916 762.5145618827528 20.34788699999995
    vertex 400.73301005812596 762.2039017109736 18.347886999999957
    vertex 400.73301005812596 762.2039017109736 20.34788699999995
  endloop
endfacet
facet normal -0.793353340290763 -0.6087614290093362 0.0
  outer loop
    vertex 400.73301005812596 762.2039017109736 18.347886999999957
    vertex 400.49463212422916 762.5145618827528 20.34788699999995
    vertex 400.49463212422916 762.5145618827528 18.347886999999957
  endloop
endfacet
facet normal -0.7933533402914461 0.6087614290084458 0.0
  outer loop
    vertex 400.73301005812596 764.3252220545326 20.34788699999995
    vertex 400.49463212422916 764.0145618827527 18.347886999999957
    vertex 400.49463212422916 764.0145618827527 20.34788699999995
  endloop
endfacet
facet normal -0.7933533402914461 0.6087614290084458 0.0
  outer loop
    vertex 400.49463212422916 764.0145618827527 18.347886999999957
    vertex 400.73301005812596 764.3252220545326 20.34788699999995
    vertex 400.73301005812596 764.3252220545326 18.347886999999957
  endloop
endfacet
facet normal -0.9238795325114653 -0.3826834323646591 0.0
  outer loop
    vertex 400.3447814904722 762.8763333150995 20.34788699999995
    vertex 400.49463212422916 762.5145618827528 18.347886999999957
    vertex 400.49463212422916 762.5145618827528 20.34788699999995
  endloop
endfacet
facet normal -0.9238795325114653 -0.3826834323646591 0.0
  outer loop
    vertex 400.49463212422916 762.5145618827528 18.347886999999957
    vertex 400.3447814904722 762.8763333150995 20.34788699999995
    vertex 400.3447814904722 762.8763333150995 18.347886999999957
  endloop
endfacet
facet normal -0.13052619221899192 0.9914448613739499 -0.0
  outer loop
    vertex 370.9054416622518 764.7134506221869 20.347886999999965
    vertex 371.2936702299055 764.7645618827528 18.34788699999996
    vertex 370.9054416622518 764.7134506221869 18.34788699999996
  endloop
endfacet
facet normal -0.13052619221899192 0.9914448613739499 -0.0
  outer loop
    vertex 371.2936702299055 764.7645618827528 18.34788699999996
    vertex 370.9054416622518 764.7134506221869 20.347886999999965
    vertex 371.2936702299055 764.7645618827528 20.347886999999965
  endloop
endfacet
facet normal 0.3826834323660595 -0.9238795325108851 1.2172717544410255e-29
  outer loop
    vertex 371.7936702299055 761.8619703864833 20.347886999999965
    vertex 371.6818987975592 761.8156731433195 18.34788699999996
    vertex 371.7936702299055 761.8619703864833 18.34788699999996
  endloop
endfacet
facet normal 0.3826834323660595 -0.9238795325108851 1.2172717544410255e-29
  outer loop
    vertex 371.6818987975592 761.8156731433195 18.34788699999996
    vertex 371.7936702299055 761.8619703864833 20.347886999999965
    vertex 371.6818987975592 761.8156731433195 20.347886999999965
  endloop
endfacet
facet normal 0.793353340290763 -0.6087614290093362 -0.0
  outer loop
    vertex 372.59270833558185 762.5145618827528 18.34788699999996
    vertex 372.3543304016851 762.2039017109736 20.347886999999965
    vertex 372.3543304016851 762.2039017109736 18.34788699999996
  endloop
endfacet
facet normal 0.793353340290763 -0.6087614290093362 -0.0
  outer loop
    vertex 372.3543304016851 762.2039017109736 20.347886999999965
    vertex 372.59270833558185 762.5145618827528 18.34788699999996
    vertex 372.59270833558185 762.5145618827528 20.347886999999965
  endloop
endfacet
facet normal -0.38268343236619146 -0.9238795325108305 -2.434543508882891e-29
  outer loop
    vertex 370.9054416622518 761.8156731433195 20.347886999999965
    vertex 370.7936702299055 761.8619703864833 18.34788699999996
    vertex 370.9054416622518 761.8156731433195 18.34788699999996
  endloop
endfacet
facet normal -0.38268343236619146 -0.9238795325108305 -2.434543508882891e-29
  outer loop
    vertex 370.7936702299055 761.8619703864833 18.34788699999996
    vertex 370.9054416622518 761.8156731433195 20.347886999999965
    vertex 370.7936702299055 761.8619703864833 20.347886999999965
  endloop
endfacet
facet normal 0.13052619221989803 -0.9914448613738308 0.0
  outer loop
    vertex 402.1818987975592 761.8156731433195 20.34788699999995
    vertex 401.79367022990544 761.7645618827531 18.347886999999957
    vertex 402.1818987975592 761.8156731433195 18.347886999999957
  endloop
endfacet
facet normal 0.13052619221989803 -0.9914448613738308 0.0
  outer loop
    vertex 401.79367022990544 761.7645618827531 18.347886999999957
    vertex 402.1818987975592 761.8156731433195 20.34788699999995
    vertex 401.79367022990544 761.7645618827531 20.34788699999995
  endloop
endfacet
facet normal 0.3826834323667215 0.9238795325106108 -0.0
  outer loop
    vertex 402.1818987975592 764.7134506221869 20.34788699999995
    vertex 402.5436702299053 764.5635999884292 18.347886999999957
    vertex 402.1818987975592 764.7134506221869 18.347886999999957
  endloop
endfacet
facet normal 0.3826834323667215 0.9238795325106108 -0.0
  outer loop
    vertex 402.5436702299053 764.5635999884292 18.347886999999957
    vertex 402.1818987975592 764.7134506221869 20.34788699999995
    vertex 402.5436702299053 764.5635999884292 20.34788699999995
  endloop
endfacet
facet normal 0.9914448613738385 0.13052619221983836 -0.0
  outer loop
    vertex 403.2425589693388 763.6527904504067 18.347886999999957
    vertex 403.2936702299051 763.2645618827528 20.34788699999995
    vertex 403.2936702299051 763.2645618827528 18.347886999999957
  endloop
endfacet
facet normal 0.9914448613738385 0.13052619221983836 -0.0
  outer loop
    vertex 403.2936702299051 763.2645618827528 20.34788699999995
    vertex 403.2425589693388 763.6527904504067 18.347886999999957
    vertex 403.2425589693388 763.6527904504067 20.34788699999995
  endloop
endfacet
facet normal 0.7933533402914461 0.6087614290084457 -0.0
  outer loop
    vertex 372.3543304016851 764.3252220545326 18.34788699999996
    vertex 372.59270833558185 764.0145618827527 20.347886999999965
    vertex 372.59270833558185 764.0145618827527 18.34788699999996
  endloop
endfacet
facet normal 0.7933533402914461 0.6087614290084457 -0.0
  outer loop
    vertex 372.59270833558185 764.0145618827527 20.347886999999965
    vertex 372.3543304016851 764.3252220545326 18.34788699999996
    vertex 372.3543304016851 764.3252220545326 20.347886999999965
  endloop
endfacet
facet normal 0.9238795325114653 -0.3826834323646591 -0.0
  outer loop
    vertex 403.2425589693388 762.8763333150995 18.347886999999957
    vertex 403.09270833558185 762.5145618827528 20.34788699999995
    vertex 403.09270833558185 762.5145618827528 18.347886999999957
  endloop
endfacet
facet normal 0.9238795325114653 -0.3826834323646591 -0.0
  outer loop
    vertex 403.09270833558185 762.5145618827528 20.34788699999995
    vertex 403.2425589693388 762.8763333150995 18.347886999999957
    vertex 403.2425589693388 762.8763333150995 20.34788699999995
  endloop
endfacet
facet normal -0.13052619221989803 -0.9914448613738308 0.0
  outer loop
    vertex 401.79367022990544 761.7645618827531 20.34788699999995
    vertex 401.40544166225175 761.8156731433195 18.347886999999957
    vertex 401.79367022990544 761.7645618827531 18.347886999999957
  endloop
endfacet
facet normal -0.13052619221989803 -0.9914448613738308 0.0
  outer loop
    vertex 401.40544166225175 761.8156731433195 18.347886999999957
    vertex 401.79367022990544 761.7645618827531 20.34788699999995
    vertex 401.40544166225175 761.8156731433195 20.34788699999995
  endloop
endfacet
facet normal 0.0 -1.0 0.0
  outer loop
    vertex 403.2936702299055 789.2645618827542 18.347886999999957
    vertex 402.29367022990556 789.2645618827542 14.597886999999977
    vertex 403.2936702299055 789.2645618827542 14.597886999999977
  endloop
endfacet
facet normal 0.0 -1.0 0.0
  outer loop
    vertex 402.29367022990556 789.2645618827542 14.597886999999977
    vertex 399.2936702299055 789.2645618827542 7.097886999999971
    vertex 402.29367022990556 789.2645618827542 7.097886999999971
  endloop
endfacet
facet normal 0.0 -1.0 0.0
  outer loop
    vertex 399.2936702299055 789.2645618827542 7.097886999999971
    vertex 402.29367022990556 789.2645618827542 14.597886999999977
    vertex 399.2936702299055 789.2645618827542 18.347886999999957
  endloop
endfacet
facet normal 0.0 -1.0 0.0
  outer loop
    vertex 399.2936702299055 789.2645618827542 18.347886999999957
    vertex 402.29367022990556 789.2645618827542 14.597886999999977
    vertex 403.2936702299055 789.2645618827542 18.347886999999957
  endloop
endfacet
facet normal 0.0 -1.0 0.0
  outer loop
    vertex 373.7936702299055 789.2645618827542 7.097886999999971
    vertex 370.7936702299055 789.2645618827542 14.597886999999972
    vertex 370.7936702299055 789.2645618827542 7.097886999999969
  endloop
endfacet
facet normal 0.0 -1.0 0.0
  outer loop
    vertex 370.7936702299055 789.2645618827542 14.597886999999972
    vertex 373.7936702299055 789.2645618827542 7.097886999999971
    vertex 373.7936702299055 789.2645618827542 18.34788699999996
  endloop
endfacet
facet normal 0.0 -1.0 0.0
  outer loop
    vertex 370.7936702299055 789.2645618827542 14.597886999999972
    vertex 373.7936702299055 789.2645618827542 18.34788699999996
    vertex 369.7936702299055 789.2645618827542 14.597886999999972
  endloop
endfacet
facet normal 0.0 -1.0 0.0
  outer loop
    vertex 369.7936702299055 789.2645618827542 14.597886999999972
    vertex 373.7936702299055 789.2645618827542 18.34788699999996
    vertex 369.7936702299055 789.2645618827542 18.34788699999996
  endloop
endfacet
facet normal 0.7933533402914461 0.6087614290084458 -0.0
  outer loop
    vertex 402.8543304016851 764.3252220545326 18.347886999999957
    vertex 403.09270833558185 764.0145618827527 20.34788699999995
    vertex 403.09270833558185 764.0145618827527 18.347886999999957
  endloop
endfacet
facet normal 0.7933533402914461 0.6087614290084458 -0.0
  outer loop
    vertex 403.09270833558185 764.0145618827527 20.34788699999995
    vertex 402.8543304016851 764.3252220545326 18.347886999999957
    vertex 402.8543304016851 764.3252220545326 20.34788699999995
  endloop
endfacet
facet normal -0.0 1.0 -0.0
  outer loop
    vertex 373.7936702299055 762.7645618827527 14.597886999999965
    vertex 399.2936702299055 762.7645618827527 7.097886999999971
    vertex 373.7936702299055 762.7645618827527 7.097886999999971
  endloop
endfacet
facet normal -0.0 1.0 -0.0
  outer loop
    vertex 399.2936702299055 762.7645618827527 7.097886999999971
    vertex 373.7936702299055 762.7645618827527 14.597886999999965
    vertex 399.2936702299055 762.7645618827527 14.597886999999965
  endloop
endfacet
facet normal -0.9914448613738236 0.13052619221995163 3.1536714782092683e-29
  outer loop
    vertex 400.3447814904722 763.6527904504067 20.34788699999995
    vertex 400.29367022990584 763.2645618827528 18.347886999999957
    vertex 400.29367022990584 763.2645618827528 20.34788699999995
  endloop
endfacet
facet normal -0.9914448613738236 0.13052619221995163 3.1536714782092683e-29
  outer loop
    vertex 400.29367022990584 763.2645618827528 18.347886999999957
    vertex 400.3447814904722 763.6527904504067 20.34788699999995
    vertex 400.3447814904722 763.6527904504067 18.347886999999957
  endloop
endfacet
facet normal 0.0 -1.0 0.0
  outer loop
    vertex 369.7936702299055 789.2645618827542 18.34788699999996
    vertex 368.7936702299055 789.2645618827542 14.597886999999972
    vertex 369.7936702299055 789.2645618827542 14.597886999999972
  endloop
endfacet
facet normal 0.0 -1.0 0.0
  outer loop
    vertex 368.7936702299055 789.2645618827542 14.597886999999972
    vertex 369.7936702299055 789.2645618827542 18.34788699999996
    vertex 368.7936702299055 789.2645618827542 18.34788699999996
  endloop
endfacet
facet normal 0.6087614290095387 -0.7933533402906074 0.0
  outer loop
    vertex 402.8543304016851 762.2039017109736 20.34788699999995
    vertex 402.5436702299053 761.9655237770762 18.347886999999957
    vertex 402.8543304016851 762.2039017109736 18.347886999999957
  endloop
endfacet
facet normal 0.6087614290095387 -0.7933533402906074 0.0
  outer loop
    vertex 402.5436702299053 761.9655237770762 18.347886999999957
    vertex 402.8543304016851 762.2039017109736 20.34788699999995
    vertex 402.5436702299053 761.9655237770762 20.34788699999995
  endloop
endfacet
facet normal -0.608761429008434 0.7933533402914553 -1.9363997237703595e-29
  outer loop
    vertex 400.73301005812596 764.3252220545326 20.34788699999995
    vertex 401.0436702299057 764.5635999884292 18.347886999999957
    vertex 400.73301005812596 764.3252220545326 18.347886999999957
  endloop
endfacet
facet normal -0.608761429008434 0.7933533402914553 -1.9363997237703595e-29
  outer loop
    vertex 401.0436702299057 764.5635999884292 18.347886999999957
    vertex 400.73301005812596 764.3252220545326 20.34788699999995
    vertex 401.0436702299057 764.5635999884292 20.34788699999995
  endloop
endfacet
facet normal 0.6087614290084339 0.7933533402914552 2.6613675154040145e-18
  outer loop
    vertex 372.04367022990533 764.5635999884292 20.347886999999965
    vertex 372.3543304016851 764.3252220545326 18.34788699999996
    vertex 372.04367022990533 764.5635999884292 18.34788699999996
  endloop
endfacet
facet normal 0.6087614290084339 0.7933533402914552 2.6613675154040145e-18
  outer loop
    vertex 372.3543304016851 764.3252220545326 18.34788699999996
    vertex 372.04367022990533 764.5635999884292 20.347886999999965
    vertex 372.3543304016851 764.3252220545326 20.347886999999965
  endloop
endfacet
facet normal -0.0 1.0 -0.0
  outer loop
    vertex 368.7936702299055 794.2645618827544 18.34788699999996
    vertex 373.7936702299055 794.2645618827544 7.097886999999971
    vertex 368.7936702299055 794.2645618827544 7.097886999999971
  endloop
endfacet
facet normal -0.0 1.0 -0.0
  outer loop
    vertex 373.7936702299055 794.2645618827544 7.097886999999971
    vertex 368.7936702299055 794.2645618827544 18.34788699999996
    vertex 373.7936702299055 794.2645618827544 18.34788699999996
  endloop
endfacet
facet normal 1.0 -0.0 -0.0
  outer loop
    vertex 370.7936702299055 789.2645618827542 7.097886999999969
    vertex 370.7936702299055 765.7645618827537 14.597886999999972
    vertex 370.7936702299055 765.7645618827537 7.097886999999969
  endloop
endfacet
facet normal 1.0 -0.0 -0.0
  outer loop
    vertex 370.7936702299055 765.7645618827537 14.597886999999972
    vertex 370.7936702299055 789.2645618827542 7.097886999999969
    vertex 370.7936702299055 789.2645618827542 14.597886999999972
  endloop
endfacet
facet normal -1.0 0.0 0.0
  outer loop
    vertex 402.29367022990556 789.2645618827542 14.597886999999977
    vertex 402.29367022990556 765.7645618827537 7.097886999999971
    vertex 402.29367022990556 765.7645618827537 14.597886999999977
  endloop
endfacet
facet normal -1.0 0.0 0.0
  outer loop
    vertex 402.29367022990556 765.7645618827537 7.097886999999971
    vertex 402.29367022990556 789.2645618827542 14.597886999999977
    vertex 402.29367022990556 789.2645618827542 7.097886999999971
  endloop
endfacet
facet normal -0.0 -0.0 1.0
  outer loop
    vertex 403.2936702299055 789.2645618827542 18.347886999999957
    vertex 399.2936702299055 794.2645618827544 18.347886999999957
    vertex 399.2936702299055 789.2645618827542 18.347886999999957
  endloop
endfacet
facet normal -0.0 -0.0 1.0
  outer loop
    vertex 399.2936702299055 794.2645618827544 18.347886999999957
    vertex 403.2936702299055 789.2645618827542 18.347886999999957
    vertex 404.29367022990544 794.2645618827544 18.347886999999957
  endloop
endfacet
facet normal -0.0 -0.0 1.0
  outer loop
    vertex 404.29367022990544 794.2645618827544 18.347886999999957
    vertex 403.2936702299055 789.2645618827542 18.347886999999957
    vertex 404.29367022990544 789.2645618827542 18.347886999999957
  endloop
endfacet
facet normal 0.9914448613738001 -0.13052619222013057 3.153671478209157e-29
  outer loop
    vertex 372.79367022990516 763.2645618827528 18.34788699999996
    vertex 372.7425589693388 762.8763333150995 20.347886999999965
    vertex 372.7425589693388 762.8763333150995 18.34788699999996
  endloop
endfacet
facet normal 0.9914448613738001 -0.13052619222013057 3.153671478209157e-29
  outer loop
    vertex 372.7425589693388 762.8763333150995 20.347886999999965
    vertex 372.79367022990516 763.2645618827528 18.34788699999996
    vertex 372.79367022990516 763.2645618827528 20.347886999999965
  endloop
endfacet
facet normal -0.38268343236479524 -0.9238795325114088 1.2172717544370176e-29
  outer loop
    vertex 401.40544166225175 761.8156731433195 20.34788699999995
    vertex 401.0436702299057 761.9655237770762 18.347886999999957
    vertex 401.40544166225175 761.8156731433195 18.347886999999957
  endloop
endfacet
facet normal -0.38268343236479524 -0.9238795325114088 1.2172717544370176e-29
  outer loop
    vertex 401.0436702299057 761.9655237770762 18.347886999999957
    vertex 401.40544166225175 761.8156731433195 20.34788699999995
    vertex 401.0436702299057 761.9655237770762 20.34788699999995
  endloop
endfacet
facet normal 1.0 -0.0 -0.0
  outer loop
    vertex 373.7936702299055 794.2645618827544 7.097886999999971
    vertex 373.7936702299055 789.2645618827542 18.34788699999996
    vertex 373.7936702299055 789.2645618827542 7.097886999999971
  endloop
endfacet
facet normal 1.0 -0.0 -0.0
  outer loop
    vertex 373.7936702299055 789.2645618827542 18.34788699999996
    vertex 373.7936702299055 794.2645618827544 7.097886999999971
    vertex 373.7936702299055 794.2645618827544 18.34788699999996
  endloop
endfacet
facet normal 0.13052619221899192 0.9914448613739499 -0.0
  outer loop
    vertex 401.79367022990544 764.7645618827528 20.34788699999995
    vertex 402.1818987975592 764.7134506221869 18.347886999999957
    vertex 401.79367022990544 764.7645618827528 18.347886999999957
  endloop
endfacet
facet normal 0.13052619221899192 0.9914448613739499 -0.0
  outer loop
    vertex 402.1818987975592 764.7134506221869 18.347886999999957
    vertex 401.79367022990544 764.7645618827528 20.34788699999995
    vertex 402.1818987975592 764.7134506221869 20.34788699999995
  endloop
endfacet
facet normal 0.0 -1.0 0.0
  outer loop
    vertex 404.29367022990544 789.2645618827542 18.347886999999957
    vertex 403.2936702299055 789.2645618827542 14.597886999999977
    vertex 404.29367022990544 789.2645618827542 14.597886999999977
  endloop
endfacet
facet normal 0.0 -1.0 0.0
  outer loop
    vertex 403.2936702299055 789.2645618827542 14.597886999999977
    vertex 404.29367022990544 789.2645618827542 18.347886999999957
    vertex 403.2936702299055 789.2645618827542 18.347886999999957
  endloop
endfacet
facet normal 0.6087614290083784 0.7933533402914981 -0.0
  outer loop
    vertex 402.5436702299053 764.5635999884292 20.34788699999995
    vertex 402.8543304016851 764.3252220545326 18.347886999999957
    vertex 402.5436702299053 764.5635999884292 18.347886999999957
  endloop
endfacet
facet normal 0.6087614290083784 0.7933533402914981 -0.0
  outer loop
    vertex 402.8543304016851 764.3252220545326 18.347886999999957
    vertex 402.5436702299053 764.5635999884292 20.34788699999995
    vertex 402.8543304016851 764.3252220545326 20.34788699999995
  endloop
endfacet
facet normal -0.6087614290095944 -0.7933533402905648 -1.9363997237740502e-29
  outer loop
    vertex 401.0436702299057 761.9655237770762 20.34788699999995
    vertex 400.73301005812596 762.2039017109736 18.347886999999957
    vertex 401.0436702299057 761.9655237770762 18.347886999999957
  endloop
endfacet
facet normal -0.6087614290095944 -0.7933533402905648 -1.9363997237740502e-29
  outer loop
    vertex 400.73301005812596 762.2039017109736 18.347886999999957
    vertex 401.0436702299057 761.9655237770762 20.34788699999995
    vertex 400.73301005812596 762.2039017109736 20.34788699999995
  endloop
endfacet
facet normal -0.9914448613738001 -0.13052619222013057 -3.1536714782091926e-29
  outer loop
    vertex 400.29367022990584 763.2645618827528 20.34788699999995
    vertex 400.3447814904722 762.8763333150995 18.347886999999957
    vertex 400.3447814904722 762.8763333150995 20.34788699999995
  endloop
endfacet
facet normal -0.9914448613738001 -0.13052619222013057 -3.1536714782091926e-29
  outer loop
    vertex 400.3447814904722 762.8763333150995 18.347886999999957
    vertex 400.29367022990584 763.2645618827528 20.34788699999995
    vertex 400.29367022990584 763.2645618827528 18.347886999999957
  endloop
endfacet
facet normal -0.3826834323667623 0.9238795325105942 -1.2172717544432747e-29
  outer loop
    vertex 401.0436702299057 764.5635999884292 20.34788699999995
    vertex 401.40544166225175 764.7134506221869 18.347886999999957
    vertex 401.0436702299057 764.5635999884292 18.347886999999957
  endloop
endfacet
facet normal -0.3826834323667623 0.9238795325105942 -1.2172717544432747e-29
  outer loop
    vertex 401.40544166225175 764.7134506221869 18.347886999999957
    vertex 401.0436702299057 764.5635999884292 20.34788699999995
    vertex 401.40544166225175 764.7134506221869 20.34788699999995
  endloop
endfacet
facet normal 0.38268343236672153 0.9238795325106108 -0.0
  outer loop
    vertex 371.6818987975592 764.7134506221869 20.347886999999965
    vertex 372.04367022990533 764.5635999884292 18.34788699999996
    vertex 371.6818987975592 764.7134506221869 18.34788699999996
  endloop
endfacet
facet normal 0.38268343236672153 0.9238795325106108 -0.0
  outer loop
    vertex 372.04367022990533 764.5635999884292 18.34788699999996
    vertex 371.6818987975592 764.7134506221869 20.347886999999965
    vertex 372.04367022990533 764.5635999884292 20.347886999999965
  endloop
endfacet
facet normal 0.9238795325111951 0.3826834323653109 -0.0
  outer loop
    vertex 403.09270833558185 764.0145618827527 18.347886999999957
    vertex 403.2425589693388 763.6527904504067 20.34788699999995
    vertex 403.2425589693388 763.6527904504067 18.347886999999957
  endloop
endfacet
facet normal 0.9238795325111951 0.3826834323653109 -0.0
  outer loop
    vertex 403.2425589693388 763.6527904504067 20.34788699999995
    vertex 403.09270833558185 764.0145618827527 18.347886999999957
    vertex 403.09270833558185 764.0145618827527 20.34788699999995
  endloop
endfacet
facet normal -0.0 1.0 -0.0
  outer loop
    vertex 399.2936702299055 765.7645618827537 18.347886999999957
    vertex 402.29367022990556 765.7645618827537 7.097886999999971
    vertex 399.2936702299055 765.7645618827537 7.097886999999971
  endloop
endfacet
facet normal -0.0 1.0 -0.0
  outer loop
    vertex 402.29367022990556 765.7645618827537 7.097886999999971
    vertex 399.2936702299055 765.7645618827537 18.347886999999957
    vertex 402.29367022990556 765.7645618827537 14.597886999999977
  endloop
endfacet
facet normal -0.0 1.0 -0.0
  outer loop
    vertex 402.29367022990556 765.7645618827537 14.597886999999977
    vertex 399.2936702299055 765.7645618827537 18.347886999999957
    vertex 404.29367022990544 765.7645618827537 14.597886999999977
  endloop
endfacet
facet normal -0.0 1.0 -0.0
  outer loop
    vertex 404.29367022990544 765.7645618827537 14.597886999999977
    vertex 399.2936702299055 765.7645618827537 18.347886999999957
    vertex 404.29367022990544 765.7645618827537 18.347886999999957
  endloop
endfacet
facet normal -0.0 -0.0 1.0
  outer loop
    vertex 370.7936702299055 765.7645618827537 14.597886999999972
    vertex 368.7936702299055 789.2645618827542 14.597886999999972
    vertex 368.7936702299055 765.7645618827537 14.597886999999972
  endloop
endfacet
facet normal -0.0 -0.0 1.0
  outer loop
    vertex 368.7936702299055 789.2645618827542 14.597886999999972
    vertex 370.7936702299055 765.7645618827537 14.597886999999972
    vertex 369.7936702299055 789.2645618827542 14.597886999999972
  endloop
endfacet
facet normal -0.0 -0.0 1.0
  outer loop
    vertex 369.7936702299055 789.2645618827542 14.597886999999972
    vertex 370.7936702299055 765.7645618827537 14.597886999999972
    vertex 370.7936702299055 789.2645618827542 14.597886999999972
  endloop
endfacet
facet normal -0.0 -0.0 1.0
  outer loop
    vertex 404.29367022990544 765.7645618827537 14.597886999999977
    vertex 402.29367022990556 789.2645618827542 14.597886999999977
    vertex 402.29367022990556 765.7645618827537 14.597886999999977
  endloop
endfacet
facet normal -0.0 -0.0 1.0
  outer loop
    vertex 402.29367022990556 789.2645618827542 14.597886999999977
    vertex 404.29367022990544 765.7645618827537 14.597886999999977
    vertex 403.2936702299055 789.2645618827542 14.597886999999977
  endloop
endfacet
facet normal -0.0 -0.0 1.0
  outer loop
    vertex 403.2936702299055 789.2645618827542 14.597886999999977
    vertex 404.29367022990544 765.7645618827537 14.597886999999977
    vertex 404.29367022990544 789.2645618827542 14.597886999999977
  endloop
endfacet
facet normal -0.0 -0.0 1.0
  outer loop
    vertex 399.2936702299055 760.7645618827527 18.347886999999957
    vertex 400.3447814904722 762.8763333150995 18.347886999999957
    vertex 399.2936702299055 765.7645618827537 18.347886999999957
  endloop
endfacet
facet normal -0.0 -0.0 1.0
  outer loop
    vertex 400.3447814904722 762.8763333150995 18.347886999999957
    vertex 399.2936702299055 760.7645618827527 18.347886999999957
    vertex 400.49463212422916 762.5145618827528 18.347886999999957
  endloop
endfacet
facet normal -0.0 -0.0 1.0
  outer loop
    vertex 400.49463212422916 762.5145618827528 18.347886999999957
    vertex 399.2936702299055 760.7645618827527 18.347886999999957
    vertex 400.73301005812596 762.2039017109736 18.347886999999957
  endloop
endfacet
facet normal -0.0 -0.0 1.0
  outer loop
    vertex 400.73301005812596 762.2039017109736 18.347886999999957
    vertex 399.2936702299055 760.7645618827527 18.347886999999957
    vertex 401.0436702299057 761.9655237770762 18.347886999999957
  endloop
endfacet
facet normal -0.0 -0.0 1.0
  outer loop
    vertex 401.0436702299057 761.9655237770762 18.347886999999957
    vertex 399.2936702299055 760.7645618827527 18.347886999999957
    vertex 401.40544166225175 761.8156731433195 18.347886999999957
  endloop
endfacet
facet normal -0.0 -0.0 1.0
  outer loop
    vertex 401.40544166225175 761.8156731433195 18.347886999999957
    vertex 399.2936702299055 760.7645618827527 18.347886999999957
    vertex 404.29367022990544 760.7645618827527 18.347886999999957
  endloop
endfacet
facet normal -0.0 -0.0 1.0
  outer loop
    vertex 399.2936702299055 765.7645618827537 18.347886999999957
    vertex 400.3447814904722 762.8763333150995 18.347886999999957
    vertex 400.29367022990584 763.2645618827528 18.347886999999957
  endloop
endfacet
facet normal -0.0 -0.0 1.0
  outer loop
    vertex 401.40544166225175 761.8156731433195 18.347886999999957
    vertex 404.29367022990544 760.7645618827527 18.347886999999957
    vertex 401.79367022990544 761.7645618827531 18.347886999999957
  endloop
endfacet
facet normal -0.0 -0.0 1.0
  outer loop
    vertex 401.79367022990544 761.7645618827531 18.347886999999957
    vertex 404.29367022990544 760.7645618827527 18.347886999999957
    vertex 402.1818987975592 761.8156731433195 18.347886999999957
  endloop
endfacet
facet normal -0.0 -0.0 1.0
  outer loop
    vertex 402.1818987975592 761.8156731433195 18.347886999999957
    vertex 404.29367022990544 760.7645618827527 18.347886999999957
    vertex 402.5436702299053 761.9655237770762 18.347886999999957
  endloop
endfacet
facet normal -0.0 -0.0 1.0
  outer loop
    vertex 402.5436702299053 761.9655237770762 18.347886999999957
    vertex 404.29367022990544 760.7645618827527 18.347886999999957
    vertex 402.8543304016851 762.2039017109736 18.347886999999957
  endloop
endfacet
facet normal -0.0 -0.0 1.0
  outer loop
    vertex 402.8543304016851 762.2039017109736 18.347886999999957
    vertex 404.29367022990544 760.7645618827527 18.347886999999957
    vertex 403.09270833558185 762.5145618827528 18.347886999999957
  endloop
endfacet
facet normal -0.0 -0.0 1.0
  outer loop
    vertex 403.09270833558185 762.5145618827528 18.347886999999957
    vertex 404.29367022990544 760.7645618827527 18.347886999999957
    vertex 403.2425589693388 762.8763333150995 18.347886999999957
  endloop
endfacet
facet normal -0.0 -0.0 1.0
  outer loop
    vertex 403.2425589693388 762.8763333150995 18.347886999999957
    vertex 404.29367022990544 760.7645618827527 18.347886999999957
    vertex 403.2936702299051 763.2645618827528 18.347886999999957
  endloop
endfacet
facet normal -0.0 -0.0 1.0
  outer loop
    vertex 399.2936702299055 765.7645618827537 18.347886999999957
    vertex 401.40544166225175 764.7134506221869 18.347886999999957
    vertex 404.29367022990544 765.7645618827537 18.347886999999957
  endloop
endfacet
facet normal -0.0 -0.0 1.0
  outer loop
    vertex 401.40544166225175 764.7134506221869 18.347886999999957
    vertex 399.2936702299055 765.7645618827537 18.347886999999957
    vertex 401.0436702299057 764.5635999884292 18.347886999999957
  endloop
endfacet
facet normal -0.0 -0.0 1.0
  outer loop
    vertex 401.0436702299057 764.5635999884292 18.347886999999957
    vertex 399.2936702299055 765.7645618827537 18.347886999999957
    vertex 400.73301005812596 764.3252220545326 18.347886999999957
  endloop
endfacet
facet normal -0.0 -0.0 1.0
  outer loop
    vertex 400.73301005812596 764.3252220545326 18.347886999999957
    vertex 399.2936702299055 765.7645618827537 18.347886999999957
    vertex 400.49463212422916 764.0145618827527 18.347886999999957
  endloop
endfacet
facet normal -0.0 -0.0 1.0
  outer loop
    vertex 400.49463212422916 764.0145618827527 18.347886999999957
    vertex 399.2936702299055 765.7645618827537 18.347886999999957
    vertex 400.3447814904722 763.6527904504067 18.347886999999957
  endloop
endfacet
facet normal -0.0 -0.0 1.0
  outer loop
    vertex 400.3447814904722 763.6527904504067 18.347886999999957
    vertex 399.2936702299055 765.7645618827537 18.347886999999957
    vertex 400.29367022990584 763.2645618827528 18.347886999999957
  endloop
endfacet
facet normal -0.0 -0.0 1.0
  outer loop
    vertex 404.29367022990544 765.7645618827537 18.347886999999957
    vertex 401.40544166225175 764.7134506221869 18.347886999999957
    vertex 401.79367022990544 764.7645618827528 18.347886999999957
  endloop
endfacet
facet normal -0.0 -0.0 1.0
  outer loop
    vertex 404.29367022990544 765.7645618827537 18.347886999999957
    vertex 401.79367022990544 764.7645618827528 18.347886999999957
    vertex 402.1818987975592 764.7134506221869 18.347886999999957
  endloop
endfacet
facet normal -0.0 -0.0 1.0
  outer loop
    vertex 404.29367022990544 765.7645618827537 18.347886999999957
    vertex 402.1818987975592 764.7134506221869 18.347886999999957
    vertex 402.5436702299053 764.5635999884292 18.347886999999957
  endloop
endfacet
facet normal -0.0 -0.0 1.0
  outer loop
    vertex 404.29367022990544 765.7645618827537 18.347886999999957
    vertex 402.5436702299053 764.5635999884292 18.347886999999957
    vertex 402.8543304016851 764.3252220545326 18.347886999999957
  endloop
endfacet
facet normal -0.0 -0.0 1.0
  outer loop
    vertex 404.29367022990544 765.7645618827537 18.347886999999957
    vertex 402.8543304016851 764.3252220545326 18.347886999999957
    vertex 403.09270833558185 764.0145618827527 18.347886999999957
  endloop
endfacet
facet normal -0.0 -0.0 1.0
  outer loop
    vertex 404.29367022990544 765.7645618827537 18.347886999999957
    vertex 403.09270833558185 764.0145618827527 18.347886999999957
    vertex 403.2425589693388 763.6527904504067 18.347886999999957
  endloop
endfacet
facet normal -0.0 -0.0 1.0
  outer loop
    vertex 404.29367022990544 765.7645618827537 18.347886999999957
    vertex 403.2425589693388 763.6527904504067 18.347886999999957
    vertex 403.2936702299051 763.2645618827528 18.347886999999957
  endloop
endfacet
facet normal -0.0 -0.0 1.0
  outer loop
    vertex 404.29367022990544 765.7645618827537 18.347886999999957
    vertex 403.2936702299051 763.2645618827528 18.347886999999957
    vertex 404.29367022990544 760.7645618827527 18.347886999999957
  endloop
endfacet
facet normal -0.0 -0.0 1.0
  outer loop
    vertex 369.7936702299055 789.2645618827542 18.34788699999996
    vertex 368.7936702299055 794.2645618827544 18.34788699999996
    vertex 368.7936702299055 789.2645618827542 18.34788699999996
  endloop
endfacet
facet normal -0.0 -0.0 1.0
  outer loop
    vertex 368.7936702299055 794.2645618827544 18.34788699999996
    vertex 369.7936702299055 789.2645618827542 18.34788699999996
    vertex 373.7936702299055 794.2645618827544 18.34788699999996
  endloop
endfacet
facet normal -0.0 -0.0 1.0
  outer loop
    vertex 373.7936702299055 794.2645618827544 18.34788699999996
    vertex 369.7936702299055 789.2645618827542 18.34788699999996
    vertex 373.7936702299055 789.2645618827542 18.34788699999996
  endloop
endfacet
facet normal -1.0 0.0 0.0
  outer loop
    vertex 399.2936702299055 765.7645618827537 18.347886999999957
    vertex 399.2936702299055 760.7645618827527 14.597886999999965
    vertex 399.2936702299055 760.7645618827527 18.347886999999957
  endloop
endfacet
facet normal -1.0 0.0 0.0
  outer loop
    vertex 399.2936702299055 760.7645618827527 14.597886999999965
    vertex 399.2936702299055 765.7645618827537 18.347886999999957
    vertex 399.2936702299055 762.7645618827527 14.597886999999965
  endloop
endfacet
facet normal -1.0 0.0 0.0
  outer loop
    vertex 399.2936702299055 762.7645618827527 14.597886999999965
    vertex 399.2936702299055 765.7645618827537 18.347886999999957
    vertex 399.2936702299055 762.7645618827527 7.097886999999971
  endloop
endfacet
facet normal -1.0 0.0 0.0
  outer loop
    vertex 399.2936702299055 762.7645618827527 7.097886999999971
    vertex 399.2936702299055 765.7645618827537 18.347886999999957
    vertex 399.2936702299055 765.7645618827537 7.097886999999971
  endloop
endfacet
facet normal 1.0 -0.0 -0.0
  outer loop
    vertex 373.7936702299055 761.7645618827528 14.597886999999965
    vertex 373.7936702299055 760.7645618827527 18.34788699999996
    vertex 373.7936702299055 760.7645618827527 14.597886999999965
  endloop
endfacet
facet normal 1.0 -0.0 -0.0
  outer loop
    vertex 373.7936702299055 760.7645618827527 18.34788699999996
    vertex 373.7936702299055 761.7645618827528 14.597886999999965
    vertex 373.7936702299055 761.7645618827528 18.34788699999996
  endloop
endfacet
facet normal -0.0 -0.0 1.0
  outer loop
    vertex 399.2936702299055 760.7645618827527 14.597886999999965
    vertex 373.7936702299055 761.7645618827528 14.597886999999965
    vertex 373.7936702299055 760.7645618827527 14.597886999999965
  endloop
endfacet
facet normal -0.0 -0.0 1.0
  outer loop
    vertex 373.7936702299055 761.7645618827528 14.597886999999965
    vertex 399.2936702299055 760.7645618827527 14.597886999999965
    vertex 373.7936702299055 762.7645618827527 14.597886999999965
  endloop
endfacet
facet normal -0.0 -0.0 1.0
  outer loop
    vertex 373.7936702299055 762.7645618827527 14.597886999999965
    vertex 399.2936702299055 760.7645618827527 14.597886999999965
    vertex 399.2936702299055 762.7645618827527 14.597886999999965
  endloop
endfacet
facet normal 1.0 -0.0 -0.0
  outer loop
    vertex 373.7936702299055 765.7645618827537 7.097886999999971
    vertex 373.7936702299055 762.7645618827527 14.597886999999965
    vertex 373.7936702299055 762.7645618827527 7.097886999999971
  endloop
endfacet
facet normal 1.0 -0.0 -0.0
  outer loop
    vertex 373.7936702299055 762.7645618827527 14.597886999999965
    vertex 373.7936702299055 761.7645618827528 18.34788699999996
    vertex 373.7936702299055 761.7645618827528 14.597886999999965
  endloop
endfacet
facet normal 1.0 -0.0 -0.0
  outer loop
    vertex 373.7936702299055 761.7645618827528 18.34788699999996
    vertex 373.7936702299055 762.7645618827527 14.597886999999965
    vertex 373.7936702299055 765.7645618827537 18.34788699999996
  endloop
endfacet
facet normal 1.0 -0.0 -0.0
  outer loop
    vertex 373.7936702299055 765.7645618827537 18.34788699999996
    vertex 373.7936702299055 762.7645618827527 14.597886999999965
    vertex 373.7936702299055 765.7645618827537 7.097886999999971
  endloop
endfacet
facet normal -0.9238795325111951 0.3826834323653109 0.0
  outer loop
    vertex 400.49463212422916 764.0145618827527 20.34788699999995
    vertex 400.3447814904722 763.6527904504067 18.347886999999957
    vertex 400.3447814904722 763.6527904504067 20.34788699999995
  endloop
endfacet
facet normal -0.9238795325111951 0.3826834323653109 0.0
  outer loop
    vertex 400.3447814904722 763.6527904504067 18.347886999999957
    vertex 400.49463212422916 764.0145618827527 20.34788699999995
    vertex 400.49463212422916 764.0145618827527 18.347886999999957
  endloop
endfacet
facet normal -0.13052619221899192 0.9914448613739499 -0.0
  outer loop
    vertex 401.40544166225175 764.7134506221869 20.34788699999995
    vertex 401.79367022990544 764.7645618827528 18.347886999999957
    vertex 401.40544166225175 764.7134506221869 18.347886999999957
  endloop
endfacet
facet normal -0.13052619221899192 0.9914448613739499 -0.0
  outer loop
    vertex 401.79367022990544 764.7645618827528 18.347886999999957
    vertex 401.40544166225175 764.7134506221869 20.34788699999995
    vertex 401.79367022990544 764.7645618827528 20.34788699999995
  endloop
endfacet
endsolid Multibox-Sensor
