solid Multibox-Sensor
facet normal 6.617212742368575e-15 1.0 7.705660936709642e-15
  outer loop
    vertex 308.44439942945854 776.5220258011954 7.097887
    vertex 314.8443994294585 776.5220258011954 0.0
    vertex 308.44439942945854 776.5220258011954 0.0
  endloop
endfacet
facet normal 6.617212742368575e-15 1.0 7.705660936709642e-15
  outer loop
    vertex 314.8443994294585 776.5220258011954 0.0
    vertex 308.44439942945854 776.5220258011954 7.097887
    vertex 314.8443994294585 776.5220258011954 7.097887
  endloop
endfacet
facet normal 6.617212742368575e-15 1.0 7.705660936709642e-15
  outer loop
    vertex 314.8443994294585 776.5220258011954 7.097887
    vertex 308.44439942945854 776.5220258011954 7.097887
    vertex 314.12219842945854 776.5220258011952 7.097887
  endloop
endfacet
facet normal -1.0 0.0 0.0
  outer loop
    vertex 308.44439942945854 775.9715783431873 7.097887
    vertex 308.44439942945854 770.7220258011953 6.499999999999999
    vertex 308.44439942945854 770.7220258011953 7.097887
  endloop
endfacet
facet normal -1.0 0.0 0.0
  outer loop
    vertex 308.44439942945854 770.7220258011953 6.499999999999999
    vertex 308.44439942945854 775.9715783431873 7.097887
    vertex 308.44439942945854 770.7220258011953 0.0
  endloop
endfacet
facet normal -1.0 0.0 0.0
  outer loop
    vertex 308.44439942945854 770.7220258011953 0.0
    vertex 308.44439942945854 775.9715783431873 7.097887
    vertex 308.44439942945854 776.5220258011954 0.0
  endloop
endfacet
facet normal -1.0 0.0 0.0
  outer loop
    vertex 308.44439942945854 776.5220258011954 0.0
    vertex 308.44439942945854 775.9715783431873 7.097887
    vertex 308.44439942945854 776.5220258011954 7.097887
  endloop
endfacet
facet normal 0.1775366775157868 -0.9841141845012984 -4.778431725750562e-19
  outer loop
    vertex 311.56116041798145 775.370045042213 7.097887
    vertex 311.111576047737 775.2889388894786 1.9999999999999971
    vertex 311.56116041798145 775.370045042213 1.9999999999999971
  endloop
endfacet
facet normal 0.1775366775157868 -0.9841141845012984 -4.778431725750562e-19
  outer loop
    vertex 311.111576047737 775.2889388894786 1.9999999999999971
    vertex 311.56116041798145 775.370045042213 7.097887
    vertex 311.111576047737 775.2889388894786 7.097887
  endloop
endfacet
facet normal -0.33830581941847215 -0.9410362227606311 -4.140730290394328e-31
  outer loop
    vertex 312.44632195144237 775.1774743759592 7.097887
    vertex 312.0164173892991 775.3320265724101 1.9999999999999971
    vertex 312.44632195144237 775.1774743759592 1.9999999999999971
  endloop
endfacet
facet normal -0.33830581941847215 -0.9410362227606311 -4.140730290394328e-31
  outer loop
    vertex 312.0164173892991 775.3320265724101 1.9999999999999971
    vertex 312.44632195144237 775.1774743759592 7.097887
    vertex 312.0164173892991 775.3320265724101 7.097887
  endloop
endfacet
facet normal -0.0 -0.0 1.0
  outer loop
    vertex 309.9774863411751 773.0892024194736 1.9999999999999971
    vertex 309.93439865824354 773.9940437610356 1.9999999999999971
    vertex 309.89638018844084 773.5387867897181 1.9999999999999971
  endloop
endfacet
facet normal -0.0 -0.0 1.0
  outer loop
    vertex 309.93439865824354 773.9940437610356 1.9999999999999971
    vertex 309.9774863411751 773.0892024194736 1.9999999999999971
    vertex 310.08895085469464 774.4239483231788 1.9999999999999971
  endloop
endfacet
facet normal -0.0 -0.0 1.0
  outer loop
    vertex 310.08895085469464 774.4239483231788 1.9999999999999971
    vertex 309.9774863411751 773.0892024194736 1.9999999999999971
    vertex 310.1721898661718 772.6759290821612 1.9999999999999971
  endloop
endfacet
facet normal -0.0 -0.0 1.0
  outer loop
    vertex 310.08895085469464 774.4239483231788 1.9999999999999971
    vertex 310.1721898661718 772.6759290821612 1.9999999999999971
    vertex 310.34950430101566 774.7992031906886 1.9999999999999971
  endloop
endfacet
facet normal -0.0 -0.0 1.0
  outer loop
    vertex 310.34950430101566 774.7992031906886 1.9999999999999971
    vertex 310.1721898661718 772.6759290821612 1.9999999999999971
    vertex 310.46722203996507 772.3271306727522 1.9999999999999971
  endloop
endfacet
facet normal -0.0 -0.0 1.0
  outer loop
    vertex 310.34950430101566 774.7992031906886 1.9999999999999971
    vertex 310.46722203996507 772.3271306727522 1.9999999999999971
    vertex 310.6983027104246 775.094235364482 1.9999999999999971
  endloop
endfacet
facet normal -0.0 -0.0 1.0
  outer loop
    vertex 310.6983027104246 775.094235364482 1.9999999999999971
    vertex 310.46722203996507 772.3271306727522 1.9999999999999971
    vertex 310.84247690747475 772.0665772264311 1.9999999999999971
  endloop
endfacet
facet normal -0.0 -0.0 1.0
  outer loop
    vertex 310.6983027104246 775.094235364482 1.9999999999999971
    vertex 310.84247690747475 772.0665772264311 1.9999999999999971
    vertex 311.111576047737 775.2889388894786 1.9999999999999971
  endloop
endfacet
facet normal -0.0 -0.0 1.0
  outer loop
    vertex 311.111576047737 775.2889388894786 1.9999999999999971
    vertex 310.84247690747475 772.0665772264311 1.9999999999999971
    vertex 311.27238146961804 771.9120250299802 1.9999999999999971
  endloop
endfacet
facet normal -0.0 -0.0 1.0
  outer loop
    vertex 311.111576047737 775.2889388894786 1.9999999999999971
    vertex 311.27238146961804 771.9120250299802 1.9999999999999971
    vertex 311.56116041798145 775.370045042213 1.9999999999999971
  endloop
endfacet
facet normal -0.0 -0.0 1.0
  outer loop
    vertex 311.56116041798145 775.370045042213 1.9999999999999971
    vertex 311.27238146961804 771.9120250299802 1.9999999999999971
    vertex 311.72763844093566 771.8740065601773 1.9999999999999971
  endloop
endfacet
facet normal -0.0 -0.0 1.0
  outer loop
    vertex 311.56116041798145 775.370045042213 1.9999999999999971
    vertex 311.72763844093566 771.8740065601773 1.9999999999999971
    vertex 312.0164173892991 775.3320265724101 1.9999999999999971
  endloop
endfacet
facet normal -0.0 -0.0 1.0
  outer loop
    vertex 312.0164173892991 775.3320265724101 1.9999999999999971
    vertex 311.72763844093566 771.8740065601773 1.9999999999999971
    vertex 312.1772228111801 771.9551127129117 1.9999999999999971
  endloop
endfacet
facet normal -0.0 -0.0 1.0
  outer loop
    vertex 312.0164173892991 775.3320265724101 1.9999999999999971
    vertex 312.1772228111801 771.9551127129117 1.9999999999999971
    vertex 312.44632195144237 775.1774743759592 1.9999999999999971
  endloop
endfacet
facet normal -0.0 -0.0 1.0
  outer loop
    vertex 312.44632195144237 775.1774743759592 1.9999999999999971
    vertex 312.1772228111801 771.9551127129117 1.9999999999999971
    vertex 312.59049614849243 772.1498162379083 1.9999999999999971
  endloop
endfacet
facet normal -0.0 -0.0 1.0
  outer loop
    vertex 312.44632195144237 775.1774743759592 1.9999999999999971
    vertex 312.59049614849243 772.1498162379083 1.9999999999999971
    vertex 312.821576818952 774.9169209296381 1.9999999999999971
  endloop
endfacet
facet normal -0.0 -0.0 1.0
  outer loop
    vertex 312.821576818952 774.9169209296381 1.9999999999999971
    vertex 312.59049614849243 772.1498162379083 1.9999999999999971
    vertex 312.93929455790146 772.4448484117016 1.9999999999999971
  endloop
endfacet
facet normal -0.0 -0.0 1.0
  outer loop
    vertex 312.821576818952 774.9169209296381 1.9999999999999971
    vertex 312.93929455790146 772.4448484117016 1.9999999999999971
    vertex 313.11660899274534 774.568122520229 1.9999999999999971
  endloop
endfacet
facet normal -0.0 -0.0 1.0
  outer loop
    vertex 313.11660899274534 774.568122520229 1.9999999999999971
    vertex 312.93929455790146 772.4448484117016 1.9999999999999971
    vertex 313.1998480042224 772.8201032792115 1.9999999999999971
  endloop
endfacet
facet normal -0.0 -0.0 1.0
  outer loop
    vertex 313.11660899274534 774.568122520229 1.9999999999999971
    vertex 313.1998480042224 772.8201032792115 1.9999999999999971
    vertex 313.311312517742 774.1548491829167 1.9999999999999971
  endloop
endfacet
facet normal -0.0 -0.0 1.0
  outer loop
    vertex 313.311312517742 774.1548491829167 1.9999999999999971
    vertex 313.1998480042224 772.8201032792115 1.9999999999999971
    vertex 313.3544002006736 773.2500078413547 1.9999999999999971
  endloop
endfacet
facet normal -0.0 -0.0 1.0
  outer loop
    vertex 313.311312517742 774.1548491829167 1.9999999999999971
    vertex 313.3544002006736 773.2500078413547 1.9999999999999971
    vertex 313.3924186704763 773.7052648126721 1.9999999999999971
  endloop
endfacet
facet normal 0.0 0.0 -1.0
  outer loop
    vertex 314.8443994294585 776.5220258011954 0.0
    vertex 308.44439942945854 770.7220258011953 0.0
    vertex 308.44439942945854 776.5220258011954 0.0
  endloop
endfacet
facet normal 0.0 0.0 -1.0
  outer loop
    vertex 308.44439942945854 770.7220258011953 0.0
    vertex 314.8443994294585 776.5220258011954 0.0
    vertex 314.8443994294585 770.7220258011953 0.0
  endloop
endfacet
facet normal -0.0 -0.0 1.0
  outer loop
    vertex 308.44439942945854 776.5220258011954 7.097887
    vertex 311.111576047737 775.2889388894786 7.097887
    vertex 314.12219842945854 776.5220258011952 7.097887
  endloop
endfacet
facet normal -0.0 -0.0 1.0
  outer loop
    vertex 311.111576047737 775.2889388894786 7.097887
    vertex 308.44439942945854 776.5220258011954 7.097887
    vertex 310.6983027104246 775.094235364482 7.097887
  endloop
endfacet
facet normal -0.0 -0.0 1.0
  outer loop
    vertex 310.6983027104246 775.094235364482 7.097887
    vertex 308.44439942945854 776.5220258011954 7.097887
    vertex 310.34950430101566 774.7992031906886 7.097887
  endloop
endfacet
facet normal -0.0 -0.0 1.0
  outer loop
    vertex 310.34950430101566 774.7992031906886 7.097887
    vertex 308.44439942945854 776.5220258011954 7.097887
    vertex 310.08895085469464 774.4239483231788 7.097887
  endloop
endfacet
facet normal -0.0 -0.0 1.0
  outer loop
    vertex 310.08895085469464 774.4239483231788 7.097887
    vertex 308.44439942945854 776.5220258011954 7.097887
    vertex 309.93439865824354 773.9940437610356 7.097887
  endloop
endfacet
facet normal -0.0 -0.0 1.0
  outer loop
    vertex 309.93439865824354 773.9940437610356 7.097887
    vertex 308.44439942945854 776.5220258011954 7.097887
    vertex 309.89638018844084 773.5387867897181 7.097887
  endloop
endfacet
facet normal -0.0 -0.0 1.0
  outer loop
    vertex 314.12219842945854 776.5220258011952 7.097887
    vertex 311.111576047737 775.2889388894786 7.097887
    vertex 311.56116041798145 775.370045042213 7.097887
  endloop
endfacet
facet normal -0.0 -0.0 1.0
  outer loop
    vertex 314.12219842945854 776.5220258011952 7.097887
    vertex 311.56116041798145 775.370045042213 7.097887
    vertex 312.0164173892991 775.3320265724101 7.097887
  endloop
endfacet
facet normal -0.0 -0.0 1.0
  outer loop
    vertex 314.12219842945854 776.5220258011952 7.097887
    vertex 312.0164173892991 775.3320265724101 7.097887
    vertex 312.44632195144237 775.1774743759592 7.097887
  endloop
endfacet
facet normal -0.0 -0.0 1.0
  outer loop
    vertex 314.12219842945854 776.5220258011952 7.097887
    vertex 312.44632195144237 775.1774743759592 7.097887
    vertex 312.821576818952 774.9169209296381 7.097887
  endloop
endfacet
facet normal -0.0 -0.0 1.0
  outer loop
    vertex 314.12219842945854 776.5220258011952 7.097887
    vertex 312.821576818952 774.9169209296381 7.097887
    vertex 313.11660899274534 774.568122520229 7.097887
  endloop
endfacet
facet normal -0.0 -0.0 1.0
  outer loop
    vertex 314.12219842945854 776.5220258011952 7.097887
    vertex 313.11660899274534 774.568122520229 7.097887
    vertex 313.311312517742 774.1548491829167 7.097887
  endloop
endfacet
facet normal -0.0 -0.0 1.0
  outer loop
    vertex 314.12219842945854 776.5220258011952 7.097887
    vertex 313.311312517742 774.1548491829167 7.097887
    vertex 313.3924186704763 773.7052648126721 7.097887
  endloop
endfacet
facet normal -0.0 -0.0 1.0
  outer loop
    vertex 308.44439942945854 770.7220258011953 7.097887
    vertex 310.1721898661718 772.6759290821612 7.097887
    vertex 308.44439942945854 775.9715783431873 7.097887
  endloop
endfacet
facet normal -0.0 -0.0 1.0
  outer loop
    vertex 310.1721898661718 772.6759290821612 7.097887
    vertex 308.44439942945854 770.7220258011953 7.097887
    vertex 310.46722203996507 772.3271306727522 7.097887
  endloop
endfacet
facet normal -0.0 -0.0 1.0
  outer loop
    vertex 310.46722203996507 772.3271306727522 7.097887
    vertex 308.44439942945854 770.7220258011953 7.097887
    vertex 310.84247690747475 772.0665772264311 7.097887
  endloop
endfacet
facet normal -0.0 -0.0 1.0
  outer loop
    vertex 310.84247690747475 772.0665772264311 7.097887
    vertex 308.44439942945854 770.7220258011953 7.097887
    vertex 311.27238146961804 771.9120250299802 7.097887
  endloop
endfacet
facet normal -0.0 -0.0 1.0
  outer loop
    vertex 311.27238146961804 771.9120250299802 7.097887
    vertex 308.44439942945854 770.7220258011953 7.097887
    vertex 314.8443994294585 770.7220258011953 7.097887
  endloop
endfacet
facet normal -0.0 -0.0 1.0
  outer loop
    vertex 308.44439942945854 775.9715783431873 7.097887
    vertex 310.1721898661718 772.6759290821612 7.097887
    vertex 309.9774863411751 773.0892024194736 7.097887
  endloop
endfacet
facet normal -0.0 -0.0 1.0
  outer loop
    vertex 308.44439942945854 775.9715783431873 7.097887
    vertex 309.9774863411751 773.0892024194736 7.097887
    vertex 308.44439942945854 776.5220258011954 7.097887
  endloop
endfacet
facet normal -0.0 -0.0 1.0
  outer loop
    vertex 308.44439942945854 776.5220258011954 7.097887
    vertex 309.9774863411751 773.0892024194736 7.097887
    vertex 309.89638018844084 773.5387867897181 7.097887
  endloop
endfacet
facet normal -0.0 -0.0 1.0
  outer loop
    vertex 311.27238146961804 771.9120250299802 7.097887
    vertex 314.8443994294585 770.7220258011953 7.097887
    vertex 311.72763844093566 771.8740065601773 7.097887
  endloop
endfacet
facet normal -0.0 -0.0 1.0
  outer loop
    vertex 311.72763844093566 771.8740065601773 7.097887
    vertex 314.8443994294585 770.7220258011953 7.097887
    vertex 312.1772228111801 771.9551127129117 7.097887
  endloop
endfacet
facet normal -0.0 -0.0 1.0
  outer loop
    vertex 312.1772228111801 771.9551127129117 7.097887
    vertex 314.8443994294585 770.7220258011953 7.097887
    vertex 312.59049614849243 772.1498162379083 7.097887
  endloop
endfacet
facet normal -0.0 -0.0 1.0
  outer loop
    vertex 312.59049614849243 772.1498162379083 7.097887
    vertex 314.8443994294585 770.7220258011953 7.097887
    vertex 312.93929455790146 772.4448484117016 7.097887
  endloop
endfacet
facet normal -0.0 -0.0 1.0
  outer loop
    vertex 312.93929455790146 772.4448484117016 7.097887
    vertex 314.8443994294585 770.7220258011953 7.097887
    vertex 313.1998480042224 772.8201032792115 7.097887
  endloop
endfacet
facet normal -0.0 -0.0 1.0
  outer loop
    vertex 313.1998480042224 772.8201032792115 7.097887
    vertex 314.8443994294585 770.7220258011953 7.097887
    vertex 313.3544002006736 773.2500078413547 7.097887
  endloop
endfacet
facet normal -0.0 -0.0 1.0
  outer loop
    vertex 313.3544002006736 773.2500078413547 7.097887
    vertex 314.8443994294585 770.7220258011953 7.097887
    vertex 313.3924186704763 773.7052648126721 7.097887
  endloop
endfacet
facet normal -0.0 -0.0 1.0
  outer loop
    vertex 313.3924186704763 773.7052648126721 7.097887
    vertex 314.8443994294585 770.7220258011953 7.097887
    vertex 314.12219842945854 776.5220258011952 7.097887
  endloop
endfacet
facet normal -0.0 -0.0 1.0
  outer loop
    vertex 314.12219842945854 776.5220258011952 7.097887
    vertex 314.8443994294585 770.7220258011953 7.097887
    vertex 314.8443994294585 771.6411638011951 7.097887
  endloop
endfacet
facet normal -0.0 -0.0 1.0
  outer loop
    vertex 314.8443994294585 776.5220258011954 7.097887
    vertex 314.12219842945854 776.5220258011952 7.097887
    vertex 314.8443994294585 771.6411638011951 7.097887
  endloop
endfacet
facet normal -0.6458083650825889 0.7634995452450211 -2.0549728093851932e-18
  outer loop
    vertex 312.59049614849243 772.1498162379083 7.097887
    vertex 312.93929455790146 772.4448484117016 1.9999999999999971
    vertex 312.59049614849243 772.1498162379083 1.9999999999999971
  endloop
endfacet
facet normal -0.6458083650825889 0.7634995452450211 -2.0549728093851932e-18
  outer loop
    vertex 312.93929455790146 772.4448484117016 1.9999999999999971
    vertex 312.59049614849243 772.1498162379083 7.097887
    vertex 312.93929455790146 772.4448484117016 7.097887
  endloop
endfacet
facet normal -0.1775366775157868 0.9841141845012984 4.778431725750562e-19
  outer loop
    vertex 311.72763844093566 771.8740065601773 7.097887
    vertex 312.1772228111801 771.9551127129117 1.9999999999999971
    vertex 311.72763844093566 771.8740065601773 1.9999999999999971
  endloop
endfacet
facet normal -0.1775366775157868 0.9841141845012984 4.778431725750562e-19
  outer loop
    vertex 312.1772228111801 771.9551127129117 1.9999999999999971
    vertex 311.72763844093566 771.8740065601773 7.097887
    vertex 312.1772228111801 771.9551127129117 7.097887
  endloop
endfacet
facet normal -0.984114184501336 -0.17753667751557825 -4.778431725799649e-19
  outer loop
    vertex 313.311312517742 774.1548491829167 7.097887
    vertex 313.3924186704763 773.7052648126721 1.9999999999999971
    vertex 313.3924186704763 773.7052648126721 7.097887
  endloop
endfacet
facet normal -0.984114184501336 -0.17753667751557825 -4.778431725799649e-19
  outer loop
    vertex 313.3924186704763 773.7052648126721 1.9999999999999971
    vertex 313.311312517742 774.1548491829167 7.097887
    vertex 313.311312517742 774.1548491829167 1.9999999999999971
  endloop
endfacet
facet normal -0.9410362227605256 0.338305819418766 -1.2664079909794197e-18
  outer loop
    vertex 313.3544002006736 773.2500078413547 7.097887
    vertex 313.1998480042224 772.8201032792115 1.9999999999999971
    vertex 313.1998480042224 772.8201032792115 7.097887
  endloop
endfacet
facet normal -0.9410362227605256 0.338305819418766 -1.2664079909794197e-18
  outer loop
    vertex 313.1998480042224 772.8201032792115 1.9999999999999971
    vertex 313.3544002006736 773.2500078413547 7.097887
    vertex 313.3544002006736 773.2500078413547 1.9999999999999971
  endloop
endfacet
facet normal -0.9965311801725016 0.083220231578632 -2.4394300104891294e-30
  outer loop
    vertex 313.3924186704763 773.7052648126721 7.097887
    vertex 313.3544002006736 773.2500078413547 1.9999999999999971
    vertex 313.3544002006736 773.2500078413547 7.097887
  endloop
endfacet
facet normal -0.9965311801725016 0.083220231578632 -2.4394300104891294e-30
  outer loop
    vertex 313.3544002006736 773.2500078413547 1.9999999999999971
    vertex 313.3924186704763 773.7052648126721 7.097887
    vertex 313.3924186704763 773.7052648126721 1.9999999999999971
  endloop
endfacet
facet normal 0.8214112019034137 -0.5703364247420897 -0.0
  outer loop
    vertex 310.34950430101566 774.7992031906886 1.9999999999999971
    vertex 310.08895085469464 774.4239483231788 7.097887
    vertex 310.08895085469464 774.4239483231788 1.9999999999999971
  endloop
endfacet
facet normal 0.8214112019034137 -0.5703364247420897 -0.0
  outer loop
    vertex 310.08895085469464 774.4239483231788 7.097887
    vertex 310.34950430101566 774.7992031906886 1.9999999999999971
    vertex 310.34950430101566 774.7992031906886 7.097887
  endloop
endfacet
facet normal 0.9046314334819776 0.4261947554303578 1.1072333265506745e-30
  outer loop
    vertex 309.9774863411751 773.0892024194736 1.9999999999999971
    vertex 310.1721898661718 772.6759290821612 7.097887
    vertex 310.1721898661718 772.6759290821612 1.9999999999999971
  endloop
endfacet
facet normal 0.9046314334819776 0.4261947554303578 1.1072333265506745e-30
  outer loop
    vertex 310.1721898661718 772.6759290821612 7.097887
    vertex 309.9774863411751 773.0892024194736 1.9999999999999971
    vertex 309.9774863411751 773.0892024194736 7.097887
  endloop
endfacet
facet normal 1.0 -1.6434196894052916e-15 1.9660346855325332e-15
  outer loop
    vertex 314.8443994294585 776.5220258011954 0.0
    vertex 314.8443994294585 770.7220258011953 7.097887
    vertex 314.8443994294585 770.7220258011953 0.0
  endloop
endfacet
facet normal 1.0 -1.6434196894052916e-15 1.9660346855325332e-15
  outer loop
    vertex 314.8443994294585 770.7220258011953 7.097887
    vertex 314.8443994294585 776.5220258011954 0.0
    vertex 314.8443994294585 771.6411638011951 7.097887
  endloop
endfacet
facet normal 1.0 -1.6434196894052916e-15 1.9660346855325332e-15
  outer loop
    vertex 314.8443994294585 771.6411638011951 7.097887
    vertex 314.8443994294585 776.5220258011954 0.0
    vertex 314.8443994294585 776.5220258011954 7.097887
  endloop
endfacet
facet normal 0.6458083650825889 -0.7634995452450211 2.054972809386774e-18
  outer loop
    vertex 310.6983027104246 775.094235364482 7.097887
    vertex 310.34950430101566 774.7992031906886 1.9999999999999971
    vertex 310.6983027104246 775.094235364482 1.9999999999999971
  endloop
endfacet
facet normal 0.6458083650825889 -0.7634995452450211 2.054972809386774e-18
  outer loop
    vertex 310.34950430101566 774.7992031906886 1.9999999999999971
    vertex 310.6983027104246 775.094235364482 7.097887
    vertex 310.34950430101566 774.7992031906886 7.097887
  endloop
endfacet
facet normal -0.08322023157880357 -0.9965311801724873 -1.0185829326386312e-31
  outer loop
    vertex 312.0164173892991 775.3320265724101 7.097887
    vertex 311.56116041798145 775.370045042213 1.9999999999999971
    vertex 312.0164173892991 775.3320265724101 1.9999999999999971
  endloop
endfacet
facet normal -0.08322023157880357 -0.9965311801724873 -1.0185829326386312e-31
  outer loop
    vertex 311.56116041798145 775.370045042213 1.9999999999999971
    vertex 312.0164173892991 775.3320265724101 7.097887
    vertex 311.56116041798145 775.370045042213 7.097887
  endloop
endfacet
facet normal 0.5703364247423155 0.821411201903257 -0.0
  outer loop
    vertex 310.46722203996507 772.3271306727522 7.097887
    vertex 310.84247690747475 772.0665772264311 1.9999999999999971
    vertex 310.46722203996507 772.3271306727522 1.9999999999999971
  endloop
endfacet
facet normal 0.5703364247423155 0.821411201903257 -0.0
  outer loop
    vertex 310.84247690747475 772.0665772264311 1.9999999999999971
    vertex 310.46722203996507 772.3271306727522 7.097887
    vertex 310.84247690747475 772.0665772264311 7.097887
  endloop
endfacet
facet normal -0.42619475543027696 0.9046314334820156 -0.0
  outer loop
    vertex 312.1772228111801 771.9551127129117 7.097887
    vertex 312.59049614849243 772.1498162379083 1.9999999999999971
    vertex 312.1772228111801 771.9551127129117 1.9999999999999971
  endloop
endfacet
facet normal -0.42619475543027696 0.9046314334820156 -0.0
  outer loop
    vertex 312.59049614849243 772.1498162379083 1.9999999999999971
    vertex 312.1772228111801 771.9551127129117 7.097887
    vertex 312.59049614849243 772.1498162379083 7.097887
  endloop
endfacet
facet normal 0.0 -1.0 0.0
  outer loop
    vertex 314.8443994294585 770.7220258011953 7.097887
    vertex 308.44439942945854 770.7220258011953 0.0
    vertex 314.8443994294585 770.7220258011953 0.0
  endloop
endfacet
facet normal 0.0 -1.0 0.0
  outer loop
    vertex 308.44439942945854 770.7220258011953 0.0
    vertex 314.8443994294585 770.7220258011953 7.097887
    vertex 308.44439942945854 770.7220258011953 6.499999999999999
  endloop
endfacet
facet normal 0.0 -1.0 0.0
  outer loop
    vertex 308.44439942945854 770.7220258011953 6.499999999999999
    vertex 314.8443994294585 770.7220258011953 7.097887
    vertex 308.44439942945854 770.7220258011953 7.097887
  endloop
endfacet
facet normal -0.7634995452450134 -0.6458083650825978 1.7382048733097067e-18
  outer loop
    vertex 312.821576818952 774.9169209296381 7.097887
    vertex 313.11660899274534 774.568122520229 1.9999999999999971
    vertex 313.11660899274534 774.568122520229 7.097887
  endloop
endfacet
facet normal -0.7634995452450134 -0.6458083650825978 1.7382048733097067e-18
  outer loop
    vertex 313.11660899274534 774.568122520229 1.9999999999999971
    vertex 312.821576818952 774.9169209296381 7.097887
    vertex 312.821576818952 774.9169209296381 1.9999999999999971
  endloop
endfacet
facet normal 0.984114184501336 0.17753667751557825 1.1400334459991792e-18
  outer loop
    vertex 309.89638018844084 773.5387867897181 1.9999999999999971
    vertex 309.9774863411751 773.0892024194736 7.097887
    vertex 309.9774863411751 773.0892024194736 1.9999999999999971
  endloop
endfacet
facet normal 0.984114184501336 0.17753667751557825 1.1400334459991792e-18
  outer loop
    vertex 309.9774863411751 773.0892024194736 7.097887
    vertex 309.89638018844084 773.5387867897181 1.9999999999999971
    vertex 309.89638018844084 773.5387867897181 7.097887
  endloop
endfacet
facet normal -0.9046314334820156 -0.42619475543027696 0.0
  outer loop
    vertex 313.11660899274534 774.568122520229 7.097887
    vertex 313.311312517742 774.1548491829167 1.9999999999999971
    vertex 313.311312517742 774.1548491829167 7.097887
  endloop
endfacet
facet normal -0.9046314334820156 -0.42619475543027696 0.0
  outer loop
    vertex 313.311312517742 774.1548491829167 1.9999999999999971
    vertex 313.11660899274534 774.568122520229 7.097887
    vertex 313.11660899274534 774.568122520229 1.9999999999999971
  endloop
endfacet
facet normal 0.9410362227605256 -0.338305819418766 1.2664079909794197e-18
  outer loop
    vertex 310.08895085469464 774.4239483231788 1.9999999999999971
    vertex 309.93439865824354 773.9940437610356 7.097887
    vertex 309.93439865824354 773.9940437610356 1.9999999999999971
  endloop
endfacet
facet normal 0.9410362227605256 -0.338305819418766 1.2664079909794197e-18
  outer loop
    vertex 309.93439865824354 773.9940437610356 7.097887
    vertex 310.08895085469464 774.4239483231788 1.9999999999999971
    vertex 310.08895085469464 774.4239483231788 7.097887
  endloop
endfacet
facet normal 0.7634995452450621 0.64580836508254 -1.738204873308617e-18
  outer loop
    vertex 310.1721898661718 772.6759290821612 1.9999999999999971
    vertex 310.46722203996507 772.3271306727522 7.097887
    vertex 310.46722203996507 772.3271306727522 1.9999999999999971
  endloop
endfacet
facet normal 0.7634995452450621 0.64580836508254 -1.738204873308617e-18
  outer loop
    vertex 310.46722203996507 772.3271306727522 7.097887
    vertex 310.1721898661718 772.6759290821612 1.9999999999999971
    vertex 310.1721898661718 772.6759290821612 7.097887
  endloop
endfacet
facet normal 0.9965311801725016 -0.083220231578632 -0.0
  outer loop
    vertex 309.93439865824354 773.9940437610356 1.9999999999999971
    vertex 309.89638018844084 773.5387867897181 7.097887
    vertex 309.89638018844084 773.5387867897181 1.9999999999999971
  endloop
endfacet
facet normal 0.9965311801725016 -0.083220231578632 -0.0
  outer loop
    vertex 309.89638018844084 773.5387867897181 7.097887
    vertex 309.93439865824354 773.9940437610356 1.9999999999999971
    vertex 309.93439865824354 773.9940437610356 7.097887
  endloop
endfacet
facet normal 0.33830581941847215 0.9410362227606311 -4.140730290394328e-31
  outer loop
    vertex 310.84247690747475 772.0665772264311 7.097887
    vertex 311.27238146961804 771.9120250299802 1.9999999999999971
    vertex 310.84247690747475 772.0665772264311 1.9999999999999971
  endloop
endfacet
facet normal 0.33830581941847215 0.9410362227606311 -4.140730290394328e-31
  outer loop
    vertex 311.27238146961804 771.9120250299802 1.9999999999999971
    vertex 310.84247690747475 772.0665772264311 7.097887
    vertex 311.27238146961804 771.9120250299802 7.097887
  endloop
endfacet
facet normal 0.08322023157880357 0.9965311801724873 -1.0185829326386312e-31
  outer loop
    vertex 311.27238146961804 771.9120250299802 7.097887
    vertex 311.72763844093566 771.8740065601773 1.9999999999999971
    vertex 311.27238146961804 771.9120250299802 1.9999999999999971
  endloop
endfacet
facet normal 0.08322023157880357 0.9965311801724873 -1.0185829326386312e-31
  outer loop
    vertex 311.72763844093566 771.8740065601773 1.9999999999999971
    vertex 311.27238146961804 771.9120250299802 7.097887
    vertex 311.72763844093566 771.8740065601773 7.097887
  endloop
endfacet
facet normal 0.42619475543027696 -0.9046314334820156 0.0
  outer loop
    vertex 311.111576047737 775.2889388894786 7.097887
    vertex 310.6983027104246 775.094235364482 1.9999999999999971
    vertex 311.111576047737 775.2889388894786 1.9999999999999971
  endloop
endfacet
facet normal 0.42619475543027696 -0.9046314334820156 0.0
  outer loop
    vertex 310.6983027104246 775.094235364482 1.9999999999999971
    vertex 311.111576047737 775.2889388894786 7.097887
    vertex 310.6983027104246 775.094235364482 7.097887
  endloop
endfacet
facet normal -0.8214112019034137 0.5703364247420897 0.0
  outer loop
    vertex 313.1998480042224 772.8201032792115 7.097887
    vertex 312.93929455790146 772.4448484117016 1.9999999999999971
    vertex 312.93929455790146 772.4448484117016 7.097887
  endloop
endfacet
facet normal -0.8214112019034137 0.5703364247420897 0.0
  outer loop
    vertex 312.93929455790146 772.4448484117016 1.9999999999999971
    vertex 313.1998480042224 772.8201032792115 7.097887
    vertex 313.1998480042224 772.8201032792115 1.9999999999999971
  endloop
endfacet
facet normal -0.5703364247423155 -0.821411201903257 0.0
  outer loop
    vertex 312.821576818952 774.9169209296381 7.097887
    vertex 312.44632195144237 775.1774743759592 1.9999999999999971
    vertex 312.821576818952 774.9169209296381 1.9999999999999971
  endloop
endfacet
facet normal -0.5703364247423155 -0.821411201903257 0.0
  outer loop
    vertex 312.44632195144237 775.1774743759592 1.9999999999999971
    vertex 312.821576818952 774.9169209296381 7.097887
    vertex 312.44632195144237 775.1774743759592 7.097887
  endloop
endfacet
endsolid Multibox-Sensor
