solid Multibox-Sensor
facet normal -0.984114184501336 -0.17753667751557825 4.778431725799649e-19
  outer loop
    vertex 327.946070483822 774.031380138456 7.097887
    vertex 328.02717663655625 773.5817957682116 1.9999999999999971
    vertex 328.02717663655625 773.5817957682116 7.097887
  endloop
endfacet
facet normal -0.984114184501336 -0.17753667751557825 4.778431725799649e-19
  outer loop
    vertex 328.02717663655625 773.5817957682116 1.9999999999999971
    vertex 327.946070483822 774.031380138456 7.097887
    vertex 327.946070483822 774.031380138456 1.9999999999999971
  endloop
endfacet
facet normal -0.9410362227605256 0.338305819418766 -1.2664079909794197e-18
  outer loop
    vertex 327.98915816675355 773.1265387968941 7.097887
    vertex 327.83460597030245 772.6966342347508 1.9999999999999971
    vertex 327.83460597030245 772.6966342347508 7.097887
  endloop
endfacet
facet normal -0.9410362227605256 0.338305819418766 -1.2664079909794197e-18
  outer loop
    vertex 327.83460597030245 772.6966342347508 1.9999999999999971
    vertex 327.98915816675355 773.1265387968941 7.097887
    vertex 327.98915816675355 773.1265387968941 1.9999999999999971
  endloop
endfacet
facet normal -1.690178279081316e-16 6.565540155517204e-17 1.0
  outer loop
    vertex 322.97915739553855 776.498556756735 7.097887
    vertex 325.746334013817 775.1654698450179 7.097887
    vertex 328.7569563955385 776.4985567567348 7.097887
  endloop
endfacet
facet normal -1.690178279081316e-16 6.565540155517204e-17 1.0
  outer loop
    vertex 325.746334013817 775.1654698450179 7.097887
    vertex 322.97915739553855 776.498556756735 7.097887
    vertex 325.3330606765046 774.9707663200213 7.097887
  endloop
endfacet
facet normal -1.690178279081316e-16 6.565540155517204e-17 1.0
  outer loop
    vertex 325.3330606765046 774.9707663200213 7.097887
    vertex 322.97915739553855 776.498556756735 7.097887
    vertex 324.98426226709563 774.675734146228 7.097887
  endloop
endfacet
facet normal -1.690178279081316e-16 6.565540155517204e-17 1.0
  outer loop
    vertex 324.98426226709563 774.675734146228 7.097887
    vertex 322.97915739553855 776.498556756735 7.097887
    vertex 324.7237088207747 774.3004792787183 7.097887
  endloop
endfacet
facet normal -1.690178279081316e-16 6.565540155517204e-17 1.0
  outer loop
    vertex 324.7237088207747 774.3004792787183 7.097887
    vertex 322.97915739553855 776.498556756735 7.097887
    vertex 324.5691566243235 773.8705747165751 7.097887
  endloop
endfacet
facet normal -1.690178279081316e-16 6.565540155517204e-17 1.0
  outer loop
    vertex 324.5691566243235 773.8705747165751 7.097887
    vertex 322.97915739553855 776.498556756735 7.097887
    vertex 324.5311381545208 773.4153177452575 7.097887
  endloop
endfacet
facet normal -1.690178279081316e-16 6.565540155517204e-17 1.0
  outer loop
    vertex 328.7569563955385 776.4985567567348 7.097887
    vertex 325.746334013817 775.1654698450179 7.097887
    vertex 326.19591838406143 775.2465759977523 7.097887
  endloop
endfacet
facet normal -1.690178279081316e-16 6.565540155517204e-17 1.0
  outer loop
    vertex 328.7569563955385 776.4985567567348 7.097887
    vertex 326.19591838406143 775.2465759977523 7.097887
    vertex 326.65117535537905 775.2085575279496 7.097887
  endloop
endfacet
facet normal -1.690178279081316e-16 6.565540155517204e-17 1.0
  outer loop
    vertex 328.7569563955385 776.4985567567348 7.097887
    vertex 326.65117535537905 775.2085575279496 7.097887
    vertex 327.08107991752235 775.0540053314985 7.097887
  endloop
endfacet
facet normal -1.690178279081316e-16 6.565540155517204e-17 1.0
  outer loop
    vertex 328.7569563955385 776.4985567567348 7.097887
    vertex 327.08107991752235 775.0540053314985 7.097887
    vertex 327.456334785032 774.7934518851774 7.097887
  endloop
endfacet
facet normal -1.690178279081316e-16 6.565540155517204e-17 1.0
  outer loop
    vertex 328.7569563955385 776.4985567567348 7.097887
    vertex 327.456334785032 774.7934518851774 7.097887
    vertex 327.7513669588254 774.4446534757684 7.097887
  endloop
endfacet
facet normal -1.690178279081316e-16 6.565540155517204e-17 1.0
  outer loop
    vertex 328.7569563955385 776.4985567567348 7.097887
    vertex 327.7513669588254 774.4446534757684 7.097887
    vertex 327.946070483822 774.031380138456 7.097887
  endloop
endfacet
facet normal -1.690178279081316e-16 6.565540155517204e-17 1.0
  outer loop
    vertex 328.7569563955385 776.4985567567348 7.097887
    vertex 327.946070483822 774.031380138456 7.097887
    vertex 328.02717663655625 773.5817957682116 7.097887
  endloop
endfacet
facet normal -1.690178279081316e-16 6.565540155517204e-17 1.0
  outer loop
    vertex 322.97915739553855 770.4985567567347 7.097887
    vertex 324.80694783225175 772.5524600377007 7.097887
    vertex 322.97915739553855 775.8481092987267 7.097887
  endloop
endfacet
facet normal -1.690178279081316e-16 6.565540155517204e-17 1.0
  outer loop
    vertex 324.80694783225175 772.5524600377007 7.097887
    vertex 322.97915739553855 770.4985567567347 7.097887
    vertex 325.1019800060451 772.2036616282917 7.097887
  endloop
endfacet
facet normal -1.690178279081316e-16 6.565540155517204e-17 1.0
  outer loop
    vertex 325.1019800060451 772.2036616282917 7.097887
    vertex 322.97915739553855 770.4985567567347 7.097887
    vertex 325.4772348735547 771.9431081819706 7.097887
  endloop
endfacet
facet normal -1.690178279081316e-16 6.565540155517204e-17 1.0
  outer loop
    vertex 325.4772348735547 771.9431081819706 7.097887
    vertex 322.97915739553855 770.4985567567347 7.097887
    vertex 325.907139435698 771.7885559855196 7.097887
  endloop
endfacet
facet normal -1.690178279081316e-16 6.565540155517204e-17 1.0
  outer loop
    vertex 325.907139435698 771.7885559855196 7.097887
    vertex 322.97915739553855 770.4985567567347 7.097887
    vertex 329.57915739553863 770.4985567567347 7.097887000000002
  endloop
endfacet
facet normal -1.690178279081316e-16 6.565540155517204e-17 1.0
  outer loop
    vertex 322.97915739553855 775.8481092987267 7.097887
    vertex 324.80694783225175 772.5524600377007 7.097887
    vertex 324.6122443072551 772.9657333750131 7.097887
  endloop
endfacet
facet normal -1.690178279081316e-16 6.565540155517204e-17 1.0
  outer loop
    vertex 322.97915739553855 775.8481092987267 7.097887
    vertex 324.6122443072551 772.9657333750131 7.097887
    vertex 322.97915739553855 776.498556756735 7.097887
  endloop
endfacet
facet normal -1.690178279081316e-16 6.565540155517204e-17 1.0
  outer loop
    vertex 322.97915739553855 776.498556756735 7.097887
    vertex 324.6122443072551 772.9657333750131 7.097887
    vertex 324.5311381545208 773.4153177452575 7.097887
  endloop
endfacet
facet normal -1.690178279081316e-16 6.565540155517204e-17 1.0
  outer loop
    vertex 325.907139435698 771.7885559855196 7.097887
    vertex 329.57915739553863 770.4985567567347 7.097887000000002
    vertex 326.36239640701564 771.7505375157168 7.097887
  endloop
endfacet
facet normal -1.690178279081316e-16 6.565540155517204e-17 1.0
  outer loop
    vertex 326.36239640701564 771.7505375157168 7.097887
    vertex 329.57915739553863 770.4985567567347 7.097887000000002
    vertex 326.8119807772601 771.8316436684512 7.097887
  endloop
endfacet
facet normal -1.690178279081316e-16 6.565540155517204e-17 1.0
  outer loop
    vertex 326.8119807772601 771.8316436684512 7.097887
    vertex 329.57915739553863 770.4985567567347 7.097887000000002
    vertex 327.22525411457246 772.0263471934478 7.097887
  endloop
endfacet
facet normal -1.690178279081316e-16 6.565540155517204e-17 1.0
  outer loop
    vertex 327.22525411457246 772.0263471934478 7.097887
    vertex 329.57915739553863 770.4985567567347 7.097887000000002
    vertex 327.57405252398144 772.3213793672411 7.097887
  endloop
endfacet
facet normal -1.690178279081316e-16 6.565540155517204e-17 1.0
  outer loop
    vertex 327.57405252398144 772.3213793672411 7.097887
    vertex 329.57915739553863 770.4985567567347 7.097887000000002
    vertex 327.83460597030245 772.6966342347508 7.097887
  endloop
endfacet
facet normal -1.690178279081316e-16 6.565540155517204e-17 1.0
  outer loop
    vertex 327.83460597030245 772.6966342347508 7.097887
    vertex 329.57915739553863 770.4985567567347 7.097887000000002
    vertex 327.98915816675355 773.1265387968941 7.097887
  endloop
endfacet
facet normal -1.690178279081316e-16 6.565540155517204e-17 1.0
  outer loop
    vertex 327.98915816675355 773.1265387968941 7.097887
    vertex 329.57915739553863 770.4985567567347 7.097887000000002
    vertex 328.02717663655625 773.5817957682116 7.097887
  endloop
endfacet
facet normal -1.690178279081316e-16 6.565540155517204e-17 1.0
  outer loop
    vertex 328.02717663655625 773.5817957682116 7.097887
    vertex 329.57915739553863 770.4985567567347 7.097887000000002
    vertex 328.7569563955385 776.4985567567348 7.097887
  endloop
endfacet
facet normal -1.690178279081316e-16 6.565540155517204e-17 1.0
  outer loop
    vertex 328.7569563955385 776.4985567567348 7.097887
    vertex 329.57915739553863 770.4985567567347 7.097887000000002
    vertex 329.5791573955386 771.5176947567346 7.097887000000002
  endloop
endfacet
facet normal -1.690178279081316e-16 6.565540155517204e-17 1.0
  outer loop
    vertex 329.57915739553863 776.498556756735 7.097887000000002
    vertex 328.7569563955385 776.4985567567348 7.097887
    vertex 329.5791573955386 771.5176947567346 7.097887000000002
  endloop
endfacet
facet normal -0.9046314334820156 -0.42619475543027696 0.0
  outer loop
    vertex 327.7513669588254 774.4446534757684 7.097887
    vertex 327.946070483822 774.031380138456 1.9999999999999971
    vertex 327.946070483822 774.031380138456 7.097887
  endloop
endfacet
facet normal -0.9046314334820156 -0.42619475543027696 0.0
  outer loop
    vertex 327.946070483822 774.031380138456 1.9999999999999971
    vertex 327.7513669588254 774.4446534757684 7.097887
    vertex 327.7513669588254 774.4446534757684 1.9999999999999971
  endloop
endfacet
facet normal 0.6458083650825889 -0.7634995452450211 -2.054972809386774e-18
  outer loop
    vertex 325.3330606765046 774.9707663200213 7.097887
    vertex 324.98426226709563 774.675734146228 1.9999999999999971
    vertex 325.3330606765046 774.9707663200213 1.9999999999999971
  endloop
endfacet
facet normal 0.6458083650825889 -0.7634995452450211 -2.054972809386774e-18
  outer loop
    vertex 324.98426226709563 774.675734146228 1.9999999999999971
    vertex 325.3330606765046 774.9707663200213 7.097887
    vertex 324.98426226709563 774.675734146228 7.097887
  endloop
endfacet
facet normal -8.842337070488096e-19 9.303264288159735e-17 -1.0
  outer loop
    vertex 329.57915739553863 776.498556756735 9.669458218625312e-16
    vertex 329.5791573955386 770.6985567567347 0.0
    vertex 329.23361639553855 776.4985567567348 0.0
  endloop
endfacet
facet normal -8.842337070488096e-19 9.303264288159735e-17 -1.0
  outer loop
    vertex 329.23361639553855 776.4985567567348 0.0
    vertex 322.97915739553855 771.3360247567347 0.0
    vertex 322.97915739553855 776.498556756735 7.705660936707891e-16
  endloop
endfacet
facet normal -8.842337070488096e-19 9.303264288159735e-17 -1.0
  outer loop
    vertex 322.97915739553855 771.3360247567347 0.0
    vertex 329.23361639553855 776.4985567567348 0.0
    vertex 322.97915739553855 770.5985567567346 0.0
  endloop
endfacet
facet normal -8.842337070488096e-19 9.303264288159735e-17 -1.0
  outer loop
    vertex 322.97915739553855 770.5985567567346 0.0
    vertex 329.23361639553855 776.4985567567348 0.0
    vertex 322.97915739553855 770.4985567567347 0.0
  endloop
endfacet
facet normal -8.842337070488096e-19 9.303264288159735e-17 -1.0
  outer loop
    vertex 322.97915739553855 770.4985567567347 0.0
    vertex 329.23361639553855 776.4985567567348 0.0
    vertex 323.86207739553856 770.4985567567347 0.0
  endloop
endfacet
facet normal -8.842337070488096e-19 9.303264288159735e-17 -1.0
  outer loop
    vertex 323.86207739553856 770.4985567567347 0.0
    vertex 329.23361639553855 776.4985567567348 0.0
    vertex 329.57915739553863 770.4985567567347 1.96379728191742e-16
  endloop
endfacet
facet normal -8.842337070488096e-19 9.303264288159735e-17 -1.0
  outer loop
    vertex 329.57915739553863 770.4985567567347 1.96379728191742e-16
    vertex 329.23361639553855 776.4985567567348 0.0
    vertex 329.5791573955386 770.6985567567347 0.0
  endloop
endfacet
facet normal 0.5703364247423155 0.821411201903257 -0.0
  outer loop
    vertex 325.1019800060451 772.2036616282917 7.097887
    vertex 325.4772348735547 771.9431081819706 1.9999999999999971
    vertex 325.1019800060451 772.2036616282917 1.9999999999999971
  endloop
endfacet
facet normal 0.5703364247423155 0.821411201903257 -0.0
  outer loop
    vertex 325.4772348735547 771.9431081819706 1.9999999999999971
    vertex 325.1019800060451 772.2036616282917 7.097887
    vertex 325.4772348735547 771.9431081819706 7.097887
  endloop
endfacet
facet normal -0.7634995452450134 -0.6458083650825978 -1.7382048733097067e-18
  outer loop
    vertex 327.456334785032 774.7934518851774 7.097887
    vertex 327.7513669588254 774.4446534757684 1.9999999999999971
    vertex 327.7513669588254 774.4446534757684 7.097887
  endloop
endfacet
facet normal -0.7634995452450134 -0.6458083650825978 -1.7382048733097067e-18
  outer loop
    vertex 327.7513669588254 774.4446534757684 1.9999999999999971
    vertex 327.456334785032 774.7934518851774 7.097887
    vertex 327.456334785032 774.7934518851774 1.9999999999999971
  endloop
endfacet
facet normal 0.9410362227605256 -0.338305819418766 -1.2664079909794197e-18
  outer loop
    vertex 324.7237088207747 774.3004792787183 1.9999999999999971
    vertex 324.5691566243235 773.8705747165751 7.097887
    vertex 324.5691566243235 773.8705747165751 1.9999999999999971
  endloop
endfacet
facet normal 0.9410362227605256 -0.338305819418766 -1.2664079909794197e-18
  outer loop
    vertex 324.5691566243235 773.8705747165751 7.097887
    vertex 324.7237088207747 774.3004792787183 1.9999999999999971
    vertex 324.7237088207747 774.3004792787183 7.097887
  endloop
endfacet
facet normal -0.8214112019034137 0.5703364247420897 0.0
  outer loop
    vertex 327.83460597030245 772.6966342347508 7.097887
    vertex 327.57405252398144 772.3213793672411 1.9999999999999971
    vertex 327.57405252398144 772.3213793672411 7.097887
  endloop
endfacet
facet normal -0.8214112019034137 0.5703364247420897 0.0
  outer loop
    vertex 327.57405252398144 772.3213793672411 1.9999999999999971
    vertex 327.83460597030245 772.6966342347508 7.097887
    vertex 327.83460597030245 772.6966342347508 1.9999999999999971
  endloop
endfacet
facet normal -0.9965311801725016 0.083220231578632 0.0
  outer loop
    vertex 328.02717663655625 773.5817957682116 7.097887
    vertex 327.98915816675355 773.1265387968941 1.9999999999999971
    vertex 327.98915816675355 773.1265387968941 7.097887
  endloop
endfacet
facet normal -0.9965311801725016 0.083220231578632 0.0
  outer loop
    vertex 327.98915816675355 773.1265387968941 1.9999999999999971
    vertex 328.02717663655625 773.5817957682116 7.097887
    vertex 328.02717663655625 773.5817957682116 1.9999999999999971
  endloop
endfacet
facet normal 0.33830581941847215 0.9410362227606311 4.140730290394328e-31
  outer loop
    vertex 325.4772348735547 771.9431081819706 7.097887
    vertex 325.907139435698 771.7885559855196 1.9999999999999971
    vertex 325.4772348735547 771.9431081819706 1.9999999999999971
  endloop
endfacet
facet normal 0.33830581941847215 0.9410362227606311 4.140730290394328e-31
  outer loop
    vertex 325.907139435698 771.7885559855196 1.9999999999999971
    vertex 325.4772348735547 771.9431081819706 7.097887
    vertex 325.907139435698 771.7885559855196 7.097887
  endloop
endfacet
facet normal 0.9046314334819776 0.4261947554303578 -1.1072333265506745e-30
  outer loop
    vertex 324.6122443072551 772.9657333750131 1.9999999999999971
    vertex 324.80694783225175 772.5524600377007 7.097887
    vertex 324.80694783225175 772.5524600377007 1.9999999999999971
  endloop
endfacet
facet normal 0.9046314334819776 0.4261947554303578 -1.1072333265506745e-30
  outer loop
    vertex 324.80694783225175 772.5524600377007 7.097887
    vertex 324.6122443072551 772.9657333750131 1.9999999999999971
    vertex 324.6122443072551 772.9657333750131 7.097887
  endloop
endfacet
facet normal 1.2223199806813348e-14 1.0 2.736171304650599e-16
  outer loop
    vertex 322.97915739553855 776.498556756735 7.705660936707891e-16
    vertex 329.57915739553863 776.498556756735 9.669458218625312e-16
    vertex 329.23361639553855 776.4985567567348 0.0
  endloop
endfacet
facet normal 1.2223199806813348e-14 1.0 2.736171304650599e-16
  outer loop
    vertex 329.57915739553863 776.498556756735 9.669458218625312e-16
    vertex 322.97915739553855 776.498556756735 7.705660936707891e-16
    vertex 322.97915739553855 776.498556756735 7.097887
  endloop
endfacet
facet normal 1.2223199806813348e-14 1.0 2.736171304650599e-16
  outer loop
    vertex 329.57915739553863 776.498556756735 9.669458218625312e-16
    vertex 322.97915739553855 776.498556756735 7.097887
    vertex 328.7569563955385 776.4985567567348 7.097887
  endloop
endfacet
facet normal 1.2223199806813348e-14 1.0 2.736171304650599e-16
  outer loop
    vertex 329.57915739553863 776.498556756735 9.669458218625312e-16
    vertex 328.7569563955385 776.4985567567348 7.097887
    vertex 329.57915739553863 776.498556756735 7.097887000000002
  endloop
endfacet
facet normal -0.5703364247423155 -0.821411201903257 0.0
  outer loop
    vertex 327.456334785032 774.7934518851774 7.097887
    vertex 327.08107991752235 775.0540053314985 1.9999999999999971
    vertex 327.456334785032 774.7934518851774 1.9999999999999971
  endloop
endfacet
facet normal -0.5703364247423155 -0.821411201903257 0.0
  outer loop
    vertex 327.08107991752235 775.0540053314985 1.9999999999999971
    vertex 327.456334785032 774.7934518851774 7.097887
    vertex 327.08107991752235 775.0540053314985 7.097887
  endloop
endfacet
facet normal -0.6458083650825889 0.7634995452450211 2.0549728093851932e-18
  outer loop
    vertex 327.22525411457246 772.0263471934478 7.097887
    vertex 327.57405252398144 772.3213793672411 1.9999999999999971
    vertex 327.22525411457246 772.0263471934478 1.9999999999999971
  endloop
endfacet
facet normal -0.6458083650825889 0.7634995452450211 2.0549728093851932e-18
  outer loop
    vertex 327.57405252398144 772.3213793672411 1.9999999999999971
    vertex 327.22525411457246 772.0263471934478 7.097887
    vertex 327.57405252398144 772.3213793672411 7.097887
  endloop
endfacet
facet normal 0.08322023157880357 0.9965311801724873 1.0185829326386312e-31
  outer loop
    vertex 325.907139435698 771.7885559855196 7.097887
    vertex 326.36239640701564 771.7505375157168 1.9999999999999971
    vertex 325.907139435698 771.7885559855196 1.9999999999999971
  endloop
endfacet
facet normal 0.08322023157880357 0.9965311801724873 1.0185829326386312e-31
  outer loop
    vertex 326.36239640701564 771.7505375157168 1.9999999999999971
    vertex 325.907139435698 771.7885559855196 7.097887
    vertex 326.36239640701564 771.7505375157168 7.097887
  endloop
endfacet
facet normal -0.08322023157880357 -0.9965311801724873 1.0185829326386312e-31
  outer loop
    vertex 326.65117535537905 775.2085575279496 7.097887
    vertex 326.19591838406143 775.2465759977523 1.9999999999999971
    vertex 326.65117535537905 775.2085575279496 1.9999999999999971
  endloop
endfacet
facet normal -0.08322023157880357 -0.9965311801724873 1.0185829326386312e-31
  outer loop
    vertex 326.19591838406143 775.2465759977523 1.9999999999999971
    vertex 326.65117535537905 775.2085575279496 7.097887
    vertex 326.19591838406143 775.2465759977523 7.097887
  endloop
endfacet
facet normal -1.0 0.0 0.0
  outer loop
    vertex 322.97915739553855 775.8481092987267 7.097887
    vertex 322.97915739553855 770.4985567567347 0.0
    vertex 322.97915739553855 770.4985567567347 7.097887
  endloop
endfacet
facet normal -1.0 0.0 0.0
  outer loop
    vertex 322.97915739553855 770.4985567567347 0.0
    vertex 322.97915739553855 775.8481092987267 7.097887
    vertex 322.97915739553855 770.5985567567346 0.0
  endloop
endfacet
facet normal -1.0 0.0 0.0
  outer loop
    vertex 322.97915739553855 770.5985567567346 0.0
    vertex 322.97915739553855 775.8481092987267 7.097887
    vertex 322.97915739553855 771.3360247567347 0.0
  endloop
endfacet
facet normal -1.0 0.0 0.0
  outer loop
    vertex 322.97915739553855 771.3360247567347 0.0
    vertex 322.97915739553855 775.8481092987267 7.097887
    vertex 322.97915739553855 776.498556756735 7.705660936707891e-16
  endloop
endfacet
facet normal -1.0 0.0 0.0
  outer loop
    vertex 322.97915739553855 776.498556756735 7.705660936707891e-16
    vertex 322.97915739553855 775.8481092987267 7.097887
    vertex 322.97915739553855 776.498556756735 7.097887
  endloop
endfacet
facet normal 0.984114184501336 0.17753667751557825 -4.778431725799649e-19
  outer loop
    vertex 324.5311381545208 773.4153177452575 1.9999999999999971
    vertex 324.6122443072551 772.9657333750131 7.097887
    vertex 324.6122443072551 772.9657333750131 1.9999999999999971
  endloop
endfacet
facet normal 0.984114184501336 0.17753667751557825 -4.778431725799649e-19
  outer loop
    vertex 324.6122443072551 772.9657333750131 7.097887
    vertex 324.5311381545208 773.4153177452575 1.9999999999999971
    vertex 324.5311381545208 773.4153177452575 7.097887
  endloop
endfacet
facet normal -0.42619475543027696 0.9046314334820156 -0.0
  outer loop
    vertex 326.8119807772601 771.8316436684512 7.097887
    vertex 327.22525411457246 772.0263471934478 1.9999999999999971
    vertex 326.8119807772601 771.8316436684512 1.9999999999999971
  endloop
endfacet
facet normal -0.42619475543027696 0.9046314334820156 -0.0
  outer loop
    vertex 327.22525411457246 772.0263471934478 1.9999999999999971
    vertex 326.8119807772601 771.8316436684512 7.097887
    vertex 327.22525411457246 772.0263471934478 7.097887
  endloop
endfacet
facet normal 1.0 -3.2800702328515303e-15 1.2617981334432472e-16
  outer loop
    vertex 329.5791573955386 770.6985567567347 0.0
    vertex 329.57915739553863 770.4985567567347 7.097887000000002
    vertex 329.57915739553863 770.4985567567347 1.96379728191742e-16
  endloop
endfacet
facet normal 1.0 -3.2800702328515303e-15 1.2617981334432472e-16
  outer loop
    vertex 329.57915739553863 770.4985567567347 7.097887000000002
    vertex 329.5791573955386 770.6985567567347 0.0
    vertex 329.5791573955386 771.5176947567346 7.097887000000002
  endloop
endfacet
facet normal 1.0 -3.2800702328515303e-15 1.2617981334432472e-16
  outer loop
    vertex 329.5791573955386 771.5176947567346 7.097887000000002
    vertex 329.5791573955386 770.6985567567347 0.0
    vertex 329.57915739553863 776.498556756735 9.669458218625312e-16
  endloop
endfacet
facet normal 1.0 -3.2800702328515303e-15 1.2617981334432472e-16
  outer loop
    vertex 329.5791573955386 771.5176947567346 7.097887000000002
    vertex 329.57915739553863 776.498556756735 9.669458218625312e-16
    vertex 329.57915739553863 776.498556756735 7.097887000000002
  endloop
endfacet
facet normal 0.7634995452450621 0.64580836508254 1.738204873308617e-18
  outer loop
    vertex 324.80694783225175 772.5524600377007 1.9999999999999971
    vertex 325.1019800060451 772.2036616282917 7.097887
    vertex 325.1019800060451 772.2036616282917 1.9999999999999971
  endloop
endfacet
facet normal 0.7634995452450621 0.64580836508254 1.738204873308617e-18
  outer loop
    vertex 325.1019800060451 772.2036616282917 7.097887
    vertex 324.80694783225175 772.5524600377007 1.9999999999999971
    vertex 324.80694783225175 772.5524600377007 7.097887
  endloop
endfacet
facet normal 0.8214112019034137 -0.5703364247420897 -0.0
  outer loop
    vertex 324.98426226709563 774.675734146228 1.9999999999999971
    vertex 324.7237088207747 774.3004792787183 7.097887
    vertex 324.7237088207747 774.3004792787183 1.9999999999999971
  endloop
endfacet
facet normal 0.8214112019034137 -0.5703364247420897 -0.0
  outer loop
    vertex 324.7237088207747 774.3004792787183 7.097887
    vertex 324.98426226709563 774.675734146228 1.9999999999999971
    vertex 324.98426226709563 774.675734146228 7.097887
  endloop
endfacet
facet normal -0.1775366775157868 0.9841141845012984 4.778431725846923e-19
  outer loop
    vertex 326.36239640701564 771.7505375157168 7.097887
    vertex 326.8119807772601 771.8316436684512 1.9999999999999971
    vertex 326.36239640701564 771.7505375157168 1.9999999999999971
  endloop
endfacet
facet normal -0.1775366775157868 0.9841141845012984 4.778431725846923e-19
  outer loop
    vertex 326.8119807772601 771.8316436684512 1.9999999999999971
    vertex 326.36239640701564 771.7505375157168 7.097887
    vertex 326.8119807772601 771.8316436684512 7.097887
  endloop
endfacet
facet normal -0.0 -0.0 1.0
  outer loop
    vertex 324.6122443072551 772.9657333750131 1.9999999999999971
    vertex 324.5691566243235 773.8705747165751 1.9999999999999971
    vertex 324.5311381545208 773.4153177452575 1.9999999999999971
  endloop
endfacet
facet normal -0.0 -0.0 1.0
  outer loop
    vertex 324.5691566243235 773.8705747165751 1.9999999999999971
    vertex 324.6122443072551 772.9657333750131 1.9999999999999971
    vertex 324.7237088207747 774.3004792787183 1.9999999999999971
  endloop
endfacet
facet normal -0.0 -0.0 1.0
  outer loop
    vertex 324.7237088207747 774.3004792787183 1.9999999999999971
    vertex 324.6122443072551 772.9657333750131 1.9999999999999971
    vertex 324.80694783225175 772.5524600377007 1.9999999999999971
  endloop
endfacet
facet normal -0.0 -0.0 1.0
  outer loop
    vertex 324.7237088207747 774.3004792787183 1.9999999999999971
    vertex 324.80694783225175 772.5524600377007 1.9999999999999971
    vertex 324.98426226709563 774.675734146228 1.9999999999999971
  endloop
endfacet
facet normal -0.0 -0.0 1.0
  outer loop
    vertex 324.98426226709563 774.675734146228 1.9999999999999971
    vertex 324.80694783225175 772.5524600377007 1.9999999999999971
    vertex 325.1019800060451 772.2036616282917 1.9999999999999971
  endloop
endfacet
facet normal -0.0 -0.0 1.0
  outer loop
    vertex 324.98426226709563 774.675734146228 1.9999999999999971
    vertex 325.1019800060451 772.2036616282917 1.9999999999999971
    vertex 325.3330606765046 774.9707663200213 1.9999999999999971
  endloop
endfacet
facet normal -0.0 -0.0 1.0
  outer loop
    vertex 325.3330606765046 774.9707663200213 1.9999999999999971
    vertex 325.1019800060451 772.2036616282917 1.9999999999999971
    vertex 325.4772348735547 771.9431081819706 1.9999999999999971
  endloop
endfacet
facet normal -0.0 -0.0 1.0
  outer loop
    vertex 325.3330606765046 774.9707663200213 1.9999999999999971
    vertex 325.4772348735547 771.9431081819706 1.9999999999999971
    vertex 325.746334013817 775.1654698450179 1.9999999999999971
  endloop
endfacet
facet normal -0.0 -0.0 1.0
  outer loop
    vertex 325.746334013817 775.1654698450179 1.9999999999999971
    vertex 325.4772348735547 771.9431081819706 1.9999999999999971
    vertex 325.907139435698 771.7885559855196 1.9999999999999971
  endloop
endfacet
facet normal -0.0 -0.0 1.0
  outer loop
    vertex 325.746334013817 775.1654698450179 1.9999999999999971
    vertex 325.907139435698 771.7885559855196 1.9999999999999971
    vertex 326.19591838406143 775.2465759977523 1.9999999999999971
  endloop
endfacet
facet normal -0.0 -0.0 1.0
  outer loop
    vertex 326.19591838406143 775.2465759977523 1.9999999999999971
    vertex 325.907139435698 771.7885559855196 1.9999999999999971
    vertex 326.36239640701564 771.7505375157168 1.9999999999999971
  endloop
endfacet
facet normal -0.0 -0.0 1.0
  outer loop
    vertex 326.19591838406143 775.2465759977523 1.9999999999999971
    vertex 326.36239640701564 771.7505375157168 1.9999999999999971
    vertex 326.65117535537905 775.2085575279496 1.9999999999999971
  endloop
endfacet
facet normal -0.0 -0.0 1.0
  outer loop
    vertex 326.65117535537905 775.2085575279496 1.9999999999999971
    vertex 326.36239640701564 771.7505375157168 1.9999999999999971
    vertex 326.8119807772601 771.8316436684512 1.9999999999999971
  endloop
endfacet
facet normal -0.0 -0.0 1.0
  outer loop
    vertex 326.65117535537905 775.2085575279496 1.9999999999999971
    vertex 326.8119807772601 771.8316436684512 1.9999999999999971
    vertex 327.08107991752235 775.0540053314985 1.9999999999999971
  endloop
endfacet
facet normal -0.0 -0.0 1.0
  outer loop
    vertex 327.08107991752235 775.0540053314985 1.9999999999999971
    vertex 326.8119807772601 771.8316436684512 1.9999999999999971
    vertex 327.22525411457246 772.0263471934478 1.9999999999999971
  endloop
endfacet
facet normal -0.0 -0.0 1.0
  outer loop
    vertex 327.08107991752235 775.0540053314985 1.9999999999999971
    vertex 327.22525411457246 772.0263471934478 1.9999999999999971
    vertex 327.456334785032 774.7934518851774 1.9999999999999971
  endloop
endfacet
facet normal -0.0 -0.0 1.0
  outer loop
    vertex 327.456334785032 774.7934518851774 1.9999999999999971
    vertex 327.22525411457246 772.0263471934478 1.9999999999999971
    vertex 327.57405252398144 772.3213793672411 1.9999999999999971
  endloop
endfacet
facet normal -0.0 -0.0 1.0
  outer loop
    vertex 327.456334785032 774.7934518851774 1.9999999999999971
    vertex 327.57405252398144 772.3213793672411 1.9999999999999971
    vertex 327.7513669588254 774.4446534757684 1.9999999999999971
  endloop
endfacet
facet normal -0.0 -0.0 1.0
  outer loop
    vertex 327.7513669588254 774.4446534757684 1.9999999999999971
    vertex 327.57405252398144 772.3213793672411 1.9999999999999971
    vertex 327.83460597030245 772.6966342347508 1.9999999999999971
  endloop
endfacet
facet normal -0.0 -0.0 1.0
  outer loop
    vertex 327.7513669588254 774.4446534757684 1.9999999999999971
    vertex 327.83460597030245 772.6966342347508 1.9999999999999971
    vertex 327.946070483822 774.031380138456 1.9999999999999971
  endloop
endfacet
facet normal -0.0 -0.0 1.0
  outer loop
    vertex 327.946070483822 774.031380138456 1.9999999999999971
    vertex 327.83460597030245 772.6966342347508 1.9999999999999971
    vertex 327.98915816675355 773.1265387968941 1.9999999999999971
  endloop
endfacet
facet normal -0.0 -0.0 1.0
  outer loop
    vertex 327.946070483822 774.031380138456 1.9999999999999971
    vertex 327.98915816675355 773.1265387968941 1.9999999999999971
    vertex 328.02717663655625 773.5817957682116 1.9999999999999971
  endloop
endfacet
facet normal -0.33830581941847215 -0.9410362227606311 4.140730290394328e-31
  outer loop
    vertex 327.08107991752235 775.0540053314985 7.097887
    vertex 326.65117535537905 775.2085575279496 1.9999999999999971
    vertex 327.08107991752235 775.0540053314985 1.9999999999999971
  endloop
endfacet
facet normal -0.33830581941847215 -0.9410362227606311 4.140730290394328e-31
  outer loop
    vertex 326.65117535537905 775.2085575279496 1.9999999999999971
    vertex 327.08107991752235 775.0540053314985 7.097887
    vertex 326.65117535537905 775.2085575279496 7.097887
  endloop
endfacet
facet normal 0.0 -1.0 0.0
  outer loop
    vertex 329.57915739553863 770.4985567567347 1.96379728191742e-16
    vertex 322.97915739553855 770.4985567567347 0.0
    vertex 323.86207739553856 770.4985567567347 0.0
  endloop
endfacet
facet normal 0.0 -1.0 0.0
  outer loop
    vertex 322.97915739553855 770.4985567567347 0.0
    vertex 329.57915739553863 770.4985567567347 1.96379728191742e-16
    vertex 322.97915739553855 770.4985567567347 7.097887
  endloop
endfacet
facet normal 0.0 -1.0 0.0
  outer loop
    vertex 322.97915739553855 770.4985567567347 7.097887
    vertex 329.57915739553863 770.4985567567347 1.96379728191742e-16
    vertex 329.57915739553863 770.4985567567347 7.097887000000002
  endloop
endfacet
facet normal 0.1775366775157868 -0.9841141845012984 4.778431725750562e-19
  outer loop
    vertex 326.19591838406143 775.2465759977523 7.097887
    vertex 325.746334013817 775.1654698450179 1.9999999999999971
    vertex 326.19591838406143 775.2465759977523 1.9999999999999971
  endloop
endfacet
facet normal 0.1775366775157868 -0.9841141845012984 4.778431725750562e-19
  outer loop
    vertex 325.746334013817 775.1654698450179 1.9999999999999971
    vertex 326.19591838406143 775.2465759977523 7.097887
    vertex 325.746334013817 775.1654698450179 7.097887
  endloop
endfacet
facet normal 0.9965311801725016 -0.083220231578632 -0.0
  outer loop
    vertex 324.5691566243235 773.8705747165751 1.9999999999999971
    vertex 324.5311381545208 773.4153177452575 7.097887
    vertex 324.5311381545208 773.4153177452575 1.9999999999999971
  endloop
endfacet
facet normal 0.9965311801725016 -0.083220231578632 -0.0
  outer loop
    vertex 324.5311381545208 773.4153177452575 7.097887
    vertex 324.5691566243235 773.8705747165751 1.9999999999999971
    vertex 324.5691566243235 773.8705747165751 7.097887
  endloop
endfacet
facet normal 0.42619475543027696 -0.9046314334820156 0.0
  outer loop
    vertex 325.746334013817 775.1654698450179 7.097887
    vertex 325.3330606765046 774.9707663200213 1.9999999999999971
    vertex 325.746334013817 775.1654698450179 1.9999999999999971
  endloop
endfacet
facet normal 0.42619475543027696 -0.9046314334820156 0.0
  outer loop
    vertex 325.3330606765046 774.9707663200213 1.9999999999999971
    vertex 325.746334013817 775.1654698450179 7.097887
    vertex 325.3330606765046 774.9707663200213 7.097887
  endloop
endfacet
endsolid Multibox-Sensor
