solid Multibox-Sensor
facet normal 8.358885722887087e-14 -3.2671191493842366e-11 -1.0
  outer loop
    vertex 518.7771587326287 789.2515947742442 8.459899447643692e-15
    vertex 485.2771587326287 788.5015947742447 1.6299378069462022e-09
    vertex 485.2771587326287 789.2515947742442 8.459899447643692e-15
  endloop
endfacet
facet normal 8.358885722887087e-14 -3.2671191493842366e-11 -1.0
  outer loop
    vertex 485.2771587326287 788.5015947742447 1.6299378069462022e-09
    vertex 518.7771587326287 789.2515947742442 8.459899447643692e-15
    vertex 502.02715873262883 788.0015947742448 1.6330736096747954e-09
  endloop
endfacet
facet normal 8.358885722887087e-14 -3.2671191493842366e-11 -1.0
  outer loop
    vertex 485.2771587326287 788.5015947742447 1.6299378069462022e-09
    vertex 502.02715873262883 788.0015947742448 1.6330736096747954e-09
    vertex 498.9860349526743 787.6012232331415 1.6320922613388688e-09
  endloop
endfacet
facet normal 8.358885722887087e-14 -3.2671191493842366e-11 -1.0
  outer loop
    vertex 485.2771587326287 788.5015947742447 1.6299378069462022e-09
    vertex 498.9860349526743 787.6012232331415 1.6320922613388688e-09
    vertex 496.15215873262866 786.4273932687119 1.632284019059682e-09
  endloop
endfacet
facet normal 8.358885722887087e-14 -3.2671191493842366e-11 -1.0
  outer loop
    vertex 485.2771587326287 788.5015947742447 1.6299378069462022e-09
    vertex 496.15215873262866 786.4273932687119 1.632284019059682e-09
    vertex 493.718654053687 784.5600994531873 1.6314267492489874e-09
  endloop
endfacet
facet normal 8.358885722887087e-14 -3.2671191493842366e-11 -1.0
  outer loop
    vertex 485.2771587326287 788.5015947742447 1.6299378069462022e-09
    vertex 493.718654053687 784.5600994531873 1.6314267492489874e-09
    vertex 491.8513602381615 782.1265947742451 1.6314944284445685e-09
  endloop
endfacet
facet normal 8.358885722887087e-14 -3.2671191493842366e-11 -1.0
  outer loop
    vertex 485.2771587326287 788.5015947742447 1.6299378069462022e-09
    vertex 491.8513602381615 782.1265947742451 1.6314944284445685e-09
    vertex 490.67753027373203 779.2927185541994 1.6312011519303836e-09
  endloop
endfacet
facet normal 8.358885722887087e-14 -3.2671191493842366e-11 -1.0
  outer loop
    vertex 485.2771587326287 788.5015947742447 1.6299378069462022e-09
    vertex 490.67753027373203 779.2927185541994 1.6312011519303836e-09
    vertex 490.2771587326287 776.2515947742451 1.6312237116622441e-09
  endloop
endfacet
facet normal 8.358885722887087e-14 -3.2671191493842366e-11 -1.0
  outer loop
    vertex 502.02715873262883 788.0015947742448 1.6330736096747954e-09
    vertex 518.7771587326287 789.2515947742442 8.459899447643692e-15
    vertex 505.0682825125835 787.6012232331415 1.6332540875296786e-09
  endloop
endfacet
facet normal 8.358885722887087e-14 -3.2671191493842366e-11 -1.0
  outer loop
    vertex 505.0682825125835 787.6012232331415 1.6332540875296786e-09
    vertex 518.7771587326287 789.2515947742442 8.459899447643692e-15
    vertex 507.9021587326286 786.4273932687119 1.63393087948549e-09
  endloop
endfacet
facet normal 8.358885722887087e-14 -3.2671191493842366e-11 -1.0
  outer loop
    vertex 507.9021587326286 786.4273932687119 1.63393087948549e-09
    vertex 518.7771587326287 789.2515947742442 8.459899447643692e-15
    vertex 510.33566341157075 784.5600994531865 1.634336954658977e-09
  endloop
endfacet
facet normal 8.358885722887087e-14 -3.2671191493842366e-11 -1.0
  outer loop
    vertex 510.33566341157075 784.5600994531865 1.634336954658977e-09
    vertex 518.7771587326287 789.2515947742442 8.459899447643692e-15
    vertex 512.2029572270959 782.1265947742447 1.6346753506368827e-09
  endloop
endfacet
facet normal 8.358885722887087e-14 -3.2671191493842366e-11 -1.0
  outer loop
    vertex 512.2029572270959 782.1265947742447 1.6346753506368827e-09
    vertex 518.7771587326287 789.2515947742442 8.459899447643692e-15
    vertex 513.3767871915251 779.2927185541997 1.6350588660785093e-09
  endloop
endfacet
facet normal 8.358885722887087e-14 -3.2671191493842366e-11 -1.0
  outer loop
    vertex 513.3767871915251 779.2927185541997 1.6350588660785093e-09
    vertex 518.7771587326287 789.2515947742442 8.459899447643692e-15
    vertex 513.7771587326287 776.2515947742454 1.6356228593750188e-09
  endloop
endfacet
facet normal 8.358885722887087e-14 -3.2671191493842366e-11 -1.0
  outer loop
    vertex 485.2771587326287 788.5015947742447 1.6299378069462022e-09
    vertex 485.2771587326286 763.2515947742454 1.603229904389991e-09
    vertex 485.2771587326286 764.0015947742454 1.630693557963525e-09
  endloop
endfacet
facet normal 8.358885722887087e-14 -3.2671191493842366e-11 -1.0
  outer loop
    vertex 485.2771587326286 763.2515947742454 1.603229904389991e-09
    vertex 485.2771587326287 788.5015947742447 1.6299378069462022e-09
    vertex 490.67753027373186 773.2104709942909 1.6314154693830573e-09
  endloop
endfacet
facet normal 8.358885722887087e-14 -3.2671191493842366e-11 -1.0
  outer loop
    vertex 485.2771587326286 763.2515947742454 1.603229904389991e-09
    vertex 490.67753027373186 773.2104709942909 1.6314154693830573e-09
    vertex 491.85136023816113 770.3765947742447 1.6311785921985233e-09
  endloop
endfacet
facet normal 8.358885722887087e-14 -3.2671191493842366e-11 -1.0
  outer loop
    vertex 485.2771587326286 763.2515947742454 1.603229904389991e-09
    vertex 491.85136023816113 770.3765947742447 1.6311785921985233e-09
    vertex 493.7186540536865 767.9430900953032 1.6317087458972422e-09
  endloop
endfacet
facet normal 8.358885722887087e-14 -3.2671191493842366e-11 -1.0
  outer loop
    vertex 485.2771587326286 763.2515947742454 1.603229904389991e-09
    vertex 493.7186540536865 767.9430900953032 1.6317087458972422e-09
    vertex 496.1521587326285 766.0757962797773 1.6320697016070085e-09
  endloop
endfacet
facet normal 8.358885722887087e-14 -3.2671191493842366e-11 -1.0
  outer loop
    vertex 485.2771587326286 763.2515947742454 1.603229904389991e-09
    vertex 496.1521587326285 766.0757962797773 1.6320697016070085e-09
    vertex 498.9860349526738 764.9019663153487 1.631990742545497e-09
  endloop
endfacet
facet normal 8.358885722887087e-14 -3.2671191493842366e-11 -1.0
  outer loop
    vertex 485.2771587326286 763.2515947742454 1.603229904389991e-09
    vertex 498.9860349526738 764.9019663153487 1.631990742545497e-09
    vertex 502.0271587326285 764.5015947742453 1.6331525687363068e-09
  endloop
endfacet
facet normal 8.358885722887087e-14 -3.2671191493842366e-11 -1.0
  outer loop
    vertex 485.2771587326286 763.2515947742454 1.603229904389991e-09
    vertex 502.0271587326285 764.5015947742453 1.6331525687363068e-09
    vertex 518.7771587326287 763.2515947742454 1.603229904389991e-09
  endloop
endfacet
facet normal 8.358885722887087e-14 -3.2671191493842366e-11 -1.0
  outer loop
    vertex 490.67753027373186 773.2104709942909 1.6314154693830573e-09
    vertex 485.2771587326287 788.5015947742447 1.6299378069462022e-09
    vertex 490.2771587326287 776.2515947742451 1.6312237116622441e-09
  endloop
endfacet
facet normal 8.358885722887087e-14 -3.2671191493842366e-11 -1.0
  outer loop
    vertex 518.7771587326287 763.2515947742454 1.603229904389991e-09
    vertex 502.0271587326285 764.5015947742453 1.6331525687363068e-09
    vertex 505.068282512583 764.9019663153487 1.633276647261539e-09
  endloop
endfacet
facet normal 8.358885722887087e-14 -3.2671191493842366e-11 -1.0
  outer loop
    vertex 518.7771587326287 763.2515947742454 1.603229904389991e-09
    vertex 505.068282512583 764.9019663153487 1.633276647261539e-09
    vertex 507.90215873262844 766.0757962797776 1.6340775177425825e-09
  endloop
endfacet
facet normal 8.358885722887087e-14 -3.2671191493842366e-11 -1.0
  outer loop
    vertex 518.7771587326287 763.2515947742454 1.603229904389991e-09
    vertex 507.90215873262844 766.0757962797776 1.6340775177425825e-09
    vertex 510.3356634115704 767.9430900953029 1.634461033184209e-09
  endloop
endfacet
facet normal 8.358885722887087e-14 -3.2671191493842366e-11 -1.0
  outer loop
    vertex 518.7771587326287 763.2515947742454 1.603229904389991e-09
    vertex 510.3356634115704 767.9430900953029 1.634461033184209e-09
    vertex 512.2029572270956 770.3765947742447 1.635453661386066e-09
  endloop
endfacet
facet normal 8.358885722887087e-14 -3.2671191493842366e-11 -1.0
  outer loop
    vertex 518.7771587326287 763.2515947742454 1.603229904389991e-09
    vertex 512.2029572270956 770.3765947742447 1.635453661386066e-09
    vertex 513.3767871915251 773.2104709942905 1.6354987808497866e-09
  endloop
endfacet
facet normal 8.358885722887087e-14 -3.2671191493842366e-11 -1.0
  outer loop
    vertex 518.7771587326287 763.2515947742454 1.603229904389991e-09
    vertex 513.3767871915251 773.2104709942905 1.6354987808497866e-09
    vertex 513.7771587326287 776.2515947742454 1.6356228593750188e-09
  endloop
endfacet
facet normal 8.358885722887087e-14 -3.2671191493842366e-11 -1.0
  outer loop
    vertex 518.7771587326287 763.2515947742454 1.603229904389991e-09
    vertex 513.7771587326287 776.2515947742454 1.6356228593750188e-09
    vertex 518.7771587326287 789.2515947742442 8.459899447643692e-15
  endloop
endfacet
facet normal 8.358885722887087e-14 -3.2671191493842366e-11 -1.0
  outer loop
    vertex 518.7771587326287 763.2515947742454 1.603229904389991e-09
    vertex 518.7771587326287 789.2515947742442 8.459899447643692e-15
    vertex 518.7771587326287 788.5015947742444 1.6357694976321112e-09
  endloop
endfacet
facet normal 8.358885722887087e-14 -3.2671191493842366e-11 -1.0
  outer loop
    vertex 518.7771587326287 763.2515947742454 1.603229904389991e-09
    vertex 518.7771587326287 788.5015947742444 1.6357694976321112e-09
    vertex 518.7771587326287 764.0015947742454 1.6360627741462961e-09
  endloop
endfacet
facet normal -0.6087614290087022 -0.7933533402912494 -1.0990225915718332e-13
  outer loop
    vertex 510.33566341157075 784.5600994531865 1.634336954658977e-09
    vertex 507.90215873262844 786.4273932687119 1.0000000016339292
    vertex 507.9021587326286 786.4273932687119 1.63393087948549e-09
  endloop
endfacet
facet normal -0.6087614290087022 -0.7933533402912494 -1.0990225915718332e-13
  outer loop
    vertex 507.90215873262844 786.4273932687119 1.0000000016339292
    vertex 510.33566341157075 784.5600994531865 1.634336954658977e-09
    vertex 510.3356634115706 784.5600994531865 1.0000000016343353
  endloop
endfacet
facet normal -0.38268343236496355 0.923879532511339 -6.914278428474024e-14
  outer loop
    vertex 505.06828251258275 764.9019663153487 1.000000001633275
    vertex 507.90215873262844 766.0757962797776 1.6340775177425825e-09
    vertex 505.068282512583 764.9019663153487 1.633276647261539e-09
  endloop
endfacet
facet normal -0.38268343236496355 0.923879532511339 -6.914278428474024e-14
  outer loop
    vertex 507.90215873262844 766.0757962797776 1.6340775177425825e-09
    vertex 505.06828251258275 764.9019663153487 1.000000001633275
    vertex 507.90215873262827 766.0757962797776 1.0000000016340758
  endloop
endfacet
facet normal 0.9238795325113 -0.382683432365058 1.6677392199005956e-13
  outer loop
    vertex 491.8513602381615 782.1265947742451 1.6314944284445685e-09
    vertex 490.67753027373186 779.2927185541994 1.0000000016311994
    vertex 490.67753027373203 779.2927185541994 1.6312011519303836e-09
  endloop
endfacet
facet normal 0.9238795325113 -0.382683432365058 1.6677392199005956e-13
  outer loop
    vertex 490.67753027373186 779.2927185541994 1.0000000016311994
    vertex 491.8513602381615 782.1265947742451 1.6314944284445685e-09
    vertex 491.8513602381613 782.1265947742451 1.0000000016314927
  endloop
endfacet
facet normal -1.0 -1.2578200556418845e-12 -3.123394962546548e-10
  outer loop
    vertex 517.7771587320346 764.0015947764032 2.9999999390437653
    vertex 517.7771587326285 788.5015947742444 1.000000001635593
    vertex 517.7771587326285 764.0015947742454 1.0000000008870442
  endloop
endfacet
facet normal -1.0 -1.2578200556418845e-12 -3.123394962546548e-10
  outer loop
    vertex 517.7771587326285 788.5015947742444 1.000000001635593
    vertex 517.7771587320346 764.0015947764032 2.9999999390437653
    vertex 517.777158731973 788.50159477421 2.9999999533945467
  endloop
endfacet
facet normal -3.745969171537698e-10 -5.119538652420211e-10 1.0
  outer loop
    vertex 486.27715873263037 764.0015947742429 0.9999999772929205
    vertex 490.6775302737317 773.2104709942909 1.000000001631414
    vertex 490.27715873262855 776.2515947742451 1.000000001631222
  endloop
endfacet
facet normal -3.745969171537698e-10 -5.119538652420211e-10 1.0
  outer loop
    vertex 490.6775302737317 773.2104709942909 1.000000001631414
    vertex 486.27715873263037 764.0015947742429 0.9999999772929205
    vertex 491.85136023816096 770.3765947742447 1.000000001631177
  endloop
endfacet
facet normal -3.745969171537698e-10 -5.119538652420211e-10 1.0
  outer loop
    vertex 491.85136023816096 770.3765947742447 1.000000001631177
    vertex 486.27715873263037 764.0015947742429 0.9999999772929205
    vertex 493.71865405368635 767.9430900953032 1.000000001631707
  endloop
endfacet
facet normal -3.745969171537698e-10 -5.119538652420211e-10 1.0
  outer loop
    vertex 493.71865405368635 767.9430900953032 1.000000001631707
    vertex 486.27715873263037 764.0015947742429 0.9999999772929205
    vertex 496.1521587326283 766.0757962797773 1.000000001632068
  endloop
endfacet
facet normal -3.745969171537698e-10 -5.119538652420211e-10 1.0
  outer loop
    vertex 496.1521587326283 766.0757962797773 1.000000001632068
    vertex 486.27715873263037 764.0015947742429 0.9999999772929205
    vertex 498.9860349526736 764.9019663153487 1.000000001631989
  endloop
endfacet
facet normal -3.745969171537698e-10 -5.119538652420211e-10 1.0
  outer loop
    vertex 498.9860349526736 764.9019663153487 1.000000001631989
    vertex 486.27715873263037 764.0015947742429 0.9999999772929205
    vertex 502.0271587326283 764.5015947742453 1.000000001633151
  endloop
endfacet
facet normal -3.745969171537698e-10 -5.119538652420211e-10 1.0
  outer loop
    vertex 502.0271587326283 764.5015947742453 1.000000001633151
    vertex 486.27715873263037 764.0015947742429 0.9999999772929205
    vertex 517.7771587326285 764.0015947742454 1.0000000008870442
  endloop
endfacet
facet normal -3.745969171537698e-10 -5.119538652420211e-10 1.0
  outer loop
    vertex 502.0271587326283 764.5015947742453 1.000000001633151
    vertex 517.7771587326285 764.0015947742454 1.0000000008870442
    vertex 505.06828251258275 764.9019663153487 1.000000001633275
  endloop
endfacet
facet normal -3.745969171537698e-10 -5.119538652420211e-10 1.0
  outer loop
    vertex 505.06828251258275 764.9019663153487 1.000000001633275
    vertex 517.7771587326285 764.0015947742454 1.0000000008870442
    vertex 507.90215873262827 766.0757962797776 1.0000000016340758
  endloop
endfacet
facet normal -3.745969171537698e-10 -5.119538652420211e-10 1.0
  outer loop
    vertex 507.90215873262827 766.0757962797776 1.0000000016340758
    vertex 517.7771587326285 764.0015947742454 1.0000000008870442
    vertex 510.33566341157024 767.9430900953029 1.0000000016344595
  endloop
endfacet
facet normal -3.745969171537698e-10 -5.119538652420211e-10 1.0
  outer loop
    vertex 510.33566341157024 767.9430900953029 1.0000000016344595
    vertex 517.7771587326285 764.0015947742454 1.0000000008870442
    vertex 512.2029572270953 770.3765947742447 1.000000001635452
  endloop
endfacet
facet normal -3.745969171537698e-10 -5.119538652420211e-10 1.0
  outer loop
    vertex 512.2029572270953 770.3765947742447 1.000000001635452
    vertex 517.7771587326285 764.0015947742454 1.0000000008870442
    vertex 513.3767871915248 773.2104709942905 1.000000001635497
  endloop
endfacet
facet normal -3.745969171537698e-10 -5.119538652420211e-10 1.0
  outer loop
    vertex 513.3767871915248 773.2104709942905 1.000000001635497
    vertex 517.7771587326285 764.0015947742454 1.0000000008870442
    vertex 513.7771587326285 776.2515947742454 1.0000000016356212
  endloop
endfacet
facet normal -3.745969171537698e-10 -5.119538652420211e-10 1.0
  outer loop
    vertex 486.2771587326285 788.5015947742447 1.000000001630111
    vertex 502.02715873262866 788.0015947742448 1.000000001633072
    vertex 517.7771587326285 788.5015947742444 1.000000001635593
  endloop
endfacet
facet normal -3.745969171537698e-10 -5.119538652420211e-10 1.0
  outer loop
    vertex 502.02715873262866 788.0015947742448 1.000000001633072
    vertex 486.2771587326285 788.5015947742447 1.000000001630111
    vertex 498.9860349526741 787.6012232331415 1.0000000016320907
  endloop
endfacet
facet normal -3.745969171537698e-10 -5.119538652420211e-10 1.0
  outer loop
    vertex 498.9860349526741 787.6012232331415 1.0000000016320907
    vertex 486.2771587326285 788.5015947742447 1.000000001630111
    vertex 496.1521587326285 786.4273932687119 1.0000000016322823
  endloop
endfacet
facet normal -3.745969171537698e-10 -5.119538652420211e-10 1.0
  outer loop
    vertex 496.1521587326285 786.4273932687119 1.0000000016322823
    vertex 486.2771587326285 788.5015947742447 1.000000001630111
    vertex 493.7186540536868 784.5600994531873 1.000000001631425
  endloop
endfacet
facet normal -3.745969171537698e-10 -5.119538652420211e-10 1.0
  outer loop
    vertex 493.7186540536868 784.5600994531873 1.000000001631425
    vertex 486.2771587326285 788.5015947742447 1.000000001630111
    vertex 491.8513602381613 782.1265947742451 1.0000000016314927
  endloop
endfacet
facet normal -3.745969171537698e-10 -5.119538652420211e-10 1.0
  outer loop
    vertex 491.8513602381613 782.1265947742451 1.0000000016314927
    vertex 486.2771587326285 788.5015947742447 1.000000001630111
    vertex 490.67753027373186 779.2927185541994 1.0000000016311994
  endloop
endfacet
facet normal -3.745969171537698e-10 -5.119538652420211e-10 1.0
  outer loop
    vertex 490.67753027373186 779.2927185541994 1.0000000016311994
    vertex 486.2771587326285 788.5015947742447 1.000000001630111
    vertex 486.27715873263037 764.0015947742429 0.9999999772929205
  endloop
endfacet
facet normal -3.745969171537698e-10 -5.119538652420211e-10 1.0
  outer loop
    vertex 490.67753027373186 779.2927185541994 1.0000000016311994
    vertex 486.27715873263037 764.0015947742429 0.9999999772929205
    vertex 490.27715873262855 776.2515947742451 1.000000001631222
  endloop
endfacet
facet normal -3.745969171537698e-10 -5.119538652420211e-10 1.0
  outer loop
    vertex 517.7771587326285 788.5015947742444 1.000000001635593
    vertex 502.02715873262866 788.0015947742448 1.000000001633072
    vertex 505.0682825125833 787.6012232331415 1.0000000016332524
  endloop
endfacet
facet normal -3.745969171537698e-10 -5.119538652420211e-10 1.0
  outer loop
    vertex 517.7771587326285 788.5015947742444 1.000000001635593
    vertex 505.0682825125833 787.6012232331415 1.0000000016332524
    vertex 507.90215873262844 786.4273932687119 1.0000000016339292
  endloop
endfacet
facet normal -3.745969171537698e-10 -5.119538652420211e-10 1.0
  outer loop
    vertex 517.7771587326285 788.5015947742444 1.000000001635593
    vertex 507.90215873262844 786.4273932687119 1.0000000016339292
    vertex 510.3356634115706 784.5600994531865 1.0000000016343353
  endloop
endfacet
facet normal -3.745969171537698e-10 -5.119538652420211e-10 1.0
  outer loop
    vertex 517.7771587326285 788.5015947742444 1.000000001635593
    vertex 510.3356634115706 784.5600994531865 1.0000000016343353
    vertex 512.2029572270957 782.1265947742447 1.0000000016346737
  endloop
endfacet
facet normal -3.745969171537698e-10 -5.119538652420211e-10 1.0
  outer loop
    vertex 517.7771587326285 788.5015947742444 1.000000001635593
    vertex 512.2029572270957 782.1265947742447 1.0000000016346737
    vertex 513.3767871915248 779.2927185541997 1.0000000016350572
  endloop
endfacet
facet normal -3.745969171537698e-10 -5.119538652420211e-10 1.0
  outer loop
    vertex 517.7771587326285 788.5015947742444 1.000000001635593
    vertex 513.3767871915248 779.2927185541997 1.0000000016350572
    vertex 513.7771587326285 776.2515947742454 1.0000000016356212
  endloop
endfacet
facet normal -3.745969171537698e-10 -5.119538652420211e-10 1.0
  outer loop
    vertex 517.7771587326285 788.5015947742444 1.000000001635593
    vertex 513.7771587326285 776.2515947742454 1.0000000016356212
    vertex 517.7771587326285 764.0015947742454 1.0000000008870442
  endloop
endfacet
facet normal -0.7933533402912342 0.6087614290087219 -1.4311127311979601e-13
  outer loop
    vertex 512.2029572270953 770.3765947742447 1.000000001635452
    vertex 510.3356634115704 767.9430900953029 1.634461033184209e-09
    vertex 510.33566341157024 767.9430900953029 1.0000000016344595
  endloop
endfacet
facet normal -0.7933533402912342 0.6087614290087219 -1.4311127311979601e-13
  outer loop
    vertex 510.3356634115704 767.9430900953029 1.634461033184209e-09
    vertex 512.2029572270953 770.3765947742447 1.000000001635452
    vertex 512.2029572270956 770.3765947742447 1.635453661386066e-09
  endloop
endfacet
facet normal -0.7933533402912342 -0.6087614290087219 -1.433131458422937e-13
  outer loop
    vertex 510.3356634115706 784.5600994531865 1.0000000016343353
    vertex 512.2029572270959 782.1265947742447 1.6346753506368827e-09
    vertex 512.2029572270957 782.1265947742447 1.0000000016346737
  endloop
endfacet
facet normal -0.7933533402912342 -0.6087614290087219 -1.433131458422937e-13
  outer loop
    vertex 512.2029572270959 782.1265947742447 1.6346753506368827e-09
    vertex 510.3356634115706 784.5600994531865 1.0000000016343353
    vertex 510.33566341157075 784.5600994531865 1.634336954658977e-09
  endloop
endfacet
facet normal 0.9914448613738213 0.13052619221997006 1.789198150611925e-13
  outer loop
    vertex 490.2771587326287 776.2515947742451 1.6312237116622441e-09
    vertex 490.6775302737317 773.2104709942909 1.000000001631414
    vertex 490.67753027373186 773.2104709942909 1.6314154693830573e-09
  endloop
endfacet
facet normal 0.9914448613738213 0.13052619221997006 1.789198150611925e-13
  outer loop
    vertex 490.6775302737317 773.2104709942909 1.000000001631414
    vertex 490.2771587326287 776.2515947742451 1.6312237116622441e-09
    vertex 490.27715873262855 776.2515947742451 1.000000001631222
  endloop
endfacet
facet normal 1.0 6.015905677067028e-14 9.145715490908676e-11
  outer loop
    vertex 518.7771587326287 764.0015947742454 1.6360627741462961e-09
    vertex 518.7771587323543 763.251594774575 2.9999999358958256
    vertex 518.7771587326287 763.2515947742454 1.603229904389991e-09
  endloop
endfacet
facet normal 1.0 6.015905677067028e-14 9.145715490908676e-11
  outer loop
    vertex 518.7771587323543 763.251594774575 2.9999999358958256
    vertex 518.7771587326287 764.0015947742454 1.6360627741462961e-09
    vertex 518.7771587323542 764.0015947745775 2.9999999396055705
  endloop
endfacet
facet normal -0.13052619222001646 0.9914448613738152 -2.3562800945591774e-14
  outer loop
    vertex 502.0271587326283 764.5015947742453 1.000000001633151
    vertex 505.068282512583 764.9019663153487 1.633276647261539e-09
    vertex 502.0271587326285 764.5015947742453 1.6331525687363068e-09
  endloop
endfacet
facet normal -0.13052619222001646 0.9914448613738152 -2.3562800945591774e-14
  outer loop
    vertex 505.068282512583 764.9019663153487 1.633276647261539e-09
    vertex 502.0271587326283 764.5015947742453 1.000000001633151
    vertex 505.06828251258275 764.9019663153487 1.000000001633275
  endloop
endfacet
facet normal 0.13052619222000506 0.9914448613738166 2.3553502421914738e-14
  outer loop
    vertex 498.9860349526736 764.9019663153487 1.000000001631989
    vertex 502.0271587326285 764.5015947742453 1.6331525687363068e-09
    vertex 498.9860349526738 764.9019663153487 1.631990742545497e-09
  endloop
endfacet
facet normal 0.13052619222000506 0.9914448613738166 2.3553502421914738e-14
  outer loop
    vertex 502.0271587326285 764.5015947742453 1.6331525687363068e-09
    vertex 498.9860349526736 764.9019663153487 1.000000001631989
    vertex 502.0271587326283 764.5015947742453 1.000000001633151
  endloop
endfacet
facet normal 0.9238795325113422 0.3826834323649558 1.6663590173161163e-13
  outer loop
    vertex 490.67753027373186 773.2104709942909 1.6314154693830573e-09
    vertex 491.85136023816096 770.3765947742447 1.000000001631177
    vertex 491.85136023816113 770.3765947742447 1.6311785921985233e-09
  endloop
endfacet
facet normal 0.9238795325113422 0.3826834323649558 1.6663590173161163e-13
  outer loop
    vertex 491.85136023816096 770.3765947742447 1.000000001631177
    vertex 490.67753027373186 773.2104709942909 1.6314154693830573e-09
    vertex 490.6775302737317 773.2104709942909 1.000000001631414
  endloop
endfacet
facet normal 0.382683432364884 0.923879532511372 6.90282848009531e-14
  outer loop
    vertex 496.1521587326285 766.0757962797773 1.6320697016070085e-09
    vertex 498.9860349526736 764.9019663153487 1.000000001631989
    vertex 498.9860349526738 764.9019663153487 1.631990742545497e-09
  endloop
endfacet
facet normal 0.382683432364884 0.923879532511372 6.90282848009531e-14
  outer loop
    vertex 498.9860349526736 764.9019663153487 1.000000001631989
    vertex 496.1521587326285 766.0757962797773 1.6320697016070085e-09
    vertex 496.1521587326283 766.0757962797773 1.000000001632068
  endloop
endfacet
facet normal 2.48782226769366e-11 -5.589342531813897e-08 0.9999999999999984
  outer loop
    vertex 485.2771587507065 788.5015947729958 2.9999999546333918
    vertex 518.7771587334502 789.251594754615 2.9999999959341244
    vertex 485.2771587334502 789.251594754615 2.9999999959341244
  endloop
endfacet
facet normal 2.48782226769366e-11 -5.589342531813897e-08 0.9999999999999984
  outer loop
    vertex 518.7771587334502 789.251594754615 2.9999999959341244
    vertex 485.2771587507065 788.5015947729958 2.9999999546333918
    vertex 486.2771587507066 788.5015947729958 2.9999999546335667
  endloop
endfacet
facet normal 2.48782226769366e-11 -5.589342531813897e-08 0.9999999999999984
  outer loop
    vertex 518.7771587334502 789.251594754615 2.9999999959341244
    vertex 486.2771587507066 788.5015947729958 2.9999999546335667
    vertex 517.777158731973 788.50159477421 2.9999999533945467
  endloop
endfacet
facet normal 2.48782226769366e-11 -5.589342531813897e-08 0.9999999999999984
  outer loop
    vertex 518.7771587334502 789.251594754615 2.9999999959341244
    vertex 517.777158731973 788.50159477421 2.9999999533945467
    vertex 518.777158731973 788.50159477421 2.9999999533947213
  endloop
endfacet
facet normal 3.950495703274989e-27 1.0 6.543044159798407e-09
  outer loop
    vertex 485.2771587334502 789.251594754615 2.9999999959341244
    vertex 518.7771587326287 789.2515947742442 8.459899447643692e-15
    vertex 485.2771587326287 789.2515947742442 8.459899447643692e-15
  endloop
endfacet
facet normal 3.950495703274989e-27 1.0 6.543044159798407e-09
  outer loop
    vertex 518.7771587326287 789.2515947742442 8.459899447643692e-15
    vertex 485.2771587334502 789.251594754615 2.9999999959341244
    vertex 518.7771587334502 789.251594754615 2.9999999959341244
  endloop
endfacet
facet normal -0.9914448613738025 0.13052619222011314 -1.7893218377375763e-13
  outer loop
    vertex 513.7771587326285 776.2515947742454 1.0000000016356212
    vertex 513.3767871915251 773.2104709942905 1.6354987808497866e-09
    vertex 513.3767871915248 773.2104709942905 1.000000001635497
  endloop
endfacet
facet normal -0.9914448613738025 0.13052619222011314 -1.7893218377375763e-13
  outer loop
    vertex 513.3767871915251 773.2104709942905 1.6354987808497866e-09
    vertex 513.7771587326285 776.2515947742454 1.0000000016356212
    vertex 513.7771587326287 776.2515947742454 1.6356228593750188e-09
  endloop
endfacet
facet normal -0.6087614290087306 0.7933533402912276 -1.0987919364056513e-13
  outer loop
    vertex 507.90215873262827 766.0757962797776 1.0000000016340758
    vertex 510.3356634115704 767.9430900953029 1.634461033184209e-09
    vertex 507.90215873262844 766.0757962797776 1.6340775177425825e-09
  endloop
endfacet
facet normal -0.6087614290087306 0.7933533402912276 -1.0987919364056513e-13
  outer loop
    vertex 510.3356634115704 767.9430900953029 1.634461033184209e-09
    vertex 507.90215873262827 766.0757962797776 1.0000000016340758
    vertex 510.33566341157024 767.9430900953029 1.0000000016344595
  endloop
endfacet
facet normal -2.1928264454241724e-10 2.8609988848373997e-09 1.0
  outer loop
    vertex 518.7771587323543 763.251594774575 2.9999999358958256
    vertex 485.2771587323543 764.001594774575 2.9999999359232863
    vertex 485.2771587323543 763.251594774575 2.9999999358958256
  endloop
endfacet
facet normal -2.1928264454241724e-10 2.8609988848373997e-09 1.0
  outer loop
    vertex 485.2771587323543 764.001594774575 2.9999999359232863
    vertex 518.7771587323543 763.251594774575 2.9999999358958256
    vertex 486.2771587427414 764.0015947758444 2.9999999204276833
  endloop
endfacet
facet normal -2.1928264454241724e-10 2.8609988848373997e-09 1.0
  outer loop
    vertex 486.2771587427414 764.0015947758444 2.9999999204276833
    vertex 518.7771587323543 763.251594774575 2.9999999358958256
    vertex 517.7771587320346 764.0015947764032 2.9999999390437653
  endloop
endfacet
facet normal -2.1928264454241724e-10 2.8609988848373997e-09 1.0
  outer loop
    vertex 517.7771587320346 764.0015947764032 2.9999999390437653
    vertex 518.7771587323543 763.251594774575 2.9999999358958256
    vertex 518.7771587323542 764.0015947745775 2.9999999396055705
  endloop
endfacet
facet normal -9.484643832106341e-29 -1.0 1.0985085674483071e-10
  outer loop
    vertex 518.7771587323543 763.251594774575 2.9999999358958256
    vertex 485.2771587326286 763.2515947742454 1.603229904389991e-09
    vertex 518.7771587326287 763.2515947742454 1.603229904389991e-09
  endloop
endfacet
facet normal -9.484643832106341e-29 -1.0 1.0985085674483071e-10
  outer loop
    vertex 485.2771587326286 763.2515947742454 1.603229904389991e-09
    vertex 518.7771587323543 763.251594774575 2.9999999358958256
    vertex 485.2771587323543 763.251594774575 2.9999999358958256
  endloop
endfacet
facet normal 0.608761429008625 -0.7933533402913084 1.0981907079165832e-13
  outer loop
    vertex 496.15215873262866 786.4273932687119 1.632284019059682e-09
    vertex 493.7186540536868 784.5600994531873 1.000000001631425
    vertex 493.718654053687 784.5600994531873 1.6314267492489874e-09
  endloop
endfacet
facet normal 0.608761429008625 -0.7933533402913084 1.0981907079165832e-13
  outer loop
    vertex 493.7186540536868 784.5600994531873 1.000000001631425
    vertex 496.15215873262866 786.4273932687119 1.632284019059682e-09
    vertex 496.1521587326285 786.4273932687119 1.0000000016322823
  endloop
endfacet
facet normal 1.0 -1.625166166808749e-10 -7.047276905627491e-09
  outer loop
    vertex 486.2771587326285 788.5015947742447 1.000000001630111
    vertex 486.2771587427414 764.0015947758444 2.9999999204276833
    vertex 486.27715873263037 764.0015947742429 0.9999999772929205
  endloop
endfacet
facet normal 1.0 -1.625166166808749e-10 -7.047276905627491e-09
  outer loop
    vertex 486.2771587427414 764.0015947758444 2.9999999204276833
    vertex 486.2771587326285 788.5015947742447 1.000000001630111
    vertex 486.2771587507066 788.5015947729958 2.9999999546335667
  endloop
endfacet
facet normal -8.909303000261119e-12 1.0 -9.398384570010132e-10
  outer loop
    vertex 486.2771587427414 764.0015947758444 2.9999999204276833
    vertex 517.7771587326285 764.0015947742454 1.0000000008870442
    vertex 486.27715873263037 764.0015947742429 0.9999999772929205
  endloop
endfacet
facet normal -8.909303000261119e-12 1.0 -9.398384570010132e-10
  outer loop
    vertex 517.7771587326285 764.0015947742454 1.0000000008870442
    vertex 486.2771587427414 764.0015947758444 2.9999999204276833
    vertex 517.7771587320346 764.0015947764032 2.9999999390437653
  endloop
endfacet
facet normal -0.3826834323652062 -0.9238795325112386 -6.901411408442645e-14
  outer loop
    vertex 507.9021587326286 786.4273932687119 1.63393087948549e-09
    vertex 505.0682825125833 787.6012232331415 1.0000000016332524
    vertex 505.0682825125835 787.6012232331415 1.6332540875296786e-09
  endloop
endfacet
facet normal -0.3826834323652062 -0.9238795325112386 -6.901411408442645e-14
  outer loop
    vertex 505.0682825125833 787.6012232331415 1.0000000016332524
    vertex 507.9021587326286 786.4273932687119 1.63393087948549e-09
    vertex 507.90215873262844 786.4273932687119 1.0000000016339292
  endloop
endfacet
facet normal 1.0 -9.848074940583456e-10 -2.7643196720693837e-11
  outer loop
    vertex 518.7771587326287 788.5015947742444 1.6357694976321112e-09
    vertex 518.7771587334502 789.251594754615 2.9999999959341244
    vertex 518.777158731973 788.50159477421 2.9999999533947213
  endloop
endfacet
facet normal 1.0 -9.848074940583456e-10 -2.7643196720693837e-11
  outer loop
    vertex 518.7771587334502 789.251594754615 2.9999999959341244
    vertex 518.7771587326287 788.5015947742444 1.6357694976321112e-09
    vertex 518.7771587326287 789.2515947742442 8.459899447643692e-15
  endloop
endfacet
facet normal 0.991444861373814 -0.13052619222002407 1.7895624685226443e-13
  outer loop
    vertex 490.67753027373203 779.2927185541994 1.6312011519303836e-09
    vertex 490.27715873262855 776.2515947742451 1.000000001631222
    vertex 490.2771587326287 776.2515947742451 1.6312237116622441e-09
  endloop
endfacet
facet normal 0.991444861373814 -0.13052619222002407 1.7895624685226443e-13
  outer loop
    vertex 490.27715873262855 776.2515947742451 1.000000001631222
    vertex 490.67753027373203 779.2927185541994 1.6312011519303836e-09
    vertex 490.67753027373186 779.2927185541994 1.0000000016311994
  endloop
endfacet
facet normal -2.809899207447458e-10 -5.742843325922381e-10 1.0
  outer loop
    vertex 517.7771587320346 764.0015947764032 2.9999999390437653
    vertex 518.777158731973 788.50159477421 2.9999999533947213
    vertex 517.777158731973 788.50159477421 2.9999999533945467
  endloop
endfacet
facet normal -2.809899207447458e-10 -5.742843325922381e-10 1.0
  outer loop
    vertex 518.777158731973 788.50159477421 2.9999999533947213
    vertex 517.7771587320346 764.0015947764032 2.9999999390437653
    vertex 518.7771587323542 764.0015947745775 2.9999999396055705
  endloop
endfacet
facet normal 7.747714093195777e-09 -1.0799181392123037e-09 1.0
  outer loop
    vertex 486.2771587427414 764.0015947758444 2.9999999204276833
    vertex 485.2771587507065 788.5015947729958 2.9999999546333918
    vertex 485.2771587323543 764.001594774575 2.9999999359232863
  endloop
endfacet
facet normal 7.747714093195777e-09 -1.0799181392123037e-09 1.0
  outer loop
    vertex 485.2771587507065 788.5015947729958 2.9999999546333918
    vertex 486.2771587427414 764.0015947758444 2.9999999204276833
    vertex 486.2771587507066 788.5015947729958 2.9999999546335667
  endloop
endfacet
facet normal -0.9238795325112968 -0.3826834323650659 -1.667328718676614e-13
  outer loop
    vertex 512.2029572270957 782.1265947742447 1.0000000016346737
    vertex 513.3767871915251 779.2927185541997 1.6350588660785093e-09
    vertex 513.3767871915248 779.2927185541997 1.0000000016350572
  endloop
endfacet
facet normal -0.9238795325112968 -0.3826834323650659 -1.667328718676614e-13
  outer loop
    vertex 513.3767871915251 779.2927185541997 1.6350588660785093e-09
    vertex 512.2029572270957 782.1265947742447 1.0000000016346737
    vertex 512.2029572270959 782.1265947742447 1.6346753506368827e-09
  endloop
endfacet
facet normal -0.13052619222000886 -0.9914448613738162 -2.3541169019959245e-14
  outer loop
    vertex 505.0682825125835 787.6012232331415 1.6332540875296786e-09
    vertex 502.02715873262866 788.0015947742448 1.000000001633072
    vertex 502.02715873262883 788.0015947742448 1.6330736096747954e-09
  endloop
endfacet
facet normal -0.13052619222000886 -0.9914448613738162 -2.3541169019959245e-14
  outer loop
    vertex 502.02715873262866 788.0015947742448 1.000000001633072
    vertex 505.0682825125835 787.6012232331415 1.6332540875296786e-09
    vertex 505.0682825125833 787.6012232331415 1.0000000016332524
  endloop
endfacet
facet normal 0.7933533402912211 -0.6087614290087393 1.432689902038191e-13
  outer loop
    vertex 493.718654053687 784.5600994531873 1.6314267492489874e-09
    vertex 491.8513602381613 782.1265947742451 1.0000000016314927
    vertex 491.8513602381615 782.1265947742451 1.6314944284445685e-09
  endloop
endfacet
facet normal 0.7933533402912211 -0.6087614290087393 1.432689902038191e-13
  outer loop
    vertex 491.8513602381613 782.1265947742451 1.0000000016314927
    vertex 493.718654053687 784.5600994531873 1.6314267492489874e-09
    vertex 493.7186540536868 784.5600994531873 1.000000001631425
  endloop
endfacet
facet normal -0.991444861373799 -0.13052619222013975 -1.7893118990952904e-13
  outer loop
    vertex 513.3767871915248 779.2927185541997 1.0000000016350572
    vertex 513.7771587326287 776.2515947742454 1.6356228593750188e-09
    vertex 513.7771587326285 776.2515947742454 1.0000000016356212
  endloop
endfacet
facet normal -0.991444861373799 -0.13052619222013975 -1.7893118990952904e-13
  outer loop
    vertex 513.7771587326287 776.2515947742454 1.6356228593750188e-09
    vertex 513.3767871915248 779.2927185541997 1.0000000016350572
    vertex 513.3767871915251 779.2927185541997 1.6350588660785093e-09
  endloop
endfacet
facet normal 0.13052619222001272 -0.9914448613738157 2.3549722576048827e-14
  outer loop
    vertex 502.02715873262883 788.0015947742448 1.6330736096747954e-09
    vertex 498.9860349526741 787.6012232331415 1.0000000016320907
    vertex 498.9860349526743 787.6012232331415 1.6320922613388688e-09
  endloop
endfacet
facet normal 0.13052619222001272 -0.9914448613738157 2.3549722576048827e-14
  outer loop
    vertex 498.9860349526741 787.6012232331415 1.0000000016320907
    vertex 502.02715873262883 788.0015947742448 1.6330736096747954e-09
    vertex 502.02715873262866 788.0015947742448 1.000000001633072
  endloop
endfacet
facet normal 0.6087614290088788 0.7933533402911139 1.0985612812380647e-13
  outer loop
    vertex 493.71865405368635 767.9430900953032 1.000000001631707
    vertex 496.1521587326285 766.0757962797773 1.6320697016070085e-09
    vertex 493.7186540536865 767.9430900953032 1.6317087458972422e-09
  endloop
endfacet
facet normal 0.6087614290088788 0.7933533402911139 1.0985612812380647e-13
  outer loop
    vertex 496.1521587326285 766.0757962797773 1.6320697016070085e-09
    vertex 493.71865405368635 767.9430900953032 1.000000001631707
    vertex 496.1521587326283 766.0757962797773 1.000000001632068
  endloop
endfacet
facet normal -0.923879532511294 0.38268343236507274 -1.667414060889996e-13
  outer loop
    vertex 513.3767871915248 773.2104709942905 1.000000001635497
    vertex 512.2029572270956 770.3765947742447 1.635453661386066e-09
    vertex 512.2029572270953 770.3765947742447 1.000000001635452
  endloop
endfacet
facet normal -0.923879532511294 0.38268343236507274 -1.667414060889996e-13
  outer loop
    vertex 512.2029572270956 770.3765947742447 1.635453661386066e-09
    vertex 513.3767871915248 773.2104709942905 1.000000001635497
    vertex 513.3767871915251 773.2104709942905 1.6354987808497866e-09
  endloop
endfacet
facet normal -1.0 3.745375880185082e-10 2.9672515172864028e-09
  outer loop
    vertex 485.2771587323543 764.001594774575 2.9999999359232863
    vertex 485.2771587326287 788.5015947742447 1.6299378069462022e-09
    vertex 485.2771587326286 764.0015947742454 1.630693557963525e-09
  endloop
endfacet
facet normal -1.0 3.745375880185082e-10 2.9672515172864028e-09
  outer loop
    vertex 485.2771587326287 788.5015947742447 1.6299378069462022e-09
    vertex 485.2771587323543 764.001594774575 2.9999999359232863
    vertex 485.2771587507065 788.5015947729958 2.9999999546333918
  endloop
endfacet
facet normal 0.3826834323651438 -0.9238795325112645 6.90365277661388e-14
  outer loop
    vertex 498.9860349526741 787.6012232331415 1.0000000016320907
    vertex 496.15215873262866 786.4273932687119 1.632284019059682e-09
    vertex 498.9860349526743 787.6012232331415 1.6320922613388688e-09
  endloop
endfacet
facet normal 0.3826834323651438 -0.9238795325112645 6.90365277661388e-14
  outer loop
    vertex 496.15215873262866 786.4273932687119 1.632284019059682e-09
    vertex 498.9860349526741 787.6012232331415 1.0000000016320907
    vertex 496.1521587326285 786.4273932687119 1.0000000016322823
  endloop
endfacet
facet normal 1.0 7.780805434755232e-12 1.5501544051792968e-10
  outer loop
    vertex 518.7771587326287 788.5015947742444 1.6357694976321112e-09
    vertex 518.7771587323542 764.0015947745775 2.9999999396055705
    vertex 518.7771587326287 764.0015947742454 1.6360627741462961e-09
  endloop
endfacet
facet normal 1.0 7.780805434755232e-12 1.5501544051792968e-10
  outer loop
    vertex 518.7771587323542 764.0015947745775 2.9999999396055705
    vertex 518.7771587326287 788.5015947742444 1.6357694976321112e-09
    vertex 518.777158731973 788.50159477421 2.9999999533947213
  endloop
endfacet
facet normal -1.0 -1.1504199987125302e-08 3.149895007292951e-09
  outer loop
    vertex 485.2771587334502 789.251594754615 2.9999999959341244
    vertex 485.2771587326287 788.5015947742447 1.6299378069462022e-09
    vertex 485.2771587507065 788.5015947729958 2.9999999546333918
  endloop
endfacet
facet normal -1.0 -1.1504199987125302e-08 3.149895007292951e-09
  outer loop
    vertex 485.2771587326287 788.5015947742447 1.6299378069462022e-09
    vertex 485.2771587334502 789.251594754615 2.9999999959341244
    vertex 485.2771587326287 789.2515947742442 8.459899447643692e-15
  endloop
endfacet
facet normal 1.926815954837402e-11 -1.0 -3.2079939487108903e-10
  outer loop
    vertex 517.7771587326285 788.5015947742444 1.000000001635593
    vertex 486.2771587507066 788.5015947729958 2.9999999546335667
    vertex 486.2771587326285 788.5015947742447 1.000000001630111
  endloop
endfacet
facet normal 1.926815954837402e-11 -1.0 -3.2079939487108903e-10
  outer loop
    vertex 486.2771587507066 788.5015947729958 2.9999999546335667
    vertex 517.7771587326285 788.5015947742444 1.000000001635593
    vertex 517.777158731973 788.50159477421 2.9999999533945467
  endloop
endfacet
facet normal -1.0 3.3482764539706916e-21 -9.144211514356121e-11
  outer loop
    vertex 485.2771587323543 763.251594774575 2.9999999358958256
    vertex 485.2771587326286 764.0015947742454 1.630693557963525e-09
    vertex 485.2771587326286 763.2515947742454 1.603229904389991e-09
  endloop
endfacet
facet normal -1.0 3.3482764539706916e-21 -9.144211514356121e-11
  outer loop
    vertex 485.2771587326286 764.0015947742454 1.630693557963525e-09
    vertex 485.2771587323543 763.251594774575 2.9999999358958256
    vertex 485.2771587323543 764.001594774575 2.9999999359232863
  endloop
endfacet
facet normal 0.7933533402911479 0.6087614290088345 1.4320609887277991e-13
  outer loop
    vertex 491.85136023816113 770.3765947742447 1.6311785921985233e-09
    vertex 493.71865405368635 767.9430900953032 1.000000001631707
    vertex 493.7186540536865 767.9430900953032 1.6317087458972422e-09
  endloop
endfacet
facet normal 0.7933533402911479 0.6087614290088345 1.4320609887277991e-13
  outer loop
    vertex 493.71865405368635 767.9430900953032 1.000000001631707
    vertex 491.85136023816113 770.3765947742447 1.6311785921985233e-09
    vertex 491.85136023816096 770.3765947742447 1.000000001631177
  endloop
endfacet
endsolid Multibox-Sensor
