solid Multibox-Sensor
facet normal -0.38268343236422997 -0.923879532511643 0.0
  outer loop
    vertex 418.0162780928214 764.0253529610217 13.249999999999968
    vertex 417.7662780928216 764.1289063516147 11.49999999999996
    vertex 418.0162780928214 764.0253529610217 11.49999999999996
  endloop
endfacet
facet normal -0.38268343236422997 -0.923879532511643 0.0
  outer loop
    vertex 417.7662780928216 764.1289063516147 11.49999999999996
    vertex 418.0162780928214 764.0253529610217 13.249999999999968
    vertex 417.7662780928216 764.1289063516147 13.249999999999968
  endloop
endfacet
facet normal 0.9238795325114653 -0.38268343236465907 -0.0
  outer loop
    vertex 419.96516683225457 765.0397158896378 11.49999999999996
    vertex 419.81531619849767 764.6779444572912 13.249999999999968
    vertex 419.81531619849767 764.6779444572912 11.49999999999996
  endloop
endfacet
facet normal 0.9238795325114653 -0.38268343236465907 -0.0
  outer loop
    vertex 419.81531619849767 764.6779444572912 13.249999999999968
    vertex 419.96516683225457 765.0397158896378 11.49999999999996
    vertex 419.96516683225457 765.0397158896378 13.249999999999968
  endloop
endfacet
facet normal 1.0 -0.0 -0.0
  outer loop
    vertex 451.5162780928215 762.927944457291 -2.9609648066752924e-14
    vertex 451.5162780928215 767.927944457292 7.499999999999976
    vertex 451.5162780928215 762.927944457291 11.499999999999956
  endloop
endfacet
facet normal 1.0 -0.0 -0.0
  outer loop
    vertex 451.5162780928215 767.927944457292 7.499999999999976
    vertex 451.5162780928215 762.927944457291 -2.9609648066752924e-14
    vertex 451.5162780928215 796.4279444572928 -2.9609648066752924e-14
  endloop
endfacet
facet normal 1.0 -0.0 -0.0
  outer loop
    vertex 451.5162780928215 767.927944457292 7.499999999999976
    vertex 451.5162780928215 796.4279444572928 -2.9609648066752924e-14
    vertex 451.5162780928215 791.4279444572925 7.499999999999976
  endloop
endfacet
facet normal 1.0 -0.0 -0.0
  outer loop
    vertex 451.5162780928215 791.4279444572925 7.499999999999976
    vertex 451.5162780928215 796.4279444572928 -2.9609648066752924e-14
    vertex 451.5162780928215 791.4279444572925 11.499999999999957
  endloop
endfacet
facet normal 1.0 -0.0 -0.0
  outer loop
    vertex 451.5162780928215 791.4279444572925 11.499999999999957
    vertex 451.5162780928215 796.4279444572928 -2.9609648066752924e-14
    vertex 451.5162780928215 796.4279444572928 11.499999999999957
  endloop
endfacet
facet normal 1.0 -0.0 -0.0
  outer loop
    vertex 451.5162780928215 767.927944457292 11.499999999999956
    vertex 451.5162780928215 762.927944457291 11.499999999999956
    vertex 451.5162780928215 767.927944457292 7.499999999999976
  endloop
endfacet
facet normal -0.9238795325114653 -0.38268343236465907 0.0
  outer loop
    vertex 447.5673893533882 765.0397158896378 13.24999999999995
    vertex 447.71723998714515 764.6779444572912 11.499999999999956
    vertex 447.71723998714515 764.6779444572912 13.24999999999995
  endloop
endfacet
facet normal -0.9238795325114653 -0.38268343236465907 0.0
  outer loop
    vertex 447.71723998714515 764.6779444572912 11.499999999999956
    vertex 447.5673893533882 765.0397158896378 13.24999999999995
    vertex 447.5673893533882 765.0397158896378 11.499999999999956
  endloop
endfacet
facet normal -0.7933533402907629 -0.6087614290093362 0.0
  outer loop
    vertex 417.21723998714504 764.6779444572912 13.249999999999968
    vertex 417.45561792104183 764.3672842855119 11.49999999999996
    vertex 417.45561792104183 764.3672842855119 13.249999999999968
  endloop
endfacet
facet normal -0.7933533402907629 -0.6087614290093362 0.0
  outer loop
    vertex 417.45561792104183 764.3672842855119 11.49999999999996
    vertex 417.21723998714504 764.6779444572912 13.249999999999968
    vertex 417.21723998714504 764.6779444572912 11.49999999999996
  endloop
endfacet
facet normal -1.0 0.0 0.0
  outer loop
    vertex 416.01627809282144 796.4279444572928 11.499999999999963
    vertex 416.01627809282144 791.4279444572925 7.499999999999971
    vertex 416.01627809282144 791.4279444572925 11.499999999999963
  endloop
endfacet
facet normal -1.0 0.0 0.0
  outer loop
    vertex 416.01627809282144 763.677944457291 11.499999999999963
    vertex 416.01627809282144 762.927944457291 -2.9609648066752924e-14
    vertex 416.01627809282144 762.927944457291 11.49999999999996
  endloop
endfacet
facet normal -1.0 0.0 0.0
  outer loop
    vertex 416.01627809282144 762.927944457291 -2.9609648066752924e-14
    vertex 416.01627809282144 763.677944457291 11.499999999999963
    vertex 416.01627809282144 767.927944457292 7.499999999999971
  endloop
endfacet
facet normal -1.0 0.0 0.0
  outer loop
    vertex 416.01627809282144 762.927944457291 -2.9609648066752924e-14
    vertex 416.01627809282144 767.927944457292 7.499999999999971
    vertex 416.01627809282144 796.4279444572928 -2.9609648066752924e-14
  endloop
endfacet
facet normal -1.0 0.0 0.0
  outer loop
    vertex 416.01627809282144 767.927944457292 7.499999999999971
    vertex 416.01627809282144 763.677944457291 11.499999999999963
    vertex 416.01627809282144 763.979112457291 11.499999999999961
  endloop
endfacet
facet normal -1.0 0.0 0.0
  outer loop
    vertex 416.01627809282144 767.927944457292 7.499999999999971
    vertex 416.01627809282144 763.979112457291 11.499999999999961
    vertex 416.01627809282144 767.927944457292 11.49999999999996
  endloop
endfacet
facet normal -1.0 0.0 0.0
  outer loop
    vertex 416.01627809282144 796.4279444572928 -2.9609648066752924e-14
    vertex 416.01627809282144 767.927944457292 7.499999999999971
    vertex 416.01627809282144 791.4279444572925 7.499999999999971
  endloop
endfacet
facet normal -1.0 0.0 0.0
  outer loop
    vertex 416.01627809282144 796.4279444572928 -2.9609648066752924e-14
    vertex 416.01627809282144 791.4279444572925 7.499999999999971
    vertex 416.01627809282144 796.4279444572928 11.499999999999963
  endloop
endfacet
facet normal -0.9238795325115049 -0.38268343236456354 0.0
  outer loop
    vertex 417.11368659655193 764.9279444572911 13.249999999999968
    vertex 417.21723998714504 764.6779444572912 11.49999999999996
    vertex 417.21723998714504 764.6779444572912 13.249999999999968
  endloop
endfacet
facet normal -0.9238795325115049 -0.38268343236456354 0.0
  outer loop
    vertex 417.21723998714504 764.6779444572912 11.49999999999996
    vertex 417.11368659655193 764.9279444572911 13.249999999999968
    vertex 417.11368659655193 764.9279444572911 11.49999999999996
  endloop
endfacet
facet normal 1.2500555052105084e-17 2.188055929970328e-19 -1.0
  outer loop
    vertex 416.01627809282144 796.4279444572928 -2.9609648066752924e-14
    vertex 418.0162780928214 791.4279444572925 -3.101963130802687e-14
    vertex 416.01627809282144 762.927944457291 -2.9609648066752924e-14
  endloop
endfacet
facet normal 1.2500555052105084e-17 2.188055929970328e-19 -1.0
  outer loop
    vertex 418.0162780928214 791.4279444572925 -3.101963130802687e-14
    vertex 416.01627809282144 796.4279444572928 -2.9609648066752924e-14
    vertex 421.0162780928214 796.4279444572928 -2.9609648066752924e-14
  endloop
endfacet
facet normal 1.2500555052105084e-17 2.188055929970328e-19 -1.0
  outer loop
    vertex 418.0162780928214 791.4279444572925 -3.101963130802687e-14
    vertex 421.0162780928214 796.4279444572928 -2.9609648066752924e-14
    vertex 421.0162780928214 791.4279444572925 -2.9609648066752924e-14
  endloop
endfacet
facet normal 1.2500555052105084e-17 2.188055929970328e-19 -1.0
  outer loop
    vertex 449.51627809282144 767.927944457292 -2.9609648066752924e-14
    vertex 446.51627809282155 764.9279444572911 -2.9609648066752924e-14
    vertex 446.51627809282155 767.927944457292 -2.9609648066752924e-14
  endloop
endfacet
facet normal 1.2500555052105084e-17 2.188055929970328e-19 -1.0
  outer loop
    vertex 451.5162780928215 796.4279444572928 -2.9609648066752924e-14
    vertex 446.51627809282155 791.4279444572925 -2.9609648066752924e-14
    vertex 446.51627809282155 796.4279444572928 -2.9609648066752924e-14
  endloop
endfacet
facet normal 1.2500555052105084e-17 2.188055929970328e-19 -1.0
  outer loop
    vertex 446.51627809282155 791.4279444572925 -2.9609648066752924e-14
    vertex 451.5162780928215 796.4279444572928 -2.9609648066752924e-14
    vertex 449.51627809282144 791.4279444572925 -2.9609648066752924e-14
  endloop
endfacet
facet normal 1.2500555052105084e-17 2.188055929970328e-19 -1.0
  outer loop
    vertex 449.51627809282144 791.4279444572925 -2.9609648066752924e-14
    vertex 451.5162780928215 796.4279444572928 -2.9609648066752924e-14
    vertex 449.51627809282144 767.927944457292 -2.9609648066752924e-14
  endloop
endfacet
facet normal 1.2500555052105084e-17 2.188055929970328e-19 -1.0
  outer loop
    vertex 416.01627809282144 762.927944457291 -2.9609648066752924e-14
    vertex 421.0162780928214 764.9279444572911 -2.9609648066752924e-14
    vertex 451.5162780928215 762.927944457291 -2.9609648066752924e-14
  endloop
endfacet
facet normal 1.2500555052105084e-17 2.188055929970328e-19 -1.0
  outer loop
    vertex 421.0162780928214 764.9279444572911 -2.9609648066752924e-14
    vertex 416.01627809282144 762.927944457291 -2.9609648066752924e-14
    vertex 418.0162780928214 767.927944457292 -3.101963130802687e-14
  endloop
endfacet
facet normal 1.2500555052105084e-17 2.188055929970328e-19 -1.0
  outer loop
    vertex 418.0162780928214 767.927944457292 -3.101963130802687e-14
    vertex 416.01627809282144 762.927944457291 -2.9609648066752924e-14
    vertex 418.0162780928214 791.4279444572925 -3.101963130802687e-14
  endloop
endfacet
facet normal 1.2500555052105084e-17 2.188055929970328e-19 -1.0
  outer loop
    vertex 421.0162780928214 764.9279444572911 -2.9609648066752924e-14
    vertex 418.0162780928214 767.927944457292 -3.101963130802687e-14
    vertex 421.0162780928214 767.927944457292 -2.9609648066752924e-14
  endloop
endfacet
facet normal 1.2500555052105084e-17 2.188055929970328e-19 -1.0
  outer loop
    vertex 451.5162780928215 762.927944457291 -2.9609648066752924e-14
    vertex 421.0162780928214 764.9279444572911 -2.9609648066752924e-14
    vertex 446.51627809282155 764.9279444572911 -2.9609648066752924e-14
  endloop
endfacet
facet normal 1.2500555052105084e-17 2.188055929970328e-19 -1.0
  outer loop
    vertex 451.5162780928215 762.927944457291 -2.9609648066752924e-14
    vertex 446.51627809282155 764.9279444572911 -2.9609648066752924e-14
    vertex 449.51627809282144 767.927944457292 -2.9609648066752924e-14
  endloop
endfacet
facet normal 1.2500555052105084e-17 2.188055929970328e-19 -1.0
  outer loop
    vertex 451.5162780928215 762.927944457291 -2.9609648066752924e-14
    vertex 449.51627809282144 767.927944457292 -2.9609648066752924e-14
    vertex 451.5162780928215 796.4279444572928 -2.9609648066752924e-14
  endloop
endfacet
facet normal 0.130526192219898 -0.9914448613738308 0.0
  outer loop
    vertex 418.90450666047514 763.9790557178578 13.249999999999968
    vertex 418.51627809282144 763.9279444572916 11.49999999999996
    vertex 418.90450666047514 763.9790557178578 11.49999999999996
  endloop
endfacet
facet normal 0.130526192219898 -0.9914448613738308 0.0
  outer loop
    vertex 418.51627809282144 763.9279444572916 11.49999999999996
    vertex 418.90450666047514 763.9790557178578 13.249999999999968
    vertex 418.51627809282144 763.9279444572916 13.249999999999968
  endloop
endfacet
facet normal -0.13052619221899192 0.9914448613739499 -0.0
  outer loop
    vertex 418.12804952516774 766.8768331967252 13.249999999999968
    vertex 418.51627809282144 766.9279444572912 11.49999999999996
    vertex 418.12804952516774 766.8768331967252 11.49999999999996
  endloop
endfacet
facet normal -0.13052619221899192 0.9914448613739499 -0.0
  outer loop
    vertex 418.51627809282144 766.9279444572912 11.49999999999996
    vertex 418.12804952516774 766.8768331967252 13.249999999999968
    vertex 418.51627809282144 766.9279444572912 13.249999999999968
  endloop
endfacet
facet normal -0.9238795325110303 0.3826834323657094 0.0
  outer loop
    vertex 417.11368659655176 765.9279444572911 13.249999999999968
    vertex 417.0673893533881 765.8161730249451 11.49999999999996
    vertex 417.0673893533881 765.8161730249451 13.249999999999968
  endloop
endfacet
facet normal -0.9238795325110303 0.3826834323657094 0.0
  outer loop
    vertex 417.0673893533881 765.8161730249451 11.49999999999996
    vertex 417.11368659655176 765.9279444572911 13.249999999999968
    vertex 417.11368659655176 765.9279444572911 11.49999999999996
  endloop
endfacet
facet normal -0.6087614290083784 0.7933533402914981 -0.0
  outer loop
    vertex 417.45561792104183 766.488604629071 13.249999999999968
    vertex 417.7662780928216 766.7269825629676 11.49999999999996
    vertex 417.45561792104183 766.488604629071 11.49999999999996
  endloop
endfacet
facet normal -0.6087614290083784 0.7933533402914981 -0.0
  outer loop
    vertex 417.7662780928216 766.7269825629676 11.49999999999996
    vertex 417.45561792104183 766.488604629071 13.249999999999968
    vertex 417.7662780928216 766.7269825629676 13.249999999999968
  endloop
endfacet
facet normal -0.9238795325112691 0.38268343236513275 0.0
  outer loop
    vertex 417.21723998714504 766.177944457291 13.249999999999968
    vertex 417.11368659655176 765.9279444572911 11.49999999999996
    vertex 417.11368659655176 765.9279444572911 13.249999999999968
  endloop
endfacet
facet normal -0.9238795325112691 0.38268343236513275 0.0
  outer loop
    vertex 417.11368659655176 765.9279444572911 11.49999999999996
    vertex 417.21723998714504 766.177944457291 13.249999999999968
    vertex 417.21723998714504 766.177944457291 11.49999999999996
  endloop
endfacet
facet normal 0.13052619221899192 0.9914448613739499 -0.0
  outer loop
    vertex 418.51627809282144 766.9279444572912 13.249999999999968
    vertex 418.90450666047514 766.8768331967252 11.49999999999996
    vertex 418.51627809282144 766.9279444572912 11.49999999999996
  endloop
endfacet
facet normal 0.13052619221899192 0.9914448613739499 -0.0
  outer loop
    vertex 418.90450666047514 766.8768331967252 11.49999999999996
    vertex 418.51627809282144 766.9279444572912 13.249999999999968
    vertex 418.90450666047514 766.8768331967252 13.249999999999968
  endloop
endfacet
facet normal -1.0 0.0 0.0
  outer loop
    vertex 446.51627809282155 796.4279444572928 11.499999999999957
    vertex 446.51627809282155 791.4279444572925 -2.9609648066752924e-14
    vertex 446.51627809282155 791.4279444572925 11.499999999999957
  endloop
endfacet
facet normal -1.0 0.0 0.0
  outer loop
    vertex 446.51627809282155 791.4279444572925 -2.9609648066752924e-14
    vertex 446.51627809282155 796.4279444572928 11.499999999999957
    vertex 446.51627809282155 796.4279444572928 -2.9609648066752924e-14
  endloop
endfacet
facet normal -0.6087614290095387 -0.7933533402906074 0.0
  outer loop
    vertex 417.7662780928216 764.1289063516147 13.249999999999968
    vertex 417.45561792104183 764.3672842855119 11.49999999999996
    vertex 417.7662780928216 764.1289063516147 11.49999999999996
  endloop
endfacet
facet normal -0.6087614290095387 -0.7933533402906074 0.0
  outer loop
    vertex 417.45561792104183 764.3672842855119 11.49999999999996
    vertex 417.7662780928216 764.1289063516147 13.249999999999968
    vertex 417.45561792104183 764.3672842855119 13.249999999999968
  endloop
endfacet
facet normal -0.9914448613738385 0.13052619221983833 0.0
  outer loop
    vertex 417.0673893533881 765.8161730249451 13.249999999999968
    vertex 417.0162780928218 765.4279444572912 11.49999999999996
    vertex 417.0162780928218 765.4279444572912 13.249999999999968
  endloop
endfacet
facet normal -0.9914448613738385 0.13052619221983833 0.0
  outer loop
    vertex 417.0162780928218 765.4279444572912 11.49999999999996
    vertex 417.0673893533881 765.8161730249451 13.249999999999968
    vertex 417.0673893533881 765.8161730249451 11.49999999999996
  endloop
endfacet
facet normal -0.0 -0.0 1.0
  outer loop
    vertex 447.5673893533882 765.0397158896378 13.24999999999995
    vertex 447.5673893533882 765.8161730249451 13.24999999999995
    vertex 447.5162780928219 765.4279444572912 13.24999999999995
  endloop
endfacet
facet normal -0.0 -0.0 1.0
  outer loop
    vertex 447.5673893533882 765.8161730249451 13.24999999999995
    vertex 447.5673893533882 765.0397158896378 13.24999999999995
    vertex 447.71723998714515 764.6779444572912 13.24999999999995
  endloop
endfacet
facet normal -0.0 -0.0 1.0
  outer loop
    vertex 447.5673893533882 765.8161730249451 13.24999999999995
    vertex 447.71723998714515 764.6779444572912 13.24999999999995
    vertex 447.71723998714515 766.177944457291 13.24999999999995
  endloop
endfacet
facet normal -0.0 -0.0 1.0
  outer loop
    vertex 447.71723998714515 766.177944457291 13.24999999999995
    vertex 447.71723998714515 764.6779444572912 13.24999999999995
    vertex 447.9556179210419 764.3672842855119 13.24999999999995
  endloop
endfacet
facet normal -0.0 -0.0 1.0
  outer loop
    vertex 447.71723998714515 766.177944457291 13.24999999999995
    vertex 447.9556179210419 764.3672842855119 13.24999999999995
    vertex 447.9556179210419 766.488604629071 13.24999999999995
  endloop
endfacet
facet normal -0.0 -0.0 1.0
  outer loop
    vertex 447.9556179210419 766.488604629071 13.24999999999995
    vertex 447.9556179210419 764.3672842855119 13.24999999999995
    vertex 448.2662780928217 764.1289063516147 13.24999999999995
  endloop
endfacet
facet normal -0.0 -0.0 1.0
  outer loop
    vertex 447.9556179210419 766.488604629071 13.24999999999995
    vertex 448.2662780928217 764.1289063516147 13.24999999999995
    vertex 448.2662780928217 766.7269825629676 13.24999999999995
  endloop
endfacet
facet normal -0.0 -0.0 1.0
  outer loop
    vertex 448.2662780928217 766.7269825629676 13.24999999999995
    vertex 448.2662780928217 764.1289063516147 13.24999999999995
    vertex 448.6280495251678 763.9790557178578 13.24999999999995
  endloop
endfacet
facet normal -0.0 -0.0 1.0
  outer loop
    vertex 448.2662780928217 766.7269825629676 13.24999999999995
    vertex 448.6280495251678 763.9790557178578 13.24999999999995
    vertex 448.6280495251678 766.8768331967252 13.24999999999995
  endloop
endfacet
facet normal -0.0 -0.0 1.0
  outer loop
    vertex 448.6280495251678 766.8768331967252 13.24999999999995
    vertex 448.6280495251678 763.9790557178578 13.24999999999995
    vertex 449.01627809282155 763.9279444572916 13.24999999999995
  endloop
endfacet
facet normal -0.0 -0.0 1.0
  outer loop
    vertex 448.6280495251678 766.8768331967252 13.24999999999995
    vertex 449.01627809282155 763.9279444572916 13.24999999999995
    vertex 449.01627809282155 766.9279444572912 13.24999999999995
  endloop
endfacet
facet normal -0.0 -0.0 1.0
  outer loop
    vertex 449.01627809282155 766.9279444572912 13.24999999999995
    vertex 449.01627809282155 763.9279444572916 13.24999999999995
    vertex 449.40450666047525 763.9790557178578 13.24999999999995
  endloop
endfacet
facet normal -0.0 -0.0 1.0
  outer loop
    vertex 449.01627809282155 766.9279444572912 13.24999999999995
    vertex 449.40450666047525 763.9790557178578 13.24999999999995
    vertex 449.40450666047525 766.8768331967252 13.24999999999995
  endloop
endfacet
facet normal -0.0 -0.0 1.0
  outer loop
    vertex 449.40450666047525 766.8768331967252 13.24999999999995
    vertex 449.40450666047525 763.9790557178578 13.24999999999995
    vertex 449.7662780928214 764.1289063516147 13.24999999999995
  endloop
endfacet
facet normal -0.0 -0.0 1.0
  outer loop
    vertex 449.40450666047525 766.8768331967252 13.24999999999995
    vertex 449.7662780928214 764.1289063516147 13.24999999999995
    vertex 449.7662780928214 766.7269825629676 13.24999999999995
  endloop
endfacet
facet normal -0.0 -0.0 1.0
  outer loop
    vertex 449.7662780928214 766.7269825629676 13.24999999999995
    vertex 449.7662780928214 764.1289063516147 13.24999999999995
    vertex 450.07693826460115 764.3672842855119 13.24999999999995
  endloop
endfacet
facet normal -0.0 -0.0 1.0
  outer loop
    vertex 449.7662780928214 766.7269825629676 13.24999999999995
    vertex 450.07693826460115 764.3672842855119 13.24999999999995
    vertex 450.07693826460115 766.488604629071 13.24999999999995
  endloop
endfacet
facet normal -0.0 -0.0 1.0
  outer loop
    vertex 450.07693826460115 766.488604629071 13.24999999999995
    vertex 450.07693826460115 764.3672842855119 13.24999999999995
    vertex 450.31531619849795 764.6779444572912 13.24999999999995
  endloop
endfacet
facet normal -0.0 -0.0 1.0
  outer loop
    vertex 450.07693826460115 766.488604629071 13.24999999999995
    vertex 450.31531619849795 764.6779444572912 13.24999999999995
    vertex 450.31531619849795 766.177944457291 13.24999999999995
  endloop
endfacet
facet normal -0.0 -0.0 1.0
  outer loop
    vertex 450.31531619849795 766.177944457291 13.24999999999995
    vertex 450.31531619849795 764.6779444572912 13.24999999999995
    vertex 450.46516683225485 765.0397158896378 13.24999999999995
  endloop
endfacet
facet normal -0.0 -0.0 1.0
  outer loop
    vertex 450.31531619849795 766.177944457291 13.24999999999995
    vertex 450.46516683225485 765.0397158896378 13.24999999999995
    vertex 450.46516683225485 765.8161730249451 13.24999999999995
  endloop
endfacet
facet normal -0.0 -0.0 1.0
  outer loop
    vertex 450.46516683225485 765.8161730249451 13.24999999999995
    vertex 450.46516683225485 765.0397158896378 13.24999999999995
    vertex 450.5162780928212 765.4279444572912 13.24999999999995
  endloop
endfacet
facet normal -0.0 -0.0 1.0
  outer loop
    vertex 417.0673893533881 765.0397158896378 13.249999999999968
    vertex 417.0673893533881 765.8161730249451 13.249999999999968
    vertex 417.0162780928218 765.4279444572912 13.249999999999968
  endloop
endfacet
facet normal -0.0 -0.0 1.0
  outer loop
    vertex 417.0673893533881 765.8161730249451 13.249999999999968
    vertex 417.0673893533881 765.0397158896378 13.249999999999968
    vertex 417.11368659655193 764.9279444572911 13.249999999999968
  endloop
endfacet
facet normal -0.0 -0.0 1.0
  outer loop
    vertex 417.0673893533881 765.8161730249451 13.249999999999968
    vertex 417.11368659655193 764.9279444572911 13.249999999999968
    vertex 417.11368659655176 765.9279444572911 13.249999999999968
  endloop
endfacet
facet normal -0.0 -0.0 1.0
  outer loop
    vertex 417.11368659655176 765.9279444572911 13.249999999999968
    vertex 417.11368659655193 764.9279444572911 13.249999999999968
    vertex 417.21723998714504 766.177944457291 13.249999999999968
  endloop
endfacet
facet normal -0.0 -0.0 1.0
  outer loop
    vertex 417.21723998714504 766.177944457291 13.249999999999968
    vertex 417.11368659655193 764.9279444572911 13.249999999999968
    vertex 417.21723998714504 764.6779444572912 13.249999999999968
  endloop
endfacet
facet normal -0.0 -0.0 1.0
  outer loop
    vertex 417.21723998714504 766.177944457291 13.249999999999968
    vertex 417.21723998714504 764.6779444572912 13.249999999999968
    vertex 417.45561792104183 764.3672842855119 13.249999999999968
  endloop
endfacet
facet normal -0.0 -0.0 1.0
  outer loop
    vertex 417.21723998714504 766.177944457291 13.249999999999968
    vertex 417.45561792104183 764.3672842855119 13.249999999999968
    vertex 417.40907173413984 766.427944457291 13.249999999999968
  endloop
endfacet
facet normal -0.0 -0.0 1.0
  outer loop
    vertex 417.40907173413984 766.427944457291 13.249999999999968
    vertex 417.45561792104183 764.3672842855119 13.249999999999968
    vertex 417.45561792104183 766.488604629071 13.249999999999968
  endloop
endfacet
facet normal -0.0 -0.0 1.0
  outer loop
    vertex 417.45561792104183 766.488604629071 13.249999999999968
    vertex 417.45561792104183 764.3672842855119 13.249999999999968
    vertex 417.7662780928216 764.1289063516147 13.249999999999968
  endloop
endfacet
facet normal -0.0 -0.0 1.0
  outer loop
    vertex 417.45561792104183 766.488604629071 13.249999999999968
    vertex 417.7662780928216 764.1289063516147 13.249999999999968
    vertex 417.7662780928216 766.7269825629676 13.249999999999968
  endloop
endfacet
facet normal -0.0 -0.0 1.0
  outer loop
    vertex 417.7662780928216 766.7269825629676 13.249999999999968
    vertex 417.7662780928216 764.1289063516147 13.249999999999968
    vertex 418.0162780928214 764.0253529610217 13.249999999999968
  endloop
endfacet
facet normal -0.0 -0.0 1.0
  outer loop
    vertex 417.7662780928216 766.7269825629676 13.249999999999968
    vertex 418.0162780928214 764.0253529610217 13.249999999999968
    vertex 418.12804952516774 766.8768331967252 13.249999999999968
  endloop
endfacet
facet normal -0.0 -0.0 1.0
  outer loop
    vertex 418.12804952516774 766.8768331967252 13.249999999999968
    vertex 418.0162780928214 764.0253529610217 13.249999999999968
    vertex 418.12804952516774 763.9790557178578 13.249999999999968
  endloop
endfacet
facet normal -0.0 -0.0 1.0
  outer loop
    vertex 418.12804952516774 766.8768331967252 13.249999999999968
    vertex 418.12804952516774 763.9790557178578 13.249999999999968
    vertex 418.51627809282144 763.9279444572916 13.249999999999968
  endloop
endfacet
facet normal -0.0 -0.0 1.0
  outer loop
    vertex 418.12804952516774 766.8768331967252 13.249999999999968
    vertex 418.51627809282144 763.9279444572916 13.249999999999968
    vertex 418.51627809282144 766.9279444572912 13.249999999999968
  endloop
endfacet
facet normal -0.0 -0.0 1.0
  outer loop
    vertex 418.51627809282144 766.9279444572912 13.249999999999968
    vertex 418.51627809282144 763.9279444572916 13.249999999999968
    vertex 418.90450666047514 763.9790557178578 13.249999999999968
  endloop
endfacet
facet normal -0.0 -0.0 1.0
  outer loop
    vertex 418.51627809282144 766.9279444572912 13.249999999999968
    vertex 418.90450666047514 763.9790557178578 13.249999999999968
    vertex 418.90450666047514 766.8768331967252 13.249999999999968
  endloop
endfacet
facet normal -0.0 -0.0 1.0
  outer loop
    vertex 418.90450666047514 766.8768331967252 13.249999999999968
    vertex 418.90450666047514 763.9790557178578 13.249999999999968
    vertex 419.0162780928213 764.0253529610217 13.249999999999968
  endloop
endfacet
facet normal -0.0 -0.0 1.0
  outer loop
    vertex 418.90450666047514 766.8768331967252 13.249999999999968
    vertex 419.0162780928213 764.0253529610217 13.249999999999968
    vertex 419.26627809282127 766.7269825629676 13.249999999999968
  endloop
endfacet
facet normal -0.0 -0.0 1.0
  outer loop
    vertex 419.26627809282127 766.7269825629676 13.249999999999968
    vertex 419.0162780928213 764.0253529610217 13.249999999999968
    vertex 419.26627809282127 764.1289063516147 13.249999999999968
  endloop
endfacet
facet normal -0.0 -0.0 1.0
  outer loop
    vertex 419.26627809282127 766.7269825629676 13.249999999999968
    vertex 419.26627809282127 764.1289063516147 13.249999999999968
    vertex 419.57693826460087 764.3672842855119 13.249999999999968
  endloop
endfacet
facet normal -0.0 -0.0 1.0
  outer loop
    vertex 419.26627809282127 766.7269825629676 13.249999999999968
    vertex 419.57693826460087 764.3672842855119 13.249999999999968
    vertex 419.57693826460087 766.488604629071 13.249999999999968
  endloop
endfacet
facet normal -0.0 -0.0 1.0
  outer loop
    vertex 419.57693826460087 766.488604629071 13.249999999999968
    vertex 419.57693826460087 764.3672842855119 13.249999999999968
    vertex 419.81531619849767 764.6779444572912 13.249999999999968
  endloop
endfacet
facet normal -0.0 -0.0 1.0
  outer loop
    vertex 419.57693826460087 766.488604629071 13.249999999999968
    vertex 419.81531619849767 764.6779444572912 13.249999999999968
    vertex 419.81531619849767 766.177944457291 13.249999999999968
  endloop
endfacet
facet normal -0.0 -0.0 1.0
  outer loop
    vertex 419.81531619849767 766.177944457291 13.249999999999968
    vertex 419.81531619849767 764.6779444572912 13.249999999999968
    vertex 419.96516683225457 765.0397158896378 13.249999999999968
  endloop
endfacet
facet normal -0.0 -0.0 1.0
  outer loop
    vertex 419.81531619849767 766.177944457291 13.249999999999968
    vertex 419.96516683225457 765.0397158896378 13.249999999999968
    vertex 419.96516683225457 765.8161730249451 13.249999999999968
  endloop
endfacet
facet normal -0.0 -0.0 1.0
  outer loop
    vertex 419.96516683225457 765.8161730249451 13.249999999999968
    vertex 419.96516683225457 765.0397158896378 13.249999999999968
    vertex 420.0162780928211 765.4279444572912 13.249999999999968
  endloop
endfacet
facet normal 0.3826834323667215 0.9238795325106108 -0.0
  outer loop
    vertex 418.90450666047514 766.8768331967252 13.249999999999968
    vertex 419.26627809282127 766.7269825629676 11.49999999999996
    vertex 418.90450666047514 766.8768331967252 11.49999999999996
  endloop
endfacet
facet normal 0.3826834323667215 0.9238795325106108 -0.0
  outer loop
    vertex 419.26627809282127 766.7269825629676 11.49999999999996
    vertex 418.90450666047514 766.8768331967252 13.249999999999968
    vertex 419.26627809282127 766.7269825629676 13.249999999999968
  endloop
endfacet
facet normal -0.7933533402907629 -0.6087614290093362 0.0
  outer loop
    vertex 447.71723998714515 764.6779444572912 13.24999999999995
    vertex 447.9556179210419 764.3672842855119 11.499999999999956
    vertex 447.9556179210419 764.3672842855119 13.24999999999995
  endloop
endfacet
facet normal -0.7933533402907629 -0.6087614290093362 0.0
  outer loop
    vertex 447.9556179210419 764.3672842855119 11.499999999999956
    vertex 447.71723998714515 764.6779444572912 13.24999999999995
    vertex 447.71723998714515 764.6779444572912 11.499999999999956
  endloop
endfacet
facet normal -0.130526192219898 -0.9914448613738308 0.0
  outer loop
    vertex 418.51627809282144 763.9279444572916 13.249999999999968
    vertex 418.12804952516774 763.9790557178578 11.49999999999996
    vertex 418.51627809282144 763.9279444572916 11.49999999999996
  endloop
endfacet
facet normal -0.130526192219898 -0.9914448613738308 0.0
  outer loop
    vertex 418.12804952516774 763.9790557178578 11.49999999999996
    vertex 418.51627809282144 763.9279444572916 13.249999999999968
    vertex 418.12804952516774 763.9790557178578 13.249999999999968
  endloop
endfacet
facet normal -0.7933533402914461 0.6087614290084458 0.0
  outer loop
    vertex 447.9556179210419 766.488604629071 13.24999999999995
    vertex 447.71723998714515 766.177944457291 11.499999999999956
    vertex 447.71723998714515 766.177944457291 13.24999999999995
  endloop
endfacet
facet normal -0.7933533402914461 0.6087614290084458 0.0
  outer loop
    vertex 447.71723998714515 766.177944457291 11.499999999999956
    vertex 447.9556179210419 766.488604629071 13.24999999999995
    vertex 447.9556179210419 766.488604629071 11.499999999999956
  endloop
endfacet
facet normal -0.0 -0.0 1.0
  outer loop
    vertex 450.51627809282155 791.4279444572925 11.499999999999957
    vertex 446.51627809282155 796.4279444572928 11.499999999999957
    vertex 446.51627809282155 791.4279444572925 11.499999999999957
  endloop
endfacet
facet normal -0.0 -0.0 1.0
  outer loop
    vertex 446.51627809282155 796.4279444572928 11.499999999999957
    vertex 450.51627809282155 791.4279444572925 11.499999999999957
    vertex 451.5162780928215 796.4279444572928 11.499999999999957
  endloop
endfacet
facet normal -0.0 -0.0 1.0
  outer loop
    vertex 451.5162780928215 796.4279444572928 11.499999999999957
    vertex 450.51627809282155 791.4279444572925 11.499999999999957
    vertex 451.5162780928215 791.4279444572925 11.499999999999957
  endloop
endfacet
facet normal 0.6087614290086009 0.7933533402913273 -0.0
  outer loop
    vertex 419.26627809282127 766.7269825629676 13.249999999999968
    vertex 419.57693826460087 766.488604629071 11.49999999999996
    vertex 419.26627809282127 766.7269825629676 11.49999999999996
  endloop
endfacet
facet normal 0.6087614290086009 0.7933533402913273 -0.0
  outer loop
    vertex 419.57693826460087 766.488604629071 11.49999999999996
    vertex 419.26627809282127 766.7269825629676 13.249999999999968
    vertex 419.57693826460087 766.488604629071 13.249999999999968
  endloop
endfacet
facet normal 0.7933533402907629 -0.6087614290093362 -0.0
  outer loop
    vertex 419.81531619849767 764.6779444572912 11.49999999999996
    vertex 419.57693826460087 764.3672842855119 13.249999999999968
    vertex 419.57693826460087 764.3672842855119 11.49999999999996
  endloop
endfacet
facet normal 0.7933533402907629 -0.6087614290093362 -0.0
  outer loop
    vertex 419.57693826460087 764.3672842855119 13.249999999999968
    vertex 419.81531619849767 764.6779444572912 11.49999999999996
    vertex 419.81531619849767 764.6779444572912 13.249999999999968
  endloop
endfacet
facet normal 0.3826834323667215 0.9238795325106108 -0.0
  outer loop
    vertex 449.40450666047525 766.8768331967252 13.24999999999995
    vertex 449.7662780928214 766.7269825629676 11.499999999999956
    vertex 449.40450666047525 766.8768331967252 11.499999999999956
  endloop
endfacet
facet normal 0.3826834323667215 0.9238795325106108 -0.0
  outer loop
    vertex 449.7662780928214 766.7269825629676 11.499999999999956
    vertex 449.40450666047525 766.8768331967252 13.24999999999995
    vertex 449.7662780928214 766.7269825629676 13.24999999999995
  endloop
endfacet
facet normal -0.3826834323667215 0.9238795325106108 -0.0
  outer loop
    vertex 417.7662780928216 766.7269825629676 13.249999999999968
    vertex 418.12804952516774 766.8768331967252 11.49999999999996
    vertex 417.7662780928216 766.7269825629676 11.49999999999996
  endloop
endfacet
facet normal -0.3826834323667215 0.9238795325106108 -0.0
  outer loop
    vertex 418.12804952516774 766.8768331967252 11.49999999999996
    vertex 417.7662780928216 766.7269825629676 13.249999999999968
    vertex 418.12804952516774 766.8768331967252 13.249999999999968
  endloop
endfacet
facet normal 0.9914448613737789 0.13052619222029138 -0.0
  outer loop
    vertex 419.96516683225457 765.8161730249451 11.49999999999996
    vertex 420.0162780928211 765.4279444572912 13.249999999999968
    vertex 420.0162780928211 765.4279444572912 11.49999999999996
  endloop
endfacet
facet normal 0.9914448613737789 0.13052619222029138 -0.0
  outer loop
    vertex 420.0162780928211 765.4279444572912 13.249999999999968
    vertex 419.96516683225457 765.8161730249451 11.49999999999996
    vertex 419.96516683225457 765.8161730249451 13.249999999999968
  endloop
endfacet
facet normal 0.3826834323639941 -0.9238795325117406 0.0
  outer loop
    vertex 419.26627809282127 764.1289063516147 13.249999999999968
    vertex 419.0162780928213 764.0253529610217 11.49999999999996
    vertex 419.26627809282127 764.1289063516147 11.49999999999996
  endloop
endfacet
facet normal 0.3826834323639941 -0.9238795325117406 0.0
  outer loop
    vertex 419.0162780928213 764.0253529610217 11.49999999999996
    vertex 419.26627809282127 764.1289063516147 13.249999999999968
    vertex 419.0162780928213 764.0253529610217 13.249999999999968
  endloop
endfacet
facet normal 0.0 -1.0 0.0
  outer loop
    vertex 421.0162780928214 791.4279444572925 -2.9609648066752924e-14
    vertex 418.0162780928214 791.4279444572925 7.499999999999971
    vertex 418.0162780928214 791.4279444572925 -3.101963130802687e-14
  endloop
endfacet
facet normal 0.0 -1.0 0.0
  outer loop
    vertex 418.0162780928214 791.4279444572925 7.499999999999971
    vertex 421.0162780928214 791.4279444572925 -2.9609648066752924e-14
    vertex 421.0162780928214 791.4279444572925 11.499999999999963
  endloop
endfacet
facet normal 0.0 -1.0 0.0
  outer loop
    vertex 418.0162780928214 791.4279444572925 7.499999999999971
    vertex 421.0162780928214 791.4279444572925 11.499999999999963
    vertex 417.01627809282144 791.4279444572925 7.499999999999971
  endloop
endfacet
facet normal 0.0 -1.0 0.0
  outer loop
    vertex 417.01627809282144 791.4279444572925 7.499999999999971
    vertex 421.0162780928214 791.4279444572925 11.499999999999963
    vertex 417.01627809282144 791.4279444572925 11.499999999999963
  endloop
endfacet
facet normal 0.3826834323647545 -0.9238795325114256 0.0
  outer loop
    vertex 449.7662780928214 764.1289063516147 13.24999999999995
    vertex 449.40450666047525 763.9790557178578 11.499999999999956
    vertex 449.7662780928214 764.1289063516147 11.499999999999956
  endloop
endfacet
facet normal 0.3826834323647545 -0.9238795325114256 0.0
  outer loop
    vertex 449.40450666047525 763.9790557178578 11.499999999999956
    vertex 449.7662780928214 764.1289063516147 13.24999999999995
    vertex 449.40450666047525 763.9790557178578 13.24999999999995
  endloop
endfacet
facet normal -0.3826834323667215 0.9238795325106108 -0.0
  outer loop
    vertex 448.2662780928217 766.7269825629676 13.24999999999995
    vertex 448.6280495251678 766.8768331967252 11.499999999999956
    vertex 448.2662780928217 766.7269825629676 11.499999999999956
  endloop
endfacet
facet normal -0.3826834323667215 0.9238795325106108 -0.0
  outer loop
    vertex 448.6280495251678 766.8768331967252 11.499999999999956
    vertex 448.2662780928217 766.7269825629676 13.24999999999995
    vertex 448.6280495251678 766.8768331967252 13.24999999999995
  endloop
endfacet
facet normal -0.3826834323659278 -0.9238795325109397 0.0
  outer loop
    vertex 418.12804952516774 763.9790557178578 13.249999999999968
    vertex 418.0162780928214 764.0253529610217 11.49999999999996
    vertex 418.12804952516774 763.9790557178578 11.49999999999996
  endloop
endfacet
facet normal -0.3826834323659278 -0.9238795325109397 0.0
  outer loop
    vertex 418.0162780928214 764.0253529610217 11.49999999999996
    vertex 418.12804952516774 763.9790557178578 13.249999999999968
    vertex 418.0162780928214 764.0253529610217 13.249999999999968
  endloop
endfacet
facet normal -0.9238795325113766 -0.3826834323648729 0.0
  outer loop
    vertex 417.0673893533881 765.0397158896378 13.249999999999968
    vertex 417.11368659655193 764.9279444572911 11.49999999999996
    vertex 417.11368659655193 764.9279444572911 13.249999999999968
  endloop
endfacet
facet normal -0.9238795325113766 -0.3826834323648729 0.0
  outer loop
    vertex 417.11368659655193 764.9279444572911 11.49999999999996
    vertex 417.0673893533881 765.0397158896378 13.249999999999968
    vertex 417.0673893533881 765.0397158896378 11.49999999999996
  endloop
endfacet
facet normal 1.0 -0.0 -0.0
  outer loop
    vertex 418.0162780928214 791.4279444572925 -3.101963130802687e-14
    vertex 418.0162780928214 767.927944457292 7.499999999999971
    vertex 418.0162780928214 767.927944457292 -3.101963130802687e-14
  endloop
endfacet
facet normal 1.0 -0.0 -0.0
  outer loop
    vertex 418.0162780928214 767.927944457292 7.499999999999971
    vertex 418.0162780928214 791.4279444572925 -3.101963130802687e-14
    vertex 418.0162780928214 791.4279444572925 7.499999999999971
  endloop
endfacet
facet normal -0.7933533402932348 0.6087614290061149 0.0
  outer loop
    vertex 417.45561792104183 766.488604629071 13.249999999999968
    vertex 417.40907173413984 766.427944457291 11.49999999999996
    vertex 417.40907173413984 766.427944457291 13.249999999999968
  endloop
endfacet
facet normal -0.7933533402932348 0.6087614290061149 0.0
  outer loop
    vertex 417.40907173413984 766.427944457291 11.49999999999996
    vertex 417.45561792104183 766.488604629071 13.249999999999968
    vertex 417.45561792104183 766.488604629071 11.49999999999996
  endloop
endfacet
facet normal 0.7933533402914461 0.6087614290084458 -0.0
  outer loop
    vertex 450.07693826460115 766.488604629071 11.499999999999956
    vertex 450.31531619849795 766.177944457291 13.24999999999995
    vertex 450.31531619849795 766.177944457291 11.499999999999956
  endloop
endfacet
facet normal 0.7933533402914461 0.6087614290084458 -0.0
  outer loop
    vertex 450.31531619849795 766.177944457291 13.24999999999995
    vertex 450.07693826460115 766.488604629071 11.499999999999956
    vertex 450.07693826460115 766.488604629071 13.24999999999995
  endloop
endfacet
facet normal -0.6087614290095387 -0.7933533402906074 0.0
  outer loop
    vertex 448.2662780928217 764.1289063516147 13.24999999999995
    vertex 447.9556179210419 764.3672842855119 11.499999999999956
    vertex 448.2662780928217 764.1289063516147 11.499999999999956
  endloop
endfacet
facet normal -0.6087614290095387 -0.7933533402906074 0.0
  outer loop
    vertex 447.9556179210419 764.3672842855119 11.499999999999956
    vertex 448.2662780928217 764.1289063516147 13.24999999999995
    vertex 447.9556179210419 764.3672842855119 13.24999999999995
  endloop
endfacet
facet normal -0.0 1.0 -0.0
  outer loop
    vertex 421.0162780928214 764.9279444572911 7.499999999999965
    vertex 446.51627809282155 764.9279444572911 -2.9609648066752924e-14
    vertex 421.0162780928214 764.9279444572911 -2.9609648066752924e-14
  endloop
endfacet
facet normal -0.0 1.0 -0.0
  outer loop
    vertex 446.51627809282155 764.9279444572911 -2.9609648066752924e-14
    vertex 421.0162780928214 764.9279444572911 7.499999999999965
    vertex 446.51627809282155 764.9279444572911 7.499999999999965
  endloop
endfacet
facet normal -0.6087614290083784 0.7933533402914981 -0.0
  outer loop
    vertex 447.9556179210419 766.488604629071 13.24999999999995
    vertex 448.2662780928217 766.7269825629676 11.499999999999956
    vertex 447.9556179210419 766.488604629071 11.499999999999956
  endloop
endfacet
facet normal -0.6087614290083784 0.7933533402914981 -0.0
  outer loop
    vertex 448.2662780928217 766.7269825629676 11.499999999999956
    vertex 447.9556179210419 766.488604629071 13.24999999999995
    vertex 448.2662780928217 766.7269825629676 13.24999999999995
  endloop
endfacet
facet normal 0.9914448613738149 -0.1305261922200173 -0.0
  outer loop
    vertex 450.5162780928212 765.4279444572912 11.499999999999956
    vertex 450.46516683225485 765.0397158896378 13.24999999999995
    vertex 450.46516683225485 765.0397158896378 11.499999999999956
  endloop
endfacet
facet normal 0.9914448613738149 -0.1305261922200173 -0.0
  outer loop
    vertex 450.46516683225485 765.0397158896378 13.24999999999995
    vertex 450.5162780928212 765.4279444572912 11.499999999999956
    vertex 450.5162780928212 765.4279444572912 13.24999999999995
  endloop
endfacet
facet normal 0.13052619221989803 -0.9914448613738306 0.0
  outer loop
    vertex 449.40450666047525 763.9790557178578 13.24999999999995
    vertex 449.01627809282155 763.9279444572916 11.499999999999956
    vertex 449.40450666047525 763.9790557178578 11.499999999999956
  endloop
endfacet
facet normal 0.13052619221989803 -0.9914448613738306 0.0
  outer loop
    vertex 449.01627809282155 763.9279444572916 11.499999999999956
    vertex 449.40450666047525 763.9790557178578 13.24999999999995
    vertex 449.01627809282155 763.9279444572916 13.24999999999995
  endloop
endfacet
facet normal 0.7933533402907629 -0.6087614290093362 -0.0
  outer loop
    vertex 450.31531619849795 764.6779444572912 11.499999999999956
    vertex 450.07693826460115 764.3672842855119 13.24999999999995
    vertex 450.07693826460115 764.3672842855119 11.499999999999956
  endloop
endfacet
facet normal 0.7933533402907629 -0.6087614290093362 -0.0
  outer loop
    vertex 450.07693826460115 764.3672842855119 13.24999999999995
    vertex 450.31531619849795 764.6779444572912 11.499999999999956
    vertex 450.31531619849795 764.6779444572912 13.24999999999995
  endloop
endfacet
facet normal 0.3826834323664552 -0.9238795325107212 0.0
  outer loop
    vertex 419.0162780928213 764.0253529610217 13.249999999999968
    vertex 418.90450666047514 763.9790557178578 11.49999999999996
    vertex 419.0162780928213 764.0253529610217 11.49999999999996
  endloop
endfacet
facet normal 0.3826834323664552 -0.9238795325107212 0.0
  outer loop
    vertex 418.90450666047514 763.9790557178578 11.49999999999996
    vertex 419.0162780928213 764.0253529610217 13.249999999999968
    vertex 418.90450666047514 763.9790557178578 13.249999999999968
  endloop
endfacet
facet normal -0.9914448613738149 -0.13052619222001727 0.0
  outer loop
    vertex 417.0162780928218 765.4279444572912 13.249999999999968
    vertex 417.0673893533881 765.0397158896378 11.49999999999996
    vertex 417.0673893533881 765.0397158896378 13.249999999999968
  endloop
endfacet
facet normal -0.9914448613738149 -0.13052619222001727 0.0
  outer loop
    vertex 417.0673893533881 765.0397158896378 11.49999999999996
    vertex 417.0162780928218 765.4279444572912 13.249999999999968
    vertex 417.0162780928218 765.4279444572912 11.49999999999996
  endloop
endfacet
facet normal 0.6087614290097613 -0.7933533402904367 0.0
  outer loop
    vertex 419.57693826460087 764.3672842855119 13.249999999999968
    vertex 419.26627809282127 764.1289063516147 11.49999999999996
    vertex 419.57693826460087 764.3672842855119 11.49999999999996
  endloop
endfacet
facet normal 0.6087614290097613 -0.7933533402904367 0.0
  outer loop
    vertex 419.26627809282127 764.1289063516147 11.49999999999996
    vertex 419.57693826460087 764.3672842855119 13.249999999999968
    vertex 419.26627809282127 764.1289063516147 13.249999999999968
  endloop
endfacet
facet normal -0.0 1.0 -0.0
  outer loop
    vertex 416.01627809282144 767.927944457292 11.49999999999996
    vertex 418.0162780928214 767.927944457292 7.499999999999971
    vertex 416.01627809282144 767.927944457292 7.499999999999971
  endloop
endfacet
facet normal -0.0 1.0 -0.0
  outer loop
    vertex 418.0162780928214 767.927944457292 7.499999999999971
    vertex 421.0162780928214 767.927944457292 -2.9609648066752924e-14
    vertex 418.0162780928214 767.927944457292 -3.101963130802687e-14
  endloop
endfacet
facet normal -0.0 1.0 -0.0
  outer loop
    vertex 421.0162780928214 767.927944457292 -2.9609648066752924e-14
    vertex 418.0162780928214 767.927944457292 7.499999999999971
    vertex 421.0162780928214 767.927944457292 11.49999999999996
  endloop
endfacet
facet normal -0.0 1.0 -0.0
  outer loop
    vertex 421.0162780928214 767.927944457292 11.49999999999996
    vertex 418.0162780928214 767.927944457292 7.499999999999971
    vertex 416.01627809282144 767.927944457292 11.49999999999996
  endloop
endfacet
facet normal -0.3826834323647545 -0.9238795325114256 0.0
  outer loop
    vertex 448.6280495251678 763.9790557178578 13.24999999999995
    vertex 448.2662780928217 764.1289063516147 11.499999999999956
    vertex 448.6280495251678 763.9790557178578 11.499999999999956
  endloop
endfacet
facet normal -0.3826834323647545 -0.9238795325114256 0.0
  outer loop
    vertex 448.2662780928217 764.1289063516147 11.499999999999956
    vertex 448.6280495251678 763.9790557178578 13.24999999999995
    vertex 448.2662780928217 764.1289063516147 13.24999999999995
  endloop
endfacet
facet normal 0.6087614290095387 -0.7933533402906074 0.0
  outer loop
    vertex 450.07693826460115 764.3672842855119 13.24999999999995
    vertex 449.7662780928214 764.1289063516147 11.499999999999956
    vertex 450.07693826460115 764.3672842855119 11.499999999999956
  endloop
endfacet
facet normal 0.6087614290095387 -0.7933533402906074 0.0
  outer loop
    vertex 449.7662780928214 764.1289063516147 11.499999999999956
    vertex 450.07693826460115 764.3672842855119 13.24999999999995
    vertex 449.7662780928214 764.1289063516147 13.24999999999995
  endloop
endfacet
facet normal -1.0 0.0 0.0
  outer loop
    vertex 449.51627809282144 791.4279444572925 7.499999999999976
    vertex 449.51627809282144 767.927944457292 -2.9609648066752924e-14
    vertex 449.51627809282144 767.927944457292 7.499999999999976
  endloop
endfacet
facet normal -1.0 0.0 0.0
  outer loop
    vertex 449.51627809282144 767.927944457292 -2.9609648066752924e-14
    vertex 449.51627809282144 791.4279444572925 7.499999999999976
    vertex 449.51627809282144 791.4279444572925 -2.9609648066752924e-14
  endloop
endfacet
facet normal 1.0 -0.0 -0.0
  outer loop
    vertex 421.0162780928214 796.4279444572928 -2.9609648066752924e-14
    vertex 421.0162780928214 791.4279444572925 11.499999999999963
    vertex 421.0162780928214 791.4279444572925 -2.9609648066752924e-14
  endloop
endfacet
facet normal 1.0 -0.0 -0.0
  outer loop
    vertex 421.0162780928214 791.4279444572925 11.499999999999963
    vertex 421.0162780928214 796.4279444572928 -2.9609648066752924e-14
    vertex 421.0162780928214 796.4279444572928 11.499999999999963
  endloop
endfacet
facet normal -0.9238795325111954 0.3826834323653109 0.0
  outer loop
    vertex 447.71723998714515 766.177944457291 13.24999999999995
    vertex 447.5673893533882 765.8161730249451 11.499999999999956
    vertex 447.5673893533882 765.8161730249451 13.24999999999995
  endloop
endfacet
facet normal -0.9238795325111954 0.3826834323653109 0.0
  outer loop
    vertex 447.5673893533882 765.8161730249451 11.499999999999956
    vertex 447.71723998714515 766.177944457291 13.24999999999995
    vertex 447.71723998714515 766.177944457291 11.499999999999956
  endloop
endfacet
facet normal 1.0 -0.0 -0.0
  outer loop
    vertex 421.0162780928214 763.9279444572912 7.499999999999965
    vertex 421.0162780928214 762.927944457291 11.49999999999996
    vertex 421.0162780928214 762.927944457291 7.499999999999965
  endloop
endfacet
facet normal 1.0 -0.0 -0.0
  outer loop
    vertex 421.0162780928214 762.927944457291 11.49999999999996
    vertex 421.0162780928214 763.9279444572912 7.499999999999965
    vertex 421.0162780928214 763.9279444572912 11.49999999999996
  endloop
endfacet
facet normal 0.0 -1.0 0.0
  outer loop
    vertex 417.01627809282144 791.4279444572925 11.499999999999963
    vertex 416.01627809282144 791.4279444572925 7.499999999999971
    vertex 417.01627809282144 791.4279444572925 7.499999999999971
  endloop
endfacet
facet normal 0.0 -1.0 0.0
  outer loop
    vertex 416.01627809282144 791.4279444572925 7.499999999999971
    vertex 417.01627809282144 791.4279444572925 11.499999999999963
    vertex 416.01627809282144 791.4279444572925 11.499999999999963
  endloop
endfacet
facet normal 0.9914448613737553 -0.13052619222047032 -0.0
  outer loop
    vertex 420.0162780928211 765.4279444572912 11.49999999999996
    vertex 419.96516683225457 765.0397158896378 13.249999999999968
    vertex 419.96516683225457 765.0397158896378 11.49999999999996
  endloop
endfacet
facet normal 0.9914448613737553 -0.13052619222047032 -0.0
  outer loop
    vertex 419.96516683225457 765.0397158896378 13.249999999999968
    vertex 420.0162780928211 765.4279444572912 11.49999999999996
    vertex 420.0162780928211 765.4279444572912 13.249999999999968
  endloop
endfacet
facet normal 0.9914448613738385 0.13052619221983836 -0.0
  outer loop
    vertex 450.46516683225485 765.8161730249451 11.499999999999956
    vertex 450.5162780928212 765.4279444572912 13.24999999999995
    vertex 450.5162780928212 765.4279444572912 11.499999999999956
  endloop
endfacet
facet normal 0.9914448613738385 0.13052619221983836 -0.0
  outer loop
    vertex 450.5162780928212 765.4279444572912 13.24999999999995
    vertex 450.46516683225485 765.8161730249451 11.499999999999956
    vertex 450.46516683225485 765.8161730249451 13.24999999999995
  endloop
endfacet
facet normal 0.7933533402914461 0.6087614290084458 -0.0
  outer loop
    vertex 419.57693826460087 766.488604629071 11.49999999999996
    vertex 419.81531619849767 766.177944457291 13.249999999999968
    vertex 419.81531619849767 766.177944457291 11.49999999999996
  endloop
endfacet
facet normal 0.7933533402914461 0.6087614290084458 -0.0
  outer loop
    vertex 419.81531619849767 766.177944457291 13.249999999999968
    vertex 419.57693826460087 766.488604629071 11.49999999999996
    vertex 419.57693826460087 766.488604629071 13.249999999999968
  endloop
endfacet
facet normal -0.9914448613738149 -0.1305261922200173 0.0
  outer loop
    vertex 447.5162780928219 765.4279444572912 13.24999999999995
    vertex 447.5673893533882 765.0397158896378 11.499999999999956
    vertex 447.5673893533882 765.0397158896378 13.24999999999995
  endloop
endfacet
facet normal -0.9914448613738149 -0.1305261922200173 0.0
  outer loop
    vertex 447.5673893533882 765.0397158896378 11.499999999999956
    vertex 447.5162780928219 765.4279444572912 13.24999999999995
    vertex 447.5162780928219 765.4279444572912 11.499999999999956
  endloop
endfacet
facet normal -0.0 1.0 -0.0
  outer loop
    vertex 416.01627809282144 796.4279444572928 11.499999999999963
    vertex 421.0162780928214 796.4279444572928 -2.9609648066752924e-14
    vertex 416.01627809282144 796.4279444572928 -2.9609648066752924e-14
  endloop
endfacet
facet normal -0.0 1.0 -0.0
  outer loop
    vertex 421.0162780928214 796.4279444572928 -2.9609648066752924e-14
    vertex 416.01627809282144 796.4279444572928 11.499999999999963
    vertex 421.0162780928214 796.4279444572928 11.499999999999963
  endloop
endfacet
facet normal -0.0 -0.0 1.0
  outer loop
    vertex 418.0162780928214 767.927944457292 7.499999999999971
    vertex 416.01627809282144 791.4279444572925 7.499999999999971
    vertex 416.01627809282144 767.927944457292 7.499999999999971
  endloop
endfacet
facet normal -0.0 -0.0 1.0
  outer loop
    vertex 416.01627809282144 791.4279444572925 7.499999999999971
    vertex 418.0162780928214 767.927944457292 7.499999999999971
    vertex 417.01627809282144 791.4279444572925 7.499999999999971
  endloop
endfacet
facet normal -0.0 -0.0 1.0
  outer loop
    vertex 417.01627809282144 791.4279444572925 7.499999999999971
    vertex 418.0162780928214 767.927944457292 7.499999999999971
    vertex 418.0162780928214 791.4279444572925 7.499999999999971
  endloop
endfacet
facet normal 0.0 -1.0 0.0
  outer loop
    vertex 451.5162780928215 791.4279444572925 11.499999999999957
    vertex 450.51627809282155 791.4279444572925 7.499999999999976
    vertex 451.5162780928215 791.4279444572925 7.499999999999976
  endloop
endfacet
facet normal 0.0 -1.0 0.0
  outer loop
    vertex 450.51627809282155 791.4279444572925 7.499999999999976
    vertex 451.5162780928215 791.4279444572925 11.499999999999957
    vertex 450.51627809282155 791.4279444572925 11.499999999999957
  endloop
endfacet
facet normal -0.7933533402910122 0.6087614290090114 0.0
  outer loop
    vertex 417.40907173413984 766.427944457291 13.249999999999968
    vertex 417.21723998714504 766.177944457291 11.49999999999996
    vertex 417.21723998714504 766.177944457291 13.249999999999968
  endloop
endfacet
facet normal -0.7933533402910122 0.6087614290090114 0.0
  outer loop
    vertex 417.21723998714504 766.177944457291 11.49999999999996
    vertex 417.40907173413984 766.427944457291 13.249999999999968
    vertex 417.40907173413984 766.427944457291 11.49999999999996
  endloop
endfacet
facet normal -0.13052619221899192 0.9914448613739499 -0.0
  outer loop
    vertex 448.6280495251678 766.8768331967252 13.24999999999995
    vertex 449.01627809282155 766.9279444572912 11.499999999999956
    vertex 448.6280495251678 766.8768331967252 11.499999999999956
  endloop
endfacet
facet normal -0.13052619221899192 0.9914448613739499 -0.0
  outer loop
    vertex 449.01627809282155 766.9279444572912 11.499999999999956
    vertex 448.6280495251678 766.8768331967252 13.24999999999995
    vertex 449.01627809282155 766.9279444572912 13.24999999999995
  endloop
endfacet
facet normal 0.6087614290083784 0.7933533402914981 -0.0
  outer loop
    vertex 449.7662780928214 766.7269825629676 13.24999999999995
    vertex 450.07693826460115 766.488604629071 11.499999999999956
    vertex 449.7662780928214 766.7269825629676 11.499999999999956
  endloop
endfacet
facet normal 0.6087614290083784 0.7933533402914981 -0.0
  outer loop
    vertex 450.07693826460115 766.488604629071 11.499999999999956
    vertex 449.7662780928214 766.7269825629676 13.24999999999995
    vertex 450.07693826460115 766.488604629071 13.24999999999995
  endloop
endfacet
facet normal -0.0 1.0 -0.0
  outer loop
    vertex 446.51627809282155 767.927944457292 11.499999999999956
    vertex 449.51627809282144 767.927944457292 -2.9609648066752924e-14
    vertex 446.51627809282155 767.927944457292 -2.9609648066752924e-14
  endloop
endfacet
facet normal -0.0 1.0 -0.0
  outer loop
    vertex 449.51627809282144 767.927944457292 -2.9609648066752924e-14
    vertex 446.51627809282155 767.927944457292 11.499999999999956
    vertex 449.51627809282144 767.927944457292 7.499999999999976
  endloop
endfacet
facet normal -0.0 1.0 -0.0
  outer loop
    vertex 449.51627809282144 767.927944457292 7.499999999999976
    vertex 446.51627809282155 767.927944457292 11.499999999999956
    vertex 451.5162780928215 767.927944457292 7.499999999999976
  endloop
endfacet
facet normal -0.0 1.0 -0.0
  outer loop
    vertex 451.5162780928215 767.927944457292 7.499999999999976
    vertex 446.51627809282155 767.927944457292 11.499999999999956
    vertex 451.5162780928215 767.927944457292 11.499999999999956
  endloop
endfacet
facet normal 0.13052619221899192 0.9914448613739499 -0.0
  outer loop
    vertex 449.01627809282155 766.9279444572912 13.24999999999995
    vertex 449.40450666047525 766.8768331967252 11.499999999999956
    vertex 449.01627809282155 766.9279444572912 11.499999999999956
  endloop
endfacet
facet normal 0.13052619221899192 0.9914448613739499 -0.0
  outer loop
    vertex 449.40450666047525 766.8768331967252 11.499999999999956
    vertex 449.01627809282155 766.9279444572912 13.24999999999995
    vertex 449.40450666047525 766.8768331967252 13.24999999999995
  endloop
endfacet
facet normal -0.0 -0.0 1.0
  outer loop
    vertex 417.01627809282144 791.4279444572925 11.499999999999963
    vertex 416.01627809282144 796.4279444572928 11.499999999999963
    vertex 416.01627809282144 791.4279444572925 11.499999999999963
  endloop
endfacet
facet normal -0.0 -0.0 1.0
  outer loop
    vertex 416.01627809282144 796.4279444572928 11.499999999999963
    vertex 417.01627809282144 791.4279444572925 11.499999999999963
    vertex 421.0162780928214 796.4279444572928 11.499999999999963
  endloop
endfacet
facet normal -0.0 -0.0 1.0
  outer loop
    vertex 421.0162780928214 796.4279444572928 11.499999999999963
    vertex 417.01627809282144 791.4279444572925 11.499999999999963
    vertex 421.0162780928214 791.4279444572925 11.499999999999963
  endloop
endfacet
facet normal -0.13052619221989803 -0.9914448613738306 0.0
  outer loop
    vertex 449.01627809282155 763.9279444572916 13.24999999999995
    vertex 448.6280495251678 763.9790557178578 11.499999999999956
    vertex 449.01627809282155 763.9279444572916 11.499999999999956
  endloop
endfacet
facet normal -0.13052619221989803 -0.9914448613738306 0.0
  outer loop
    vertex 448.6280495251678 763.9790557178578 11.499999999999956
    vertex 449.01627809282155 763.9279444572916 13.24999999999995
    vertex 448.6280495251678 763.9790557178578 13.24999999999995
  endloop
endfacet
facet normal -0.9914448613738385 0.13052619221983836 0.0
  outer loop
    vertex 447.5673893533882 765.8161730249451 13.24999999999995
    vertex 447.5162780928219 765.4279444572912 11.499999999999956
    vertex 447.5162780928219 765.4279444572912 13.24999999999995
  endloop
endfacet
facet normal -0.9914448613738385 0.13052619221983836 0.0
  outer loop
    vertex 447.5162780928219 765.4279444572912 11.499999999999956
    vertex 447.5673893533882 765.8161730249451 13.24999999999995
    vertex 447.5673893533882 765.8161730249451 11.499999999999956
  endloop
endfacet
facet normal 1.0 -0.0 -0.0
  outer loop
    vertex 421.0162780928214 767.927944457292 -2.9609648066752924e-14
    vertex 421.0162780928214 764.9279444572911 7.499999999999965
    vertex 421.0162780928214 764.9279444572911 -2.9609648066752924e-14
  endloop
endfacet
facet normal 1.0 -0.0 -0.0
  outer loop
    vertex 421.0162780928214 764.9279444572911 7.499999999999965
    vertex 421.0162780928214 763.9279444572912 11.49999999999996
    vertex 421.0162780928214 763.9279444572912 7.499999999999965
  endloop
endfacet
facet normal 1.0 -0.0 -0.0
  outer loop
    vertex 421.0162780928214 763.9279444572912 11.49999999999996
    vertex 421.0162780928214 764.9279444572911 7.499999999999965
    vertex 421.0162780928214 767.927944457292 11.49999999999996
  endloop
endfacet
facet normal 1.0 -0.0 -0.0
  outer loop
    vertex 421.0162780928214 767.927944457292 11.49999999999996
    vertex 421.0162780928214 764.9279444572911 7.499999999999965
    vertex 421.0162780928214 767.927944457292 -2.9609648066752924e-14
  endloop
endfacet
facet normal -0.0 -0.0 1.0
  outer loop
    vertex 446.51627809282155 762.927944457291 7.499999999999965
    vertex 421.0162780928214 763.9279444572912 7.499999999999965
    vertex 421.0162780928214 762.927944457291 7.499999999999965
  endloop
endfacet
facet normal -0.0 -0.0 1.0
  outer loop
    vertex 421.0162780928214 763.9279444572912 7.499999999999965
    vertex 446.51627809282155 762.927944457291 7.499999999999965
    vertex 421.0162780928214 764.9279444572911 7.499999999999965
  endloop
endfacet
facet normal -0.0 -0.0 1.0
  outer loop
    vertex 421.0162780928214 764.9279444572911 7.499999999999965
    vertex 446.51627809282155 762.927944457291 7.499999999999965
    vertex 446.51627809282155 764.9279444572911 7.499999999999965
  endloop
endfacet
facet normal 0.9238795325111951 0.3826834323653108 -0.0
  outer loop
    vertex 419.81531619849767 766.177944457291 11.49999999999996
    vertex 419.96516683225457 765.8161730249451 13.249999999999968
    vertex 419.96516683225457 765.8161730249451 11.49999999999996
  endloop
endfacet
facet normal 0.9238795325111951 0.3826834323653108 -0.0
  outer loop
    vertex 419.96516683225457 765.8161730249451 13.249999999999968
    vertex 419.81531619849767 766.177944457291 11.49999999999996
    vertex 419.81531619849767 766.177944457291 13.249999999999968
  endloop
endfacet
facet normal 0.0 -1.0 0.0
  outer loop
    vertex 450.51627809282155 791.4279444572925 11.499999999999957
    vertex 449.51627809282144 791.4279444572925 7.499999999999976
    vertex 450.51627809282155 791.4279444572925 7.499999999999976
  endloop
endfacet
facet normal 0.0 -1.0 0.0
  outer loop
    vertex 449.51627809282144 791.4279444572925 7.499999999999976
    vertex 446.51627809282155 791.4279444572925 -2.9609648066752924e-14
    vertex 449.51627809282144 791.4279444572925 -2.9609648066752924e-14
  endloop
endfacet
facet normal 0.0 -1.0 0.0
  outer loop
    vertex 446.51627809282155 791.4279444572925 -2.9609648066752924e-14
    vertex 449.51627809282144 791.4279444572925 7.499999999999976
    vertex 446.51627809282155 791.4279444572925 11.499999999999957
  endloop
endfacet
facet normal 0.0 -1.0 0.0
  outer loop
    vertex 446.51627809282155 791.4279444572925 11.499999999999957
    vertex 449.51627809282144 791.4279444572925 7.499999999999976
    vertex 450.51627809282155 791.4279444572925 11.499999999999957
  endloop
endfacet
facet normal 0.9238795325114653 -0.38268343236465907 -0.0
  outer loop
    vertex 450.46516683225485 765.0397158896378 11.499999999999956
    vertex 450.31531619849795 764.6779444572912 13.24999999999995
    vertex 450.31531619849795 764.6779444572912 11.499999999999956
  endloop
endfacet
facet normal 0.9238795325114653 -0.38268343236465907 -0.0
  outer loop
    vertex 450.31531619849795 764.6779444572912 13.24999999999995
    vertex 450.46516683225485 765.0397158896378 11.499999999999956
    vertex 450.46516683225485 765.0397158896378 13.24999999999995
  endloop
endfacet
facet normal -1.0 0.0 0.0
  outer loop
    vertex 446.51627809282155 767.927944457292 11.499999999999956
    vertex 446.51627809282155 762.927944457291 7.499999999999965
    vertex 446.51627809282155 762.927944457291 11.499999999999956
  endloop
endfacet
facet normal -1.0 0.0 0.0
  outer loop
    vertex 446.51627809282155 762.927944457291 7.499999999999965
    vertex 446.51627809282155 767.927944457292 11.499999999999956
    vertex 446.51627809282155 764.9279444572911 7.499999999999965
  endloop
endfacet
facet normal -1.0 0.0 0.0
  outer loop
    vertex 446.51627809282155 764.9279444572911 7.499999999999965
    vertex 446.51627809282155 767.927944457292 11.499999999999956
    vertex 446.51627809282155 764.9279444572911 -2.9609648066752924e-14
  endloop
endfacet
facet normal -1.0 0.0 0.0
  outer loop
    vertex 446.51627809282155 764.9279444572911 -2.9609648066752924e-14
    vertex 446.51627809282155 767.927944457292 11.499999999999956
    vertex 446.51627809282155 767.927944457292 -2.9609648066752924e-14
  endloop
endfacet
facet normal -0.0 -0.0 1.0
  outer loop
    vertex 451.5162780928215 767.927944457292 7.499999999999976
    vertex 449.51627809282144 791.4279444572925 7.499999999999976
    vertex 449.51627809282144 767.927944457292 7.499999999999976
  endloop
endfacet
facet normal -0.0 -0.0 1.0
  outer loop
    vertex 449.51627809282144 791.4279444572925 7.499999999999976
    vertex 451.5162780928215 767.927944457292 7.499999999999976
    vertex 450.51627809282155 791.4279444572925 7.499999999999976
  endloop
endfacet
facet normal -0.0 -0.0 1.0
  outer loop
    vertex 450.51627809282155 791.4279444572925 7.499999999999976
    vertex 451.5162780928215 767.927944457292 7.499999999999976
    vertex 451.5162780928215 791.4279444572925 7.499999999999976
  endloop
endfacet
facet normal -0.0 -0.0 1.0
  outer loop
    vertex 446.51627809282155 762.927944457291 11.499999999999956
    vertex 447.5673893533882 765.0397158896378 11.499999999999956
    vertex 446.51627809282155 767.927944457292 11.499999999999956
  endloop
endfacet
facet normal -0.0 -0.0 1.0
  outer loop
    vertex 447.5673893533882 765.0397158896378 11.499999999999956
    vertex 446.51627809282155 762.927944457291 11.499999999999956
    vertex 447.71723998714515 764.6779444572912 11.499999999999956
  endloop
endfacet
facet normal -0.0 -0.0 1.0
  outer loop
    vertex 447.71723998714515 764.6779444572912 11.499999999999956
    vertex 446.51627809282155 762.927944457291 11.499999999999956
    vertex 447.9556179210419 764.3672842855119 11.499999999999956
  endloop
endfacet
facet normal -0.0 -0.0 1.0
  outer loop
    vertex 447.9556179210419 764.3672842855119 11.499999999999956
    vertex 446.51627809282155 762.927944457291 11.499999999999956
    vertex 448.2662780928217 764.1289063516147 11.499999999999956
  endloop
endfacet
facet normal -0.0 -0.0 1.0
  outer loop
    vertex 448.2662780928217 764.1289063516147 11.499999999999956
    vertex 446.51627809282155 762.927944457291 11.499999999999956
    vertex 448.6280495251678 763.9790557178578 11.499999999999956
  endloop
endfacet
facet normal -0.0 -0.0 1.0
  outer loop
    vertex 448.6280495251678 763.9790557178578 11.499999999999956
    vertex 446.51627809282155 762.927944457291 11.499999999999956
    vertex 451.5162780928215 762.927944457291 11.499999999999956
  endloop
endfacet
facet normal -0.0 -0.0 1.0
  outer loop
    vertex 446.51627809282155 767.927944457292 11.499999999999956
    vertex 447.5673893533882 765.0397158896378 11.499999999999956
    vertex 447.5162780928219 765.4279444572912 11.499999999999956
  endloop
endfacet
facet normal -0.0 -0.0 1.0
  outer loop
    vertex 448.6280495251678 763.9790557178578 11.499999999999956
    vertex 451.5162780928215 762.927944457291 11.499999999999956
    vertex 449.01627809282155 763.9279444572916 11.499999999999956
  endloop
endfacet
facet normal -0.0 -0.0 1.0
  outer loop
    vertex 449.01627809282155 763.9279444572916 11.499999999999956
    vertex 451.5162780928215 762.927944457291 11.499999999999956
    vertex 449.40450666047525 763.9790557178578 11.499999999999956
  endloop
endfacet
facet normal -0.0 -0.0 1.0
  outer loop
    vertex 449.40450666047525 763.9790557178578 11.499999999999956
    vertex 451.5162780928215 762.927944457291 11.499999999999956
    vertex 449.7662780928214 764.1289063516147 11.499999999999956
  endloop
endfacet
facet normal -0.0 -0.0 1.0
  outer loop
    vertex 449.7662780928214 764.1289063516147 11.499999999999956
    vertex 451.5162780928215 762.927944457291 11.499999999999956
    vertex 450.07693826460115 764.3672842855119 11.499999999999956
  endloop
endfacet
facet normal -0.0 -0.0 1.0
  outer loop
    vertex 450.07693826460115 764.3672842855119 11.499999999999956
    vertex 451.5162780928215 762.927944457291 11.499999999999956
    vertex 450.31531619849795 764.6779444572912 11.499999999999956
  endloop
endfacet
facet normal -0.0 -0.0 1.0
  outer loop
    vertex 450.31531619849795 764.6779444572912 11.499999999999956
    vertex 451.5162780928215 762.927944457291 11.499999999999956
    vertex 450.46516683225485 765.0397158896378 11.499999999999956
  endloop
endfacet
facet normal -0.0 -0.0 1.0
  outer loop
    vertex 450.46516683225485 765.0397158896378 11.499999999999956
    vertex 451.5162780928215 762.927944457291 11.499999999999956
    vertex 450.5162780928212 765.4279444572912 11.499999999999956
  endloop
endfacet
facet normal -0.0 -0.0 1.0
  outer loop
    vertex 446.51627809282155 767.927944457292 11.499999999999956
    vertex 448.6280495251678 766.8768331967252 11.499999999999956
    vertex 451.5162780928215 767.927944457292 11.499999999999956
  endloop
endfacet
facet normal -0.0 -0.0 1.0
  outer loop
    vertex 448.6280495251678 766.8768331967252 11.499999999999956
    vertex 446.51627809282155 767.927944457292 11.499999999999956
    vertex 448.2662780928217 766.7269825629676 11.499999999999956
  endloop
endfacet
facet normal -0.0 -0.0 1.0
  outer loop
    vertex 448.2662780928217 766.7269825629676 11.499999999999956
    vertex 446.51627809282155 767.927944457292 11.499999999999956
    vertex 447.9556179210419 766.488604629071 11.499999999999956
  endloop
endfacet
facet normal -0.0 -0.0 1.0
  outer loop
    vertex 447.9556179210419 766.488604629071 11.499999999999956
    vertex 446.51627809282155 767.927944457292 11.499999999999956
    vertex 447.71723998714515 766.177944457291 11.499999999999956
  endloop
endfacet
facet normal -0.0 -0.0 1.0
  outer loop
    vertex 447.71723998714515 766.177944457291 11.499999999999956
    vertex 446.51627809282155 767.927944457292 11.499999999999956
    vertex 447.5673893533882 765.8161730249451 11.499999999999956
  endloop
endfacet
facet normal -0.0 -0.0 1.0
  outer loop
    vertex 447.5673893533882 765.8161730249451 11.499999999999956
    vertex 446.51627809282155 767.927944457292 11.499999999999956
    vertex 447.5162780928219 765.4279444572912 11.499999999999956
  endloop
endfacet
facet normal -0.0 -0.0 1.0
  outer loop
    vertex 451.5162780928215 767.927944457292 11.499999999999956
    vertex 448.6280495251678 766.8768331967252 11.499999999999956
    vertex 449.01627809282155 766.9279444572912 11.499999999999956
  endloop
endfacet
facet normal -0.0 -0.0 1.0
  outer loop
    vertex 451.5162780928215 767.927944457292 11.499999999999956
    vertex 449.01627809282155 766.9279444572912 11.499999999999956
    vertex 449.40450666047525 766.8768331967252 11.499999999999956
  endloop
endfacet
facet normal -0.0 -0.0 1.0
  outer loop
    vertex 451.5162780928215 767.927944457292 11.499999999999956
    vertex 449.40450666047525 766.8768331967252 11.499999999999956
    vertex 449.7662780928214 766.7269825629676 11.499999999999956
  endloop
endfacet
facet normal -0.0 -0.0 1.0
  outer loop
    vertex 451.5162780928215 767.927944457292 11.499999999999956
    vertex 449.7662780928214 766.7269825629676 11.499999999999956
    vertex 450.07693826460115 766.488604629071 11.499999999999956
  endloop
endfacet
facet normal -0.0 -0.0 1.0
  outer loop
    vertex 451.5162780928215 767.927944457292 11.499999999999956
    vertex 450.07693826460115 766.488604629071 11.499999999999956
    vertex 450.31531619849795 766.177944457291 11.499999999999956
  endloop
endfacet
facet normal -0.0 -0.0 1.0
  outer loop
    vertex 451.5162780928215 767.927944457292 11.499999999999956
    vertex 450.31531619849795 766.177944457291 11.499999999999956
    vertex 450.46516683225485 765.8161730249451 11.499999999999956
  endloop
endfacet
facet normal -0.0 -0.0 1.0
  outer loop
    vertex 451.5162780928215 767.927944457292 11.499999999999956
    vertex 450.46516683225485 765.8161730249451 11.499999999999956
    vertex 450.5162780928212 765.4279444572912 11.499999999999956
  endloop
endfacet
facet normal -0.0 -0.0 1.0
  outer loop
    vertex 451.5162780928215 767.927944457292 11.499999999999956
    vertex 450.5162780928212 765.4279444572912 11.499999999999956
    vertex 451.5162780928215 762.927944457291 11.499999999999956
  endloop
endfacet
facet normal 0.9238795325111954 0.3826834323653109 -0.0
  outer loop
    vertex 450.31531619849795 766.177944457291 11.499999999999956
    vertex 450.46516683225485 765.8161730249451 13.24999999999995
    vertex 450.46516683225485 765.8161730249451 11.499999999999956
  endloop
endfacet
facet normal 0.9238795325111954 0.3826834323653109 -0.0
  outer loop
    vertex 450.46516683225485 765.8161730249451 13.24999999999995
    vertex 450.31531619849795 766.177944457291 11.499999999999956
    vertex 450.31531619849795 766.177944457291 13.24999999999995
  endloop
endfacet
facet normal -0.0 1.0 -0.0
  outer loop
    vertex 446.51627809282155 796.4279444572928 11.499999999999957
    vertex 451.5162780928215 796.4279444572928 -2.9609648066752924e-14
    vertex 446.51627809282155 796.4279444572928 -2.9609648066752924e-14
  endloop
endfacet
facet normal -0.0 1.0 -0.0
  outer loop
    vertex 451.5162780928215 796.4279444572928 -2.9609648066752924e-14
    vertex 446.51627809282155 796.4279444572928 11.499999999999957
    vertex 451.5162780928215 796.4279444572928 11.499999999999957
  endloop
endfacet
facet normal 0.0 -1.0 0.0
  outer loop
    vertex 451.5162780928215 762.927944457291 -2.9609648066752924e-14
    vertex 446.51627809282155 762.927944457291 7.499999999999965
    vertex 416.01627809282144 762.927944457291 -2.9609648066752924e-14
  endloop
endfacet
facet normal 0.0 -1.0 0.0
  outer loop
    vertex 446.51627809282155 762.927944457291 7.499999999999965
    vertex 451.5162780928215 762.927944457291 -2.9609648066752924e-14
    vertex 451.5162780928215 762.927944457291 11.499999999999956
  endloop
endfacet
facet normal 0.0 -1.0 0.0
  outer loop
    vertex 446.51627809282155 762.927944457291 7.499999999999965
    vertex 451.5162780928215 762.927944457291 11.499999999999956
    vertex 446.51627809282155 762.927944457291 11.499999999999956
  endloop
endfacet
facet normal 0.0 -1.0 0.0
  outer loop
    vertex 416.01627809282144 762.927944457291 -2.9609648066752924e-14
    vertex 421.0162780928214 762.927944457291 7.499999999999965
    vertex 416.01627809282144 762.927944457291 11.49999999999996
  endloop
endfacet
facet normal 0.0 -1.0 0.0
  outer loop
    vertex 421.0162780928214 762.927944457291 7.499999999999965
    vertex 416.01627809282144 762.927944457291 -2.9609648066752924e-14
    vertex 446.51627809282155 762.927944457291 7.499999999999965
  endloop
endfacet
facet normal 0.0 -1.0 0.0
  outer loop
    vertex 416.01627809282144 762.927944457291 11.49999999999996
    vertex 421.0162780928214 762.927944457291 7.499999999999965
    vertex 421.0162780928214 762.927944457291 11.49999999999996
  endloop
endfacet
facet normal 2.040931220763708e-16 1.2352630084482655e-16 1.0
  outer loop
    vertex 421.0162780928214 762.927944457291 11.49999999999996
    vertex 416.01627809282144 763.677944457291 11.499999999999963
    vertex 416.01627809282144 762.927944457291 11.49999999999996
  endloop
endfacet
facet normal 2.040931220763708e-16 1.2352630084482655e-16 1.0
  outer loop
    vertex 416.01627809282144 763.677944457291 11.499999999999963
    vertex 421.0162780928214 762.927944457291 11.49999999999996
    vertex 416.01627809282144 763.979112457291 11.499999999999961
  endloop
endfacet
facet normal 2.040931220763708e-16 1.2352630084482655e-16 1.0
  outer loop
    vertex 416.01627809282144 763.979112457291 11.499999999999961
    vertex 421.0162780928214 762.927944457291 11.49999999999996
    vertex 418.12804952516774 763.9790557178578 11.49999999999996
  endloop
endfacet
facet normal 2.040931220763708e-16 1.2352630084482655e-16 1.0
  outer loop
    vertex 416.01627809282144 763.979112457291 11.499999999999961
    vertex 418.12804952516774 763.9790557178578 11.49999999999996
    vertex 417.7662780928216 764.1289063516147 11.49999999999996
  endloop
endfacet
facet normal 2.040931220763708e-16 1.2352630084482655e-16 1.0
  outer loop
    vertex 416.01627809282144 763.979112457291 11.499999999999961
    vertex 417.7662780928216 764.1289063516147 11.49999999999996
    vertex 417.45561792104183 764.3672842855119 11.49999999999996
  endloop
endfacet
facet normal 2.040931220763708e-16 1.2352630084482655e-16 1.0
  outer loop
    vertex 416.01627809282144 763.979112457291 11.499999999999961
    vertex 417.45561792104183 764.3672842855119 11.49999999999996
    vertex 417.21723998714504 764.6779444572912 11.49999999999996
  endloop
endfacet
facet normal 2.040931220763708e-16 1.2352630084482655e-16 1.0
  outer loop
    vertex 416.01627809282144 763.979112457291 11.499999999999961
    vertex 417.21723998714504 764.6779444572912 11.49999999999996
    vertex 417.0673893533881 765.0397158896378 11.49999999999996
  endloop
endfacet
facet normal 2.040931220763708e-16 1.2352630084482655e-16 1.0
  outer loop
    vertex 416.01627809282144 763.979112457291 11.499999999999961
    vertex 417.0673893533881 765.0397158896378 11.49999999999996
    vertex 416.01627809282144 767.927944457292 11.49999999999996
  endloop
endfacet
facet normal 2.040931220763708e-16 1.2352630084482655e-16 1.0
  outer loop
    vertex 416.01627809282144 767.927944457292 11.49999999999996
    vertex 417.0673893533881 765.0397158896378 11.49999999999996
    vertex 417.0162780928218 765.4279444572912 11.49999999999996
  endloop
endfacet
facet normal 2.040931220763708e-16 1.2352630084482655e-16 1.0
  outer loop
    vertex 417.0673893533881 765.0397158896378 11.49999999999996
    vertex 417.21723998714504 764.6779444572912 11.49999999999996
    vertex 417.11368659655193 764.9279444572911 11.49999999999996
  endloop
endfacet
facet normal 2.040931220763708e-16 1.2352630084482655e-16 1.0
  outer loop
    vertex 417.7662780928216 764.1289063516147 11.49999999999996
    vertex 418.12804952516774 763.9790557178578 11.49999999999996
    vertex 418.0162780928214 764.0253529610217 11.49999999999996
  endloop
endfacet
facet normal 2.040931220763708e-16 1.2352630084482655e-16 1.0
  outer loop
    vertex 418.12804952516774 763.9790557178578 11.49999999999996
    vertex 421.0162780928214 762.927944457291 11.49999999999996
    vertex 418.51627809282144 763.9279444572916 11.49999999999996
  endloop
endfacet
facet normal 2.040931220763708e-16 1.2352630084482655e-16 1.0
  outer loop
    vertex 418.51627809282144 763.9279444572916 11.49999999999996
    vertex 421.0162780928214 762.927944457291 11.49999999999996
    vertex 418.90450666047514 763.9790557178578 11.49999999999996
  endloop
endfacet
facet normal 2.040931220763708e-16 1.2352630084482655e-16 1.0
  outer loop
    vertex 418.90450666047514 763.9790557178578 11.49999999999996
    vertex 421.0162780928214 762.927944457291 11.49999999999996
    vertex 419.0162780928213 764.0253529610217 11.49999999999996
  endloop
endfacet
facet normal 2.040931220763708e-16 1.2352630084482655e-16 1.0
  outer loop
    vertex 419.0162780928213 764.0253529610217 11.49999999999996
    vertex 421.0162780928214 762.927944457291 11.49999999999996
    vertex 419.26627809282127 764.1289063516147 11.49999999999996
  endloop
endfacet
facet normal 2.040931220763708e-16 1.2352630084482655e-16 1.0
  outer loop
    vertex 419.26627809282127 764.1289063516147 11.49999999999996
    vertex 421.0162780928214 762.927944457291 11.49999999999996
    vertex 419.57693826460087 764.3672842855119 11.49999999999996
  endloop
endfacet
facet normal 2.040931220763708e-16 1.2352630084482655e-16 1.0
  outer loop
    vertex 419.57693826460087 764.3672842855119 11.49999999999996
    vertex 421.0162780928214 762.927944457291 11.49999999999996
    vertex 419.81531619849767 764.6779444572912 11.49999999999996
  endloop
endfacet
facet normal 2.040931220763708e-16 1.2352630084482655e-16 1.0
  outer loop
    vertex 419.81531619849767 764.6779444572912 11.49999999999996
    vertex 421.0162780928214 762.927944457291 11.49999999999996
    vertex 419.96516683225457 765.0397158896378 11.49999999999996
  endloop
endfacet
facet normal 2.040931220763708e-16 1.2352630084482655e-16 1.0
  outer loop
    vertex 419.96516683225457 765.0397158896378 11.49999999999996
    vertex 421.0162780928214 762.927944457291 11.49999999999996
    vertex 420.0162780928211 765.4279444572912 11.49999999999996
  endloop
endfacet
facet normal 2.040931220763708e-16 1.2352630084482655e-16 1.0
  outer loop
    vertex 416.01627809282144 767.927944457292 11.49999999999996
    vertex 418.12804952516774 766.8768331967252 11.49999999999996
    vertex 421.0162780928214 767.927944457292 11.49999999999996
  endloop
endfacet
facet normal 2.040931220763708e-16 1.2352630084482655e-16 1.0
  outer loop
    vertex 418.12804952516774 766.8768331967252 11.49999999999996
    vertex 416.01627809282144 767.927944457292 11.49999999999996
    vertex 417.7662780928216 766.7269825629676 11.49999999999996
  endloop
endfacet
facet normal 2.040931220763708e-16 1.2352630084482655e-16 1.0
  outer loop
    vertex 417.7662780928216 766.7269825629676 11.49999999999996
    vertex 416.01627809282144 767.927944457292 11.49999999999996
    vertex 417.45561792104183 766.488604629071 11.49999999999996
  endloop
endfacet
facet normal 2.040931220763708e-16 1.2352630084482655e-16 1.0
  outer loop
    vertex 417.45561792104183 766.488604629071 11.49999999999996
    vertex 416.01627809282144 767.927944457292 11.49999999999996
    vertex 417.21723998714504 766.177944457291 11.49999999999996
  endloop
endfacet
facet normal 2.040931220763708e-16 1.2352630084482655e-16 1.0
  outer loop
    vertex 417.21723998714504 766.177944457291 11.49999999999996
    vertex 416.01627809282144 767.927944457292 11.49999999999996
    vertex 417.0673893533881 765.8161730249451 11.49999999999996
  endloop
endfacet
facet normal 2.040931220763708e-16 1.2352630084482655e-16 1.0
  outer loop
    vertex 417.0673893533881 765.8161730249451 11.49999999999996
    vertex 416.01627809282144 767.927944457292 11.49999999999996
    vertex 417.0162780928218 765.4279444572912 11.49999999999996
  endloop
endfacet
facet normal 2.040931220763708e-16 1.2352630084482655e-16 1.0
  outer loop
    vertex 417.21723998714504 766.177944457291 11.49999999999996
    vertex 417.0673893533881 765.8161730249451 11.49999999999996
    vertex 417.11368659655176 765.9279444572911 11.49999999999996
  endloop
endfacet
facet normal 2.040931220763708e-16 1.2352630084482655e-16 1.0
  outer loop
    vertex 417.45561792104183 766.488604629071 11.49999999999996
    vertex 417.21723998714504 766.177944457291 11.49999999999996
    vertex 417.40907173413984 766.427944457291 11.49999999999996
  endloop
endfacet
facet normal 2.040931220763708e-16 1.2352630084482655e-16 1.0
  outer loop
    vertex 421.0162780928214 767.927944457292 11.49999999999996
    vertex 418.12804952516774 766.8768331967252 11.49999999999996
    vertex 418.51627809282144 766.9279444572912 11.49999999999996
  endloop
endfacet
facet normal 2.040931220763708e-16 1.2352630084482655e-16 1.0
  outer loop
    vertex 421.0162780928214 767.927944457292 11.49999999999996
    vertex 418.51627809282144 766.9279444572912 11.49999999999996
    vertex 418.90450666047514 766.8768331967252 11.49999999999996
  endloop
endfacet
facet normal 2.040931220763708e-16 1.2352630084482655e-16 1.0
  outer loop
    vertex 421.0162780928214 767.927944457292 11.49999999999996
    vertex 418.90450666047514 766.8768331967252 11.49999999999996
    vertex 419.26627809282127 766.7269825629676 11.49999999999996
  endloop
endfacet
facet normal 2.040931220763708e-16 1.2352630084482655e-16 1.0
  outer loop
    vertex 421.0162780928214 767.927944457292 11.49999999999996
    vertex 419.26627809282127 766.7269825629676 11.49999999999996
    vertex 419.57693826460087 766.488604629071 11.49999999999996
  endloop
endfacet
facet normal 2.040931220763708e-16 1.2352630084482655e-16 1.0
  outer loop
    vertex 421.0162780928214 767.927944457292 11.49999999999996
    vertex 419.57693826460087 766.488604629071 11.49999999999996
    vertex 419.81531619849767 766.177944457291 11.49999999999996
  endloop
endfacet
facet normal 2.040931220763708e-16 1.2352630084482655e-16 1.0
  outer loop
    vertex 421.0162780928214 767.927944457292 11.49999999999996
    vertex 419.81531619849767 766.177944457291 11.49999999999996
    vertex 419.96516683225457 765.8161730249451 11.49999999999996
  endloop
endfacet
facet normal 2.040931220763708e-16 1.2352630084482655e-16 1.0
  outer loop
    vertex 421.0162780928214 767.927944457292 11.49999999999996
    vertex 419.96516683225457 765.8161730249451 11.49999999999996
    vertex 420.0162780928211 765.4279444572912 11.49999999999996
  endloop
endfacet
facet normal 2.040931220763708e-16 1.2352630084482655e-16 1.0
  outer loop
    vertex 421.0162780928214 767.927944457292 11.49999999999996
    vertex 420.0162780928211 765.4279444572912 11.49999999999996
    vertex 421.0162780928214 762.927944457291 11.49999999999996
  endloop
endfacet
facet normal 2.040931220763708e-16 1.2352630084482655e-16 1.0
  outer loop
    vertex 421.0162780928214 767.927944457292 11.49999999999996
    vertex 421.0162780928214 762.927944457291 11.49999999999996
    vertex 421.0162780928214 763.9279444572912 11.49999999999996
  endloop
endfacet
endsolid Multibox-Sensor
